STARTFONT 2.1
FONT -FontForge-Lobster-Book-R-Normal--11-110-72-72-P-64-ISO10646-1
SIZE 11 72 72
FONTBOUNDINGBOX 22 18 -5 -6
COMMENT "Generated by fontforge, http://fontforge.sourceforge.net"
COMMENT "Copyright 2010 The Lobster Project Authors (https://github.com/impallari/The-Lobster-Font), with Reserved Font Name "Lobster"."
STARTPROPERTIES 40
FOUNDRY "FontForge"
FAMILY_NAME "Lobster"
WEIGHT_NAME "Book"
SLANT "R"
SETWIDTH_NAME "Normal"
ADD_STYLE_NAME ""
PIXEL_SIZE 11
POINT_SIZE 110
RESOLUTION_X 72
RESOLUTION_Y 72
SPACING "P"
AVERAGE_WIDTH 64
CHARSET_REGISTRY "ISO10646"
CHARSET_ENCODING "1"
FONTNAME_REGISTRY ""
CHARSET_COLLECTIONS "ISO8859-2 ISO8859-5 ISO8859-9 ISO8859-4 ISO10646-1"
FONT_NAME "Lobster-Regular"
FACE_NAME "Lobster Regular"
COPYRIGHT "Copyright 2010 The Lobster Project Authors (https://github.com/impallari/The-Lobster-Font), with Reserved Font Name "Lobster"."
FONT_VERSION "2.100"
FONT_ASCENT 9
FONT_DESCENT 2
UNDERLINE_POSITION -1
UNDERLINE_THICKNESS 1
X_HEIGHT 5
CAP_HEIGHT 8
DEFAULT_CHAR 1
RAW_ASCENT 800
RAW_DESCENT 200
NORM_SPACE 2
RELATIVE_WEIGHT 40
RELATIVE_SETWIDTH 50
SUPERSCRIPT_X 0
SUPERSCRIPT_Y 3
SUPERSCRIPT_SIZE 6
SUBSCRIPT_X 0
SUBSCRIPT_Y 0
SUBSCRIPT_SIZE 6
AVG_LOWERCASE_WIDTH 52
AVG_UPPERCASE_WIDTH 67
ENDPROPERTIES
CHARS 1148
STARTCHAR NULL.dup1
ENCODING 0
SWIDTH 600 0
DWIDTH 7 0
BBX 1 1 0 0
BITMAP
00
ENDCHAR
STARTCHAR nonmarkingreturn
ENCODING 13
SWIDTH 600 0
DWIDTH 7 0
BBX 1 1 0 0
BITMAP
00
ENDCHAR
STARTCHAR space
ENCODING 32
SWIDTH 217 0
DWIDTH 2 0
BBX 1 1 0 0
BITMAP
00
ENDCHAR
STARTCHAR exclam
ENCODING 33
SWIDTH 257 0
DWIDTH 3 0
BBX 4 9 0 0
BITMAP
30
20
20
60
40
40
00
40
C0
ENDCHAR
STARTCHAR quotedbl
ENCODING 34
SWIDTH 353 0
DWIDTH 4 0
BBX 4 3 1 6
BITMAP
70
A0
A0
ENDCHAR
STARTCHAR numbersign
ENCODING 35
SWIDTH 659 0
DWIDTH 7 0
BBX 6 7 1 1
BITMAP
28
48
FC
50
F8
50
90
ENDCHAR
STARTCHAR dollar
ENCODING 36
SWIDTH 548 0
DWIDTH 6 0
BBX 6 11 0 -1
BITMAP
08
38
34
7C
30
18
E8
A8
A8
70
20
ENDCHAR
STARTCHAR percent
ENCODING 37
SWIDTH 796 0
DWIDTH 9 0
BBX 8 9 1 0
BITMAP
64
A4
A8
A8
B6
DD
29
2A
4E
ENDCHAR
STARTCHAR ampersand
ENCODING 38
SWIDTH 682 0
DWIDTH 8 0
BBX 7 9 0 0
BITMAP
18
24
28
20
32
4E
D4
C8
70
ENDCHAR
STARTCHAR quotesingle
ENCODING 39
SWIDTH 196 0
DWIDTH 2 0
BBX 2 2 1 7
BITMAP
40
80
ENDCHAR
STARTCHAR parenleft
ENCODING 40
SWIDTH 437 0
DWIDTH 5 0
BBX 4 11 2 -3
BITMAP
30
40
40
80
80
80
80
80
80
80
40
ENDCHAR
STARTCHAR parenright
ENCODING 41
SWIDTH 413 0
DWIDTH 5 0
BBX 4 11 -1 -3
BITMAP
30
10
10
10
10
10
10
30
20
40
80
ENDCHAR
STARTCHAR asterisk
ENCODING 42
SWIDTH 515 0
DWIDTH 6 0
BBX 4 5 1 4
BITMAP
40
F0
60
D0
40
ENDCHAR
STARTCHAR plus
ENCODING 43
SWIDTH 442 0
DWIDTH 5 0
BBX 4 4 0 2
BITMAP
20
20
F0
40
ENDCHAR
STARTCHAR comma
ENCODING 44
SWIDTH 216 0
DWIDTH 2 0
BBX 2 3 0 -1
BITMAP
C0
40
80
ENDCHAR
STARTCHAR hyphen
ENCODING 45
SWIDTH 290 0
DWIDTH 3 0
BBX 3 1 0 3
BITMAP
E0
ENDCHAR
STARTCHAR period
ENCODING 46
SWIDTH 263 0
DWIDTH 3 0
BBX 2 2 0 0
BITMAP
40
C0
ENDCHAR
STARTCHAR slash
ENCODING 47
SWIDTH 311 0
DWIDTH 3 0
BBX 3 12 0 -3
BITMAP
20
20
20
20
40
40
40
40
40
80
80
80
ENDCHAR
STARTCHAR zero
ENCODING 48
SWIDTH 546 0
DWIDTH 6 0
BBX 6 9 0 0
BITMAP
38
64
64
44
CC
CC
C8
C8
70
ENDCHAR
STARTCHAR one
ENCODING 49
SWIDTH 317 0
DWIDTH 3 0
BBX 4 9 0 0
BITMAP
10
60
20
60
60
60
40
40
C0
ENDCHAR
STARTCHAR two
ENCODING 50
SWIDTH 492 0
DWIDTH 5 0
BBX 5 9 0 0
BITMAP
78
58
48
18
10
20
40
F8
F8
ENDCHAR
STARTCHAR three
ENCODING 51
SWIDTH 514 0
DWIDTH 6 0
BBX 5 9 0 0
BITMAP
38
48
68
38
18
48
88
98
70
ENDCHAR
STARTCHAR four
ENCODING 52
SWIDTH 476 0
DWIDTH 5 0
BBX 5 9 0 0
BITMAP
30
30
28
28
50
F8
10
10
30
ENDCHAR
STARTCHAR five
ENCODING 53
SWIDTH 517 0
DWIDTH 6 0
BBX 6 8 0 0
BITMAP
3C
40
70
18
48
C8
98
70
ENDCHAR
STARTCHAR six
ENCODING 54
SWIDTH 500 0
DWIDTH 6 0
BBX 6 9 0 0
BITMAP
38
64
68
C0
F8
C8
C8
C8
70
ENDCHAR
STARTCHAR seven
ENCODING 55
SWIDTH 464 0
DWIDTH 5 0
BBX 5 9 1 0
BITMAP
C8
B0
30
20
60
C0
C0
C0
C0
ENDCHAR
STARTCHAR eight
ENCODING 56
SWIDTH 499 0
DWIDTH 5 0
BBX 6 9 0 0
BITMAP
38
6C
68
78
30
D8
88
C8
70
ENDCHAR
STARTCHAR nine
ENCODING 57
SWIDTH 489 0
DWIDTH 5 0
BBX 5 9 0 0
BITMAP
38
48
C8
C8
D8
68
18
D0
E0
ENDCHAR
STARTCHAR colon
ENCODING 58
SWIDTH 267 0
DWIDTH 3 0
BBX 3 5 0 1
BITMAP
60
60
00
40
C0
ENDCHAR
STARTCHAR semicolon
ENCODING 59
SWIDTH 276 0
DWIDTH 3 0
BBX 3 6 0 -1
BITMAP
60
60
00
C0
40
40
ENDCHAR
STARTCHAR less
ENCODING 60
SWIDTH 358 0
DWIDTH 4 0
BBX 4 4 0 1
BITMAP
10
60
C0
20
ENDCHAR
STARTCHAR equal
ENCODING 61
SWIDTH 515 0
DWIDTH 6 0
BBX 5 4 0 1
BITMAP
78
00
00
F8
ENDCHAR
STARTCHAR greater
ENCODING 62
SWIDTH 362 0
DWIDTH 4 0
BBX 4 4 0 1
BITMAP
40
30
60
80
ENDCHAR
STARTCHAR question
ENCODING 63
SWIDTH 441 0
DWIDTH 5 0
BBX 5 9 0 0
BITMAP
70
58
58
10
20
40
00
40
C0
ENDCHAR
STARTCHAR at
ENCODING 64
SWIDTH 688 0
DWIDTH 8 0
BBX 7 9 0 -1
BITMAP
1C
62
5A
AA
AA
AA
BC
88
70
ENDCHAR
STARTCHAR A
ENCODING 65
SWIDTH 668 0
DWIDTH 7 0
BBX 8 10 0 -1
BITMAP
07
0A
12
7E
A6
26
64
64
4C
40
ENDCHAR
STARTCHAR B
ENCODING 66
SWIDTH 641 0
DWIDTH 7 0
BBX 7 9 0 0
BITMAP
3C
54
B4
BC
26
26
26
64
7C
ENDCHAR
STARTCHAR C
ENCODING 67
SWIDTH 497 0
DWIDTH 5 0
BBX 6 9 0 0
BITMAP
38
64
6C
40
C0
C0
C0
C4
78
ENDCHAR
STARTCHAR D
ENCODING 68
SWIDTH 663 0
DWIDTH 7 0
BBX 7 9 0 0
BITMAP
3C
56
B2
B2
36
26
26
64
78
ENDCHAR
STARTCHAR E
ENCODING 69
SWIDTH 459 0
DWIDTH 5 0
BBX 5 9 0 0
BITMAP
38
28
68
20
70
C0
C0
C8
70
ENDCHAR
STARTCHAR F
ENCODING 70
SWIDTH 459 0
DWIDTH 5 0
BBX 7 9 0 0
BITMAP
7E
B0
B0
B0
B8
20
60
60
60
ENDCHAR
STARTCHAR G
ENCODING 71
SWIDTH 578 0
DWIDTH 6 0
BBX 6 11 0 -2
BITMAP
3C
64
44
C0
C4
CC
CC
78
68
58
70
ENDCHAR
STARTCHAR H
ENCODING 72
SWIDTH 665 0
DWIDTH 7 0
BBX 8 9 0 0
BITMAP
33
72
F2
B6
BE
26
24
64
6C
ENDCHAR
STARTCHAR I
ENCODING 73
SWIDTH 375 0
DWIDTH 4 0
BBX 4 9 0 0
BITMAP
30
50
B0
B0
20
20
20
60
60
ENDCHAR
STARTCHAR J
ENCODING 74
SWIDTH 536 0
DWIDTH 6 0
BBX 6 11 0 -2
BITMAP
0C
1C
2C
2C
08
08
18
18
78
90
60
ENDCHAR
STARTCHAR K
ENCODING 75
SWIDTH 601 0
DWIDTH 7 0
BBX 7 9 0 0
BITMAP
32
54
B4
B8
BC
24
2C
6C
6C
ENDCHAR
STARTCHAR L
ENCODING 76
SWIDTH 379 0
DWIDTH 4 0
BBX 7 12 0 -3
BITMAP
30
70
B0
B0
20
20
60
60
60
18
0E
06
ENDCHAR
STARTCHAR M
ENCODING 77
SWIDTH 787 0
DWIDTH 9 0
BBX 8 9 1 0
BITMAP
33
F3
B7
B6
76
7A
7E
B6
B6
ENDCHAR
STARTCHAR N
ENCODING 78
SWIDTH 668 0
DWIDTH 7 0
BBX 8 9 0 0
BITMAP
31
59
BA
BA
2A
2A
2E
4C
4C
ENDCHAR
STARTCHAR O
ENCODING 79
SWIDTH 665 0
DWIDTH 7 0
BBX 7 9 0 0
BITMAP
3C
52
B2
A2
62
66
64
6C
38
ENDCHAR
STARTCHAR P
ENCODING 80
SWIDTH 573 0
DWIDTH 6 0
BBX 7 9 0 0
BITMAP
3C
54
B6
B4
34
38
20
60
60
ENDCHAR
STARTCHAR Q
ENCODING 81
SWIDTH 665 0
DWIDTH 7 0
BBX 7 10 0 -1
BITMAP
3C
5A
B2
A2
22
66
66
7C
38
0E
ENDCHAR
STARTCHAR R
ENCODING 82
SWIDTH 601 0
DWIDTH 7 0
BBX 6 9 0 0
BITMAP
3C
54
B4
B4
BC
24
2C
6C
6C
ENDCHAR
STARTCHAR S
ENCODING 83
SWIDTH 570 0
DWIDTH 6 0
BBX 6 9 0 0
BITMAP
3C
24
24
30
18
68
CC
C8
70
ENDCHAR
STARTCHAR T
ENCODING 84
SWIDTH 481 0
DWIDTH 5 0
BBX 8 9 0 0
BITMAP
39
5E
98
90
10
30
30
30
20
ENDCHAR
STARTCHAR U
ENCODING 85
SWIDTH 716 0
DWIDTH 8 0
BBX 8 9 0 0
BITMAP
39
51
93
B3
33
22
26
26
3C
ENDCHAR
STARTCHAR V
ENCODING 86
SWIDTH 615 0
DWIDTH 7 0
BBX 8 9 0 0
BITMAP
33
52
92
92
14
14
14
18
18
ENDCHAR
STARTCHAR W
ENCODING 87
SWIDTH 962 0
DWIDTH 11 0
BBX 11 9 0 0
BITMAP
3120
5320
9320
9340
1540
1540
1580
1980
1900
ENDCHAR
STARTCHAR X
ENCODING 88
SWIDTH 620 0
DWIDTH 7 0
BBX 7 9 0 0
BITMAP
32
5C
9C
98
18
18
1C
2C
6C
ENDCHAR
STARTCHAR Y
ENCODING 89
SWIDTH 620 0
DWIDTH 7 0
BBX 8 9 0 0
BITMAP
31
5A
9A
9C
0C
0C
08
18
18
ENDCHAR
STARTCHAR Z
ENCODING 90
SWIDTH 542 0
DWIDTH 6 0
BBX 6 9 0 0
BITMAP
7C
48
18
10
30
30
60
6C
F8
ENDCHAR
STARTCHAR bracketleft
ENCODING 91
SWIDTH 400 0
DWIDTH 4 0
BBX 5 12 0 -3
BITMAP
38
20
20
20
40
40
40
40
40
C0
80
C0
ENDCHAR
STARTCHAR backslash
ENCODING 92
SWIDTH 362 0
DWIDTH 4 0
BBX 4 12 0 -3
BITMAP
80
40
40
40
40
40
20
20
20
20
20
10
ENDCHAR
STARTCHAR bracketright
ENCODING 93
SWIDTH 400 0
DWIDTH 4 0
BBX 5 12 -1 -3
BITMAP
18
08
18
10
10
10
10
30
20
20
20
E0
ENDCHAR
STARTCHAR asciicircum
ENCODING 94
SWIDTH 421 0
DWIDTH 5 0
BBX 3 2 1 7
BITMAP
40
A0
ENDCHAR
STARTCHAR underscore
ENCODING 95
SWIDTH 444 0
DWIDTH 5 0
BBX 4 1 0 0
BITMAP
F0
ENDCHAR
STARTCHAR grave
ENCODING 96
SWIDTH 201 0
DWIDTH 2 0
BBX 2 2 0 7
BITMAP
C0
40
ENDCHAR
STARTCHAR a
ENCODING 97
SWIDTH 526 0
DWIDTH 6 0
BBX 6 6 0 0
BITMAP
78
58
D8
D8
D4
F8
ENDCHAR
STARTCHAR b
ENCODING 98
SWIDTH 444 0
DWIDTH 5 0
BBX 4 8 0 0
BITMAP
60
40
70
D0
D0
D0
D0
E0
ENDCHAR
STARTCHAR c
ENCODING 99
SWIDTH 384 0
DWIDTH 4 0
BBX 5 6 0 0
BITMAP
70
50
C0
C0
88
F0
ENDCHAR
STARTCHAR d
ENCODING 100
SWIDTH 525 0
DWIDTH 6 0
BBX 6 8 0 0
BITMAP
0C
08
78
58
D8
D8
94
F8
ENDCHAR
STARTCHAR e
ENCODING 101
SWIDTH 384 0
DWIDTH 4 0
BBX 5 6 0 0
BITMAP
70
50
D0
E0
88
F0
ENDCHAR
STARTCHAR f
ENCODING 102
SWIDTH 267 0
DWIDTH 3 0
BBX 6 12 -2 -3
BITMAP
0C
1C
10
18
30
30
30
20
20
E0
E0
C0
ENDCHAR
STARTCHAR g
ENCODING 103
SWIDTH 507 0
DWIDTH 6 0
BBX 6 9 0 -3
BITMAP
78
58
D8
D8
94
F8
30
70
60
ENDCHAR
STARTCHAR h
ENCODING 104
SWIDTH 505 0
DWIDTH 6 0
BBX 6 8 0 0
BITMAP
60
40
70
D8
D8
D0
94
98
ENDCHAR
STARTCHAR i
ENCODING 105
SWIDTH 267 0
DWIDTH 3 0
BBX 3 8 0 0
BITMAP
60
60
40
C0
C0
C0
E0
C0
ENDCHAR
STARTCHAR j
ENCODING 106
SWIDTH 240 0
DWIDTH 3 0
BBX 5 11 -2 -3
BITMAP
18
10
10
30
30
30
28
38
60
E0
C0
ENDCHAR
STARTCHAR k
ENCODING 107
SWIDTH 518 0
DWIDTH 6 0
BBX 6 8 0 0
BITMAP
60
40
58
E0
F0
D8
94
98
ENDCHAR
STARTCHAR l
ENCODING 108
SWIDTH 267 0
DWIDTH 3 0
BBX 3 8 0 0
BITMAP
60
40
40
C0
C0
C0
E0
C0
ENDCHAR
STARTCHAR m
ENCODING 109
SWIDTH 752 0
DWIDTH 8 0
BBX 9 6 0 0
BITMAP
7E00
DA00
DA00
D200
9680
B300
ENDCHAR
STARTCHAR n
ENCODING 110
SWIDTH 505 0
DWIDTH 6 0
BBX 6 6 0 0
BITMAP
70
D8
D8
D0
94
98
ENDCHAR
STARTCHAR o
ENCODING 111
SWIDTH 439 0
DWIDTH 5 0
BBX 6 6 0 0
BITMAP
70
54
D8
D0
90
E0
ENDCHAR
STARTCHAR p
ENCODING 112
SWIDTH 468 0
DWIDTH 5 0
BBX 6 10 -1 -3
BITMAP
20
3C
6C
6C
6C
48
78
C0
C0
C0
ENDCHAR
STARTCHAR q
ENCODING 113
SWIDTH 486 0
DWIDTH 5 0
BBX 5 9 0 -3
BITMAP
78
58
D8
D8
90
F0
30
30
20
ENDCHAR
STARTCHAR r
ENCODING 114
SWIDTH 376 0
DWIDTH 4 0
BBX 4 6 0 0
BITMAP
70
D0
C0
C0
80
80
ENDCHAR
STARTCHAR s
ENCODING 115
SWIDTH 382 0
DWIDTH 4 0
BBX 5 6 0 0
BITMAP
60
60
A0
A0
B8
E0
ENDCHAR
STARTCHAR t
ENCODING 116
SWIDTH 267 0
DWIDTH 3 0
BBX 3 8 0 0
BITMAP
60
40
E0
40
C0
C0
E0
C0
ENDCHAR
STARTCHAR u
ENCODING 117
SWIDTH 505 0
DWIDTH 6 0
BBX 6 6 0 0
BITMAP
58
D8
D8
D0
F4
D8
ENDCHAR
STARTCHAR v
ENCODING 118
SWIDTH 414 0
DWIDTH 5 0
BBX 4 6 0 0
BITMAP
50
D0
D0
D0
90
E0
ENDCHAR
STARTCHAR w
ENCODING 119
SWIDTH 661 0
DWIDTH 7 0
BBX 7 6 0 0
BITMAP
5A
DA
DA
D2
F4
D8
ENDCHAR
STARTCHAR x
ENCODING 120
SWIDTH 522 0
DWIDTH 6 0
BBX 6 6 0 0
BITMAP
78
BC
B8
B0
54
D8
ENDCHAR
STARTCHAR y
ENCODING 121
SWIDTH 486 0
DWIDTH 5 0
BBX 6 9 0 -3
BITMAP
58
D8
D8
D0
F4
F8
70
B0
60
ENDCHAR
STARTCHAR z
ENCODING 122
SWIDTH 428 0
DWIDTH 5 0
BBX 5 6 0 0
BITMAP
78
70
20
60
50
F0
ENDCHAR
STARTCHAR braceleft
ENCODING 123
SWIDTH 352 0
DWIDTH 4 0
BBX 4 12 0 -3
BITMAP
10
20
20
20
20
20
C0
40
40
40
C0
60
ENDCHAR
STARTCHAR bar
ENCODING 124
SWIDTH 532 0
DWIDTH 6 0
BBX 1 12 2 -3
BITMAP
80
80
80
80
80
80
80
80
80
80
80
80
ENDCHAR
STARTCHAR braceright
ENCODING 125
SWIDTH 352 0
DWIDTH 4 0
BBX 4 12 -1 -3
BITMAP
30
10
10
10
30
20
10
20
20
20
60
C0
ENDCHAR
STARTCHAR asciitilde
ENCODING 126
SWIDTH 431 0
DWIDTH 5 0
BBX 4 2 1 7
BITMAP
40
F0
ENDCHAR
STARTCHAR uni00A0
ENCODING 160
SWIDTH 217 0
DWIDTH 2 0
BBX 1 1 0 0
BITMAP
00
ENDCHAR
STARTCHAR exclamdown
ENCODING 161
SWIDTH 219 0
DWIDTH 2 0
BBX 4 9 -1 -3
BITMAP
30
20
00
20
60
40
40
40
C0
ENDCHAR
STARTCHAR cent
ENCODING 162
SWIDTH 384 0
DWIDTH 4 0
BBX 5 9 0 -1
BITMAP
10
30
68
F0
A0
C0
70
40
40
ENDCHAR
STARTCHAR sterling
ENCODING 163
SWIDTH 455 0
DWIDTH 5 0
BBX 6 9 0 0
BITMAP
18
3C
20
20
F8
60
60
44
F8
ENDCHAR
STARTCHAR currency
ENCODING 164
SWIDTH 500 0
DWIDTH 6 0
BBX 4 4 1 2
BITMAP
F0
90
90
F0
ENDCHAR
STARTCHAR yen
ENCODING 165
SWIDTH 558 0
DWIDTH 6 0
BBX 5 9 1 0
BITMAP
C8
48
70
70
60
F8
60
F0
60
ENDCHAR
STARTCHAR brokenbar
ENCODING 166
SWIDTH 532 0
DWIDTH 6 0
BBX 1 12 2 -3
BITMAP
80
80
80
80
80
00
80
80
80
80
80
80
ENDCHAR
STARTCHAR section
ENCODING 167
SWIDTH 542 0
DWIDTH 6 0
BBX 6 10 0 -1
BITMAP
1C
24
20
70
58
6C
38
D8
90
60
ENDCHAR
STARTCHAR dieresis
ENCODING 168
SWIDTH 392 0
DWIDTH 4 0
BBX 3 1 1 7
BITMAP
A0
ENDCHAR
STARTCHAR copyright
ENCODING 169
SWIDTH 587 0
DWIDTH 6 0
BBX 5 7 1 1
BITMAP
70
88
E8
98
88
F8
70
ENDCHAR
STARTCHAR ordfeminine
ENCODING 170
SWIDTH 345 0
DWIDTH 4 0
BBX 4 4 0 5
BITMAP
70
60
A0
60
ENDCHAR
STARTCHAR guillemotleft
ENCODING 171
SWIDTH 589 0
DWIDTH 6 0
BBX 6 4 0 1
BITMAP
14
68
D0
28
ENDCHAR
STARTCHAR logicalnot
ENCODING 172
SWIDTH 444 0
DWIDTH 5 0
BBX 4 3 0 1
BITMAP
F0
10
10
ENDCHAR
STARTCHAR uni00AD
ENCODING 173
SWIDTH 290 0
DWIDTH 3 0
BBX 3 1 0 3
BITMAP
E0
ENDCHAR
STARTCHAR registered
ENCODING 174
SWIDTH 553 0
DWIDTH 6 0
BBX 6 7 0 1
BITMAP
30
48
B4
B4
B4
48
30
ENDCHAR
STARTCHAR macron
ENCODING 175
SWIDTH 446 0
DWIDTH 5 0
BBX 3 1 1 7
BITMAP
E0
ENDCHAR
STARTCHAR degree
ENCODING 176
SWIDTH 314 0
DWIDTH 3 0
BBX 3 4 0 4
BITMAP
60
A0
A0
40
ENDCHAR
STARTCHAR plusminus
ENCODING 177
SWIDTH 479 0
DWIDTH 5 0
BBX 5 6 0 1
BITMAP
10
20
78
20
20
F0
ENDCHAR
STARTCHAR uni00B2
ENCODING 178
SWIDTH 328 0
DWIDTH 4 0
BBX 3 5 1 4
BITMAP
C0
E0
40
80
C0
ENDCHAR
STARTCHAR uni00B3
ENCODING 179
SWIDTH 336 0
DWIDTH 4 0
BBX 3 5 1 4
BITMAP
C0
A0
40
E0
C0
ENDCHAR
STARTCHAR acute
ENCODING 180
SWIDTH 316 0
DWIDTH 3 0
BBX 2 2 1 7
BITMAP
40
80
ENDCHAR
STARTCHAR uni00B5
ENCODING 181
SWIDTH 505 0
DWIDTH 6 0
BBX 7 8 -1 -2
BITMAP
2C
6C
6C
68
7A
6C
C0
C0
ENDCHAR
STARTCHAR paragraph
ENCODING 182
SWIDTH 542 0
DWIDTH 6 0
BBX 5 10 1 -1
BITMAP
70
E8
E8
F0
F0
70
50
50
60
60
ENDCHAR
STARTCHAR periodcentered
ENCODING 183
SWIDTH 434 0
DWIDTH 5 0
BBX 2 2 1 2
BITMAP
C0
C0
ENDCHAR
STARTCHAR cedilla
ENCODING 184
SWIDTH 227 0
DWIDTH 3 0
BBX 3 3 0 -3
BITMAP
40
60
C0
ENDCHAR
STARTCHAR uni00B9
ENCODING 185
SWIDTH 229 0
DWIDTH 3 0
BBX 2 6 0 3
BITMAP
40
40
40
40
40
C0
ENDCHAR
STARTCHAR ordmasculine
ENCODING 186
SWIDTH 329 0
DWIDTH 4 0
BBX 3 4 0 5
BITMAP
60
60
A0
40
ENDCHAR
STARTCHAR guillemotright
ENCODING 187
SWIDTH 586 0
DWIDTH 6 0
BBX 6 4 0 1
BITMAP
50
28
3C
D0
ENDCHAR
STARTCHAR onequarter
ENCODING 188
SWIDTH 749 0
DWIDTH 8 0
BBX 8 9 0 0
BITMAP
26
44
48
48
53
D5
27
22
42
ENDCHAR
STARTCHAR onehalf
ENCODING 189
SWIDTH 745 0
DWIDTH 8 0
BBX 8 9 0 0
BITMAP
26
44
48
48
53
D5
21
22
47
ENDCHAR
STARTCHAR threequarters
ENCODING 190
SWIDTH 836 0
DWIDTH 9 0
BBX 8 9 1 0
BITMAP
C6
A4
48
E8
D3
15
27
22
42
ENDCHAR
STARTCHAR questiondown
ENCODING 191
SWIDTH 439 0
DWIDTH 5 0
BBX 4 9 0 -3
BITMAP
30
10
00
20
20
40
B0
90
E0
ENDCHAR
STARTCHAR Agrave
ENCODING 192
SWIDTH 668 0
DWIDTH 7 0
BBX 8 13 0 -1
BITMAP
06
02
00
07
0A
12
7E
A6
26
64
64
4C
40
ENDCHAR
STARTCHAR Aacute
ENCODING 193
SWIDTH 668 0
DWIDTH 7 0
BBX 8 13 0 -1
BITMAP
01
01
02
07
0A
12
7E
A6
26
64
64
4C
40
ENDCHAR
STARTCHAR Acircumflex
ENCODING 194
SWIDTH 668 0
DWIDTH 7 0
BBX 8 13 0 -1
BITMAP
01
03
05
07
0A
12
7E
A6
26
64
64
4C
40
ENDCHAR
STARTCHAR Atilde
ENCODING 195
SWIDTH 668 0
DWIDTH 7 0
BBX 9 12 0 -1
BITMAP
0780
0900
0700
0A00
1200
7E00
A600
2600
6400
6400
4C00
4000
ENDCHAR
STARTCHAR Adieresis
ENCODING 196
SWIDTH 668 0
DWIDTH 7 0
BBX 8 12 0 -1
BITMAP
05
00
07
0A
12
7E
A6
26
64
64
4C
40
ENDCHAR
STARTCHAR Aring
ENCODING 197
SWIDTH 668 0
DWIDTH 7 0
BBX 8 13 0 -1
BITMAP
02
03
02
07
0A
12
7E
A6
26
64
64
4C
40
ENDCHAR
STARTCHAR AE
ENCODING 198
SWIDTH 764 0
DWIDTH 8 0
BBX 10 10 0 -1
BITMAP
0740
0A80
1200
7E00
A780
A600
6400
6400
4F80
4000
ENDCHAR
STARTCHAR Ccedilla
ENCODING 199
SWIDTH 497 0
DWIDTH 5 0
BBX 6 12 0 -3
BITMAP
38
64
6C
40
C0
C0
C0
C4
78
20
10
60
ENDCHAR
STARTCHAR Egrave
ENCODING 200
SWIDTH 459 0
DWIDTH 5 0
BBX 5 12 0 0
BITMAP
10
10
00
38
28
68
20
70
C0
C0
C8
70
ENDCHAR
STARTCHAR Eacute
ENCODING 201
SWIDTH 459 0
DWIDTH 5 0
BBX 6 12 0 0
BITMAP
0C
08
00
38
28
68
20
70
C0
C0
C8
70
ENDCHAR
STARTCHAR Ecircumflex
ENCODING 202
SWIDTH 459 0
DWIDTH 5 0
BBX 5 12 0 0
BITMAP
08
38
00
38
28
68
20
70
C0
C0
C8
70
ENDCHAR
STARTCHAR Edieresis
ENCODING 203
SWIDTH 459 0
DWIDTH 5 0
BBX 6 11 0 0
BITMAP
14
00
38
28
68
20
70
C0
C0
C8
70
ENDCHAR
STARTCHAR Igrave
ENCODING 204
SWIDTH 375 0
DWIDTH 4 0
BBX 4 12 0 0
BITMAP
30
10
00
30
50
B0
B0
20
20
20
60
60
ENDCHAR
STARTCHAR Iacute
ENCODING 205
SWIDTH 375 0
DWIDTH 4 0
BBX 5 12 0 0
BITMAP
08
08
10
30
50
B0
B0
20
20
20
60
60
ENDCHAR
STARTCHAR Icircumflex
ENCODING 206
SWIDTH 375 0
DWIDTH 4 0
BBX 5 12 0 0
BITMAP
08
18
28
30
50
B0
B0
20
20
20
60
60
ENDCHAR
STARTCHAR Idieresis
ENCODING 207
SWIDTH 375 0
DWIDTH 4 0
BBX 5 11 0 0
BITMAP
28
00
30
50
B0
B0
20
20
20
60
60
ENDCHAR
STARTCHAR Eth
ENCODING 208
SWIDTH 663 0
DWIDTH 7 0
BBX 7 9 0 0
BITMAP
3C
56
B2
B2
76
26
26
64
78
ENDCHAR
STARTCHAR Ntilde
ENCODING 209
SWIDTH 686 0
DWIDTH 8 0
BBX 8 11 0 0
BITMAP
0F
10
31
59
BA
BA
2A
2A
2E
4C
4C
ENDCHAR
STARTCHAR Ograve
ENCODING 210
SWIDTH 665 0
DWIDTH 7 0
BBX 7 12 0 0
BITMAP
18
08
00
3C
52
B2
A2
62
66
64
6C
38
ENDCHAR
STARTCHAR Oacute
ENCODING 211
SWIDTH 665 0
DWIDTH 7 0
BBX 7 12 0 0
BITMAP
06
04
08
3C
52
B2
A2
62
66
64
6C
38
ENDCHAR
STARTCHAR Ocircumflex
ENCODING 212
SWIDTH 665 0
DWIDTH 7 0
BBX 7 12 0 0
BITMAP
04
0C
12
3C
52
B2
A2
62
66
64
6C
38
ENDCHAR
STARTCHAR Otilde
ENCODING 213
SWIDTH 665 0
DWIDTH 7 0
BBX 7 11 0 0
BITMAP
1E
04
3C
52
B2
A2
62
66
64
6C
38
ENDCHAR
STARTCHAR Odieresis
ENCODING 214
SWIDTH 665 0
DWIDTH 7 0
BBX 7 11 0 0
BITMAP
1C
00
3C
52
B2
A2
62
66
64
6C
38
ENDCHAR
STARTCHAR multiply
ENCODING 215
SWIDTH 414 0
DWIDTH 5 0
BBX 4 4 0 2
BITMAP
10
F0
60
D0
ENDCHAR
STARTCHAR Oslash
ENCODING 216
SWIDTH 658 0
DWIDTH 7 0
BBX 7 10 0 -1
BITMAP
04
3C
5E
BA
AE
6E
74
7C
38
10
ENDCHAR
STARTCHAR Ugrave
ENCODING 217
SWIDTH 716 0
DWIDTH 8 0
BBX 8 12 0 0
BITMAP
0C
04
00
39
53
93
B3
32
22
26
24
3C
ENDCHAR
STARTCHAR Uacute
ENCODING 218
SWIDTH 716 0
DWIDTH 8 0
BBX 8 12 0 0
BITMAP
02
04
04
39
53
93
B3
32
22
26
24
3C
ENDCHAR
STARTCHAR Ucircumflex
ENCODING 219
SWIDTH 716 0
DWIDTH 8 0
BBX 8 12 0 0
BITMAP
02
06
0A
39
53
93
B3
32
22
26
24
3C
ENDCHAR
STARTCHAR Udieresis
ENCODING 220
SWIDTH 716 0
DWIDTH 8 0
BBX 8 11 0 0
BITMAP
0E
00
39
53
93
B3
32
22
26
24
3C
ENDCHAR
STARTCHAR Yacute
ENCODING 221
SWIDTH 620 0
DWIDTH 7 0
BBX 8 12 0 0
BITMAP
03
02
04
31
5A
9A
9C
0C
0C
08
18
18
ENDCHAR
STARTCHAR Thorn
ENCODING 222
SWIDTH 583 0
DWIDTH 6 0
BBX 7 9 0 0
BITMAP
10
3C
74
B6
A4
2C
38
60
60
ENDCHAR
STARTCHAR germandbls
ENCODING 223
SWIDTH 480 0
DWIDTH 5 0
BBX 6 11 -1 -3
BITMAP
18
34
28
28
68
6C
6C
58
40
C0
C0
ENDCHAR
STARTCHAR agrave
ENCODING 224
SWIDTH 526 0
DWIDTH 6 0
BBX 6 9 0 0
BITMAP
30
10
00
78
58
D8
D8
D4
F8
ENDCHAR
STARTCHAR aacute
ENCODING 225
SWIDTH 526 0
DWIDTH 6 0
BBX 6 9 0 0
BITMAP
18
10
00
78
58
D8
D8
D4
F8
ENDCHAR
STARTCHAR acircumflex
ENCODING 226
SWIDTH 526 0
DWIDTH 6 0
BBX 6 9 0 0
BITMAP
10
38
00
78
58
D8
D8
D4
F8
ENDCHAR
STARTCHAR atilde
ENCODING 227
SWIDTH 526 0
DWIDTH 6 0
BBX 6 8 0 0
BITMAP
7C
00
78
58
D8
D8
D4
F8
ENDCHAR
STARTCHAR adieresis
ENCODING 228
SWIDTH 526 0
DWIDTH 6 0
BBX 6 8 0 0
BITMAP
28
00
78
58
D8
D8
D4
F8
ENDCHAR
STARTCHAR aring
ENCODING 229
SWIDTH 526 0
DWIDTH 6 0
BBX 6 8 0 0
BITMAP
10
10
78
58
D8
D8
D4
F8
ENDCHAR
STARTCHAR ae
ENCODING 230
SWIDTH 650 0
DWIDTH 7 0
BBX 8 6 0 0
BITMAP
7E
1A
7A
DC
91
FE
ENDCHAR
STARTCHAR ccedilla
ENCODING 231
SWIDTH 384 0
DWIDTH 4 0
BBX 5 9 0 -3
BITMAP
70
50
C0
C8
D0
E0
40
20
60
ENDCHAR
STARTCHAR egrave
ENCODING 232
SWIDTH 384 0
DWIDTH 4 0
BBX 5 9 0 0
BITMAP
20
20
00
70
50
D0
E0
88
F0
ENDCHAR
STARTCHAR eacute
ENCODING 233
SWIDTH 384 0
DWIDTH 4 0
BBX 5 9 0 0
BITMAP
18
10
20
70
50
D0
E0
88
F0
ENDCHAR
STARTCHAR ecircumflex
ENCODING 234
SWIDTH 384 0
DWIDTH 4 0
BBX 5 9 0 0
BITMAP
10
30
40
70
50
D0
E0
88
F0
ENDCHAR
STARTCHAR edieresis
ENCODING 235
SWIDTH 384 0
DWIDTH 4 0
BBX 5 8 0 0
BITMAP
78
00
70
50
D0
E0
88
F0
ENDCHAR
STARTCHAR igrave
ENCODING 236
SWIDTH 267 0
DWIDTH 3 0
BBX 3 9 0 0
BITMAP
40
40
00
40
C0
C0
C0
E0
C0
ENDCHAR
STARTCHAR iacute
ENCODING 237
SWIDTH 267 0
DWIDTH 3 0
BBX 3 9 0 0
BITMAP
20
60
00
40
C0
C0
C0
E0
C0
ENDCHAR
STARTCHAR icircumflex
ENCODING 238
SWIDTH 267 0
DWIDTH 3 0
BBX 3 9 0 0
BITMAP
20
60
80
40
C0
C0
C0
E0
C0
ENDCHAR
STARTCHAR idieresis
ENCODING 239
SWIDTH 267 0
DWIDTH 3 0
BBX 3 8 0 0
BITMAP
E0
00
40
C0
C0
C0
E0
C0
ENDCHAR
STARTCHAR eth
ENCODING 240
SWIDTH 526 0
DWIDTH 6 0
BBX 6 9 0 0
BITMAP
10
3C
08
78
58
D8
D8
94
F8
ENDCHAR
STARTCHAR ntilde
ENCODING 241
SWIDTH 505 0
DWIDTH 6 0
BBX 6 8 0 0
BITMAP
78
00
78
D8
D8
D0
94
98
ENDCHAR
STARTCHAR ograve
ENCODING 242
SWIDTH 433 0
DWIDTH 5 0
BBX 6 9 0 0
BITMAP
20
20
00
70
D4
D8
90
90
E0
ENDCHAR
STARTCHAR oacute
ENCODING 243
SWIDTH 439 0
DWIDTH 5 0
BBX 6 9 0 0
BITMAP
18
10
20
70
54
D8
D0
90
E0
ENDCHAR
STARTCHAR ocircumflex
ENCODING 244
SWIDTH 433 0
DWIDTH 5 0
BBX 6 9 0 0
BITMAP
10
30
40
70
D4
D8
90
90
E0
ENDCHAR
STARTCHAR otilde
ENCODING 245
SWIDTH 433 0
DWIDTH 5 0
BBX 6 8 0 0
BITMAP
78
80
70
D4
D8
90
90
E0
ENDCHAR
STARTCHAR odieresis
ENCODING 246
SWIDTH 433 0
DWIDTH 5 0
BBX 6 8 0 0
BITMAP
70
00
70
D4
D8
90
90
E0
ENDCHAR
STARTCHAR divide
ENCODING 247
SWIDTH 415 0
DWIDTH 5 0
BBX 4 6 0 1
BITMAP
30
30
F0
00
60
60
ENDCHAR
STARTCHAR oslash
ENCODING 248
SWIDTH 428 0
DWIDTH 5 0
BBX 6 6 -1 0
BITMAP
3C
28
68
78
68
F0
ENDCHAR
STARTCHAR ugrave
ENCODING 249
SWIDTH 505 0
DWIDTH 6 0
BBX 6 9 0 0
BITMAP
20
20
10
58
D8
D8
D0
F4
D8
ENDCHAR
STARTCHAR uacute
ENCODING 250
SWIDTH 505 0
DWIDTH 6 0
BBX 6 9 0 0
BITMAP
18
10
00
58
D8
D8
D0
F4
D8
ENDCHAR
STARTCHAR ucircumflex
ENCODING 251
SWIDTH 505 0
DWIDTH 6 0
BBX 6 9 0 0
BITMAP
10
28
40
58
D8
D8
D0
F4
D8
ENDCHAR
STARTCHAR udieresis
ENCODING 252
SWIDTH 505 0
DWIDTH 6 0
BBX 6 8 0 0
BITMAP
78
00
58
D8
D8
D0
F4
D8
ENDCHAR
STARTCHAR yacute
ENCODING 253
SWIDTH 505 0
DWIDTH 6 0
BBX 6 12 0 -3
BITMAP
18
10
00
58
D8
D8
D0
F4
F8
70
B0
60
ENDCHAR
STARTCHAR thorn
ENCODING 254
SWIDTH 473 0
DWIDTH 5 0
BBX 6 12 -1 -3
BITMAP
30
30
20
3C
6C
6C
6C
48
78
C0
C0
C0
ENDCHAR
STARTCHAR ydieresis
ENCODING 255
SWIDTH 505 0
DWIDTH 6 0
BBX 6 11 0 -3
BITMAP
78
00
58
D8
D8
D0
F4
F8
70
B0
60
ENDCHAR
STARTCHAR Amacron
ENCODING 256
SWIDTH 668 0
DWIDTH 7 0
BBX 9 12 0 -1
BITMAP
0780
0000
0700
0A00
1200
7E00
A600
2600
6400
6400
4C00
4000
ENDCHAR
STARTCHAR amacron
ENCODING 257
SWIDTH 526 0
DWIDTH 6 0
BBX 6 8 0 0
BITMAP
38
00
78
58
D8
D8
D4
F8
ENDCHAR
STARTCHAR Abreve
ENCODING 258
SWIDTH 668 0
DWIDTH 7 0
BBX 9 12 0 -1
BITMAP
0480
0300
0700
0A00
1200
7E00
A600
2600
6400
6400
4C00
4000
ENDCHAR
STARTCHAR abreve
ENCODING 259
SWIDTH 526 0
DWIDTH 6 0
BBX 6 9 0 0
BITMAP
24
38
00
78
58
D8
D8
D4
F8
ENDCHAR
STARTCHAR Aogonek
ENCODING 260
SWIDTH 668 0
DWIDTH 7 0
BBX 8 11 0 -2
BITMAP
07
0A
12
7E
A6
26
64
44
4C
48
0C
ENDCHAR
STARTCHAR aogonek
ENCODING 261
SWIDTH 526 0
DWIDTH 6 0
BBX 6 8 0 -2
BITMAP
78
58
D8
D8
94
F8
10
18
ENDCHAR
STARTCHAR Cacute
ENCODING 262
SWIDTH 497 0
DWIDTH 5 0
BBX 6 12 0 0
BITMAP
04
08
08
38
64
6C
40
C0
C0
C0
C4
78
ENDCHAR
STARTCHAR cacute
ENCODING 263
SWIDTH 384 0
DWIDTH 4 0
BBX 5 9 0 0
BITMAP
18
10
00
70
50
C0
C0
88
F0
ENDCHAR
STARTCHAR Ccircumflex
ENCODING 264
SWIDTH 497 0
DWIDTH 5 0
BBX 6 12 0 0
BITMAP
08
18
24
38
64
6C
40
C0
C0
C0
C4
78
ENDCHAR
STARTCHAR ccircumflex
ENCODING 265
SWIDTH 384 0
DWIDTH 4 0
BBX 5 9 0 0
BITMAP
10
30
40
70
50
C0
C0
88
F0
ENDCHAR
STARTCHAR Cdotaccent
ENCODING 266
SWIDTH 497 0
DWIDTH 5 0
BBX 6 12 0 0
BITMAP
0C
0C
00
38
64
6C
40
C0
C0
C0
C4
78
ENDCHAR
STARTCHAR cdotaccent
ENCODING 267
SWIDTH 384 0
DWIDTH 4 0
BBX 5 9 0 0
BITMAP
30
10
00
70
50
C0
C0
88
F0
ENDCHAR
STARTCHAR Ccaron
ENCODING 268
SWIDTH 497 0
DWIDTH 5 0
BBX 6 12 0 0
BITMAP
14
08
10
38
64
6C
40
C0
C0
C0
C4
78
ENDCHAR
STARTCHAR ccaron
ENCODING 269
SWIDTH 384 0
DWIDTH 4 0
BBX 5 9 0 0
BITMAP
28
10
00
70
50
C0
C8
D0
E0
ENDCHAR
STARTCHAR Dcaron
ENCODING 270
SWIDTH 663 0
DWIDTH 7 0
BBX 7 12 0 0
BITMAP
16
08
08
3C
56
B2
B2
36
26
26
64
78
ENDCHAR
STARTCHAR dcaron
ENCODING 271
SWIDTH 525 0
DWIDTH 6 0
BBX 8 9 0 0
BITMAP
03
0E
0A
78
58
D8
D8
94
F8
ENDCHAR
STARTCHAR Dcroat
ENCODING 272
SWIDTH 663 0
DWIDTH 7 0
BBX 7 9 0 0
BITMAP
3C
56
B2
B2
76
26
26
64
78
ENDCHAR
STARTCHAR dcroat
ENCODING 273
SWIDTH 525 0
DWIDTH 6 0
BBX 6 8 0 0
BITMAP
0C
1C
78
58
D8
D8
94
F8
ENDCHAR
STARTCHAR Emacron
ENCODING 274
SWIDTH 459 0
DWIDTH 5 0
BBX 6 11 0 0
BITMAP
3C
00
38
28
68
20
70
C0
C0
C8
70
ENDCHAR
STARTCHAR emacron
ENCODING 275
SWIDTH 384 0
DWIDTH 4 0
BBX 5 8 0 0
BITMAP
78
00
70
50
D0
E0
88
F0
ENDCHAR
STARTCHAR Ebreve
ENCODING 276
SWIDTH 459 0
DWIDTH 5 0
BBX 6 12 0 0
BITMAP
24
18
00
38
28
68
20
70
C0
C0
C8
70
ENDCHAR
STARTCHAR ebreve
ENCODING 277
SWIDTH 384 0
DWIDTH 4 0
BBX 5 9 0 0
BITMAP
48
70
00
70
50
D0
E0
88
F0
ENDCHAR
STARTCHAR Edotaccent
ENCODING 278
SWIDTH 459 0
DWIDTH 5 0
BBX 5 12 0 0
BITMAP
08
08
00
38
28
68
20
70
C0
C0
C8
70
ENDCHAR
STARTCHAR edotaccent
ENCODING 279
SWIDTH 384 0
DWIDTH 4 0
BBX 5 9 0 0
BITMAP
30
10
00
70
50
D0
E0
88
F0
ENDCHAR
STARTCHAR Eogonek
ENCODING 280
SWIDTH 459 0
DWIDTH 5 0
BBX 5 11 0 -2
BITMAP
38
68
68
60
70
C0
C0
C8
70
20
18
ENDCHAR
STARTCHAR eogonek
ENCODING 281
SWIDTH 384 0
DWIDTH 4 0
BBX 5 8 0 -2
BITMAP
70
50
D0
E0
88
F0
40
60
ENDCHAR
STARTCHAR Ecaron
ENCODING 282
SWIDTH 459 0
DWIDTH 5 0
BBX 7 12 0 0
BITMAP
16
08
00
38
28
68
20
70
C0
C0
C8
70
ENDCHAR
STARTCHAR ecaron
ENCODING 283
SWIDTH 384 0
DWIDTH 4 0
BBX 5 9 0 0
BITMAP
28
10
00
70
50
D0
E0
88
F0
ENDCHAR
STARTCHAR Gcircumflex
ENCODING 284
SWIDTH 578 0
DWIDTH 6 0
BBX 6 14 0 -2
BITMAP
04
1C
00
3C
64
44
C0
C4
CC
CC
78
68
58
70
ENDCHAR
STARTCHAR gcircumflex
ENCODING 285
SWIDTH 507 0
DWIDTH 6 0
BBX 6 12 0 -3
BITMAP
10
38
00
78
58
D8
D8
94
F8
30
70
60
ENDCHAR
STARTCHAR Gbreve
ENCODING 286
SWIDTH 578 0
DWIDTH 6 0
BBX 7 14 0 -2
BITMAP
12
0C
00
3C
64
44
C0
C4
CC
CC
78
68
58
70
ENDCHAR
STARTCHAR gbreve
ENCODING 287
SWIDTH 507 0
DWIDTH 6 0
BBX 6 12 0 -3
BITMAP
24
38
00
78
58
D8
D8
94
F8
30
70
60
ENDCHAR
STARTCHAR Gdotaccent
ENCODING 288
SWIDTH 578 0
DWIDTH 6 0
BBX 6 14 0 -2
BITMAP
08
08
00
3C
64
44
C0
C4
CC
CC
78
68
58
70
ENDCHAR
STARTCHAR gdotaccent
ENCODING 289
SWIDTH 507 0
DWIDTH 6 0
BBX 6 12 0 -3
BITMAP
18
10
00
78
58
D8
D8
94
F8
30
70
60
ENDCHAR
STARTCHAR Gcommaaccent
ENCODING 290
SWIDTH 578 0
DWIDTH 6 0
BBX 6 12 0 -3
BITMAP
38
64
6C
C0
C0
CC
CC
C8
78
20
20
20
ENDCHAR
STARTCHAR gcommaaccent
ENCODING 291
SWIDTH 507 0
DWIDTH 6 0
BBX 6 12 0 -3
BITMAP
10
10
00
78
58
D8
D8
94
F8
30
70
60
ENDCHAR
STARTCHAR Hcircumflex
ENCODING 292
SWIDTH 665 0
DWIDTH 7 0
BBX 8 12 0 0
BITMAP
04
0E
12
33
72
F2
B6
BE
26
24
64
6C
ENDCHAR
STARTCHAR hcircumflex
ENCODING 293
SWIDTH 505 0
DWIDTH 6 0
BBX 6 11 0 0
BITMAP
20
70
90
60
40
70
D8
D8
D0
94
98
ENDCHAR
STARTCHAR Hbar
ENCODING 294
SWIDTH 665 0
DWIDTH 7 0
BBX 8 9 0 0
BITMAP
33
52
BF
B6
BE
26
24
64
6C
ENDCHAR
STARTCHAR hbar
ENCODING 295
SWIDTH 505 0
DWIDTH 6 0
BBX 6 8 0 0
BITMAP
60
F0
70
58
D8
D0
94
98
ENDCHAR
STARTCHAR Itilde
ENCODING 296
SWIDTH 375 0
DWIDTH 4 0
BBX 6 11 0 0
BITMAP
3C
48
30
50
B0
B0
20
20
20
60
60
ENDCHAR
STARTCHAR itilde
ENCODING 297
SWIDTH 267 0
DWIDTH 3 0
BBX 3 8 0 0
BITMAP
E0
00
40
C0
C0
C0
E0
C0
ENDCHAR
STARTCHAR Imacron
ENCODING 298
SWIDTH 375 0
DWIDTH 4 0
BBX 5 11 0 0
BITMAP
38
00
30
50
B0
B0
20
20
20
60
60
ENDCHAR
STARTCHAR imacron
ENCODING 299
SWIDTH 267 0
DWIDTH 3 0
BBX 3 8 0 0
BITMAP
E0
00
40
C0
C0
C0
E0
C0
ENDCHAR
STARTCHAR Ibreve
ENCODING 300
SWIDTH 375 0
DWIDTH 4 0
BBX 6 11 0 0
BITMAP
24
38
30
50
B0
B0
20
20
20
60
60
ENDCHAR
STARTCHAR ibreve
ENCODING 301
SWIDTH 267 0
DWIDTH 3 0
BBX 4 9 0 0
BITMAP
90
60
00
40
C0
C0
C0
E0
C0
ENDCHAR
STARTCHAR Iogonek
ENCODING 302
SWIDTH 375 0
DWIDTH 4 0
BBX 4 15 0 -3
BITMAP
20
20
00
30
50
B0
B0
20
20
20
60
60
40
40
60
ENDCHAR
STARTCHAR iogonek
ENCODING 303
SWIDTH 267 0
DWIDTH 3 0
BBX 3 11 0 -3
BITMAP
60
60
40
C0
C0
C0
E0
C0
80
80
C0
ENDCHAR
STARTCHAR Idotaccent
ENCODING 304
SWIDTH 375 0
DWIDTH 4 0
BBX 5 12 0 0
BITMAP
18
18
00
30
50
B0
B0
20
20
20
60
60
ENDCHAR
STARTCHAR dotlessi
ENCODING 305
SWIDTH 267 0
DWIDTH 3 0
BBX 3 6 0 0
BITMAP
40
C0
C0
C0
E0
C0
ENDCHAR
STARTCHAR IJ
ENCODING 306
SWIDTH 663 0
DWIDTH 7 0
BBX 7 11 0 -2
BITMAP
32
52
B6
B6
24
24
2C
6C
6C
48
30
ENDCHAR
STARTCHAR ij
ENCODING 307
SWIDTH 507 0
DWIDTH 6 0
BBX 6 11 0 -3
BITMAP
6C
68
48
D8
D8
D8
D4
D8
30
70
60
ENDCHAR
STARTCHAR Jcircumflex
ENCODING 308
SWIDTH 536 0
DWIDTH 6 0
BBX 7 14 0 -2
BITMAP
02
06
0A
0C
1C
2C
2C
08
08
18
18
78
90
60
ENDCHAR
STARTCHAR jcircumflex
ENCODING 309
SWIDTH 240 0
DWIDTH 3 0
BBX 5 12 -2 -3
BITMAP
08
38
00
10
30
30
30
28
38
60
E0
C0
ENDCHAR
STARTCHAR Kcommaaccent
ENCODING 310
SWIDTH 601 0
DWIDTH 7 0
BBX 7 12 0 -3
BITMAP
32
54
B4
B8
BC
24
2C
6C
6C
10
10
10
ENDCHAR
STARTCHAR kcommaaccent
ENCODING 311
SWIDTH 518 0
DWIDTH 6 0
BBX 6 11 0 -3
BITMAP
60
40
58
E0
F0
D8
94
98
20
60
40
ENDCHAR
STARTCHAR kgreenlandic
ENCODING 312
SWIDTH 518 0
DWIDTH 6 0
BBX 6 6 0 0
BITMAP
58
E0
F0
D8
94
98
ENDCHAR
STARTCHAR Lacute
ENCODING 313
SWIDTH 379 0
DWIDTH 4 0
BBX 7 15 0 -3
BITMAP
0C
08
10
30
70
B0
B0
20
20
60
60
60
18
0E
06
ENDCHAR
STARTCHAR lacute
ENCODING 314
SWIDTH 267 0
DWIDTH 3 0
BBX 4 11 0 0
BITMAP
10
20
00
60
40
40
C0
C0
C0
E0
C0
ENDCHAR
STARTCHAR Lcommaaccent
ENCODING 315
SWIDTH 379 0
DWIDTH 4 0
BBX 7 12 0 -3
BITMAP
30
70
B0
B0
20
20
60
60
60
18
4E
46
ENDCHAR
STARTCHAR lcommaaccent
ENCODING 316
SWIDTH 267 0
DWIDTH 3 0
BBX 3 11 0 -3
BITMAP
60
40
40
C0
C0
C0
E0
C0
80
80
80
ENDCHAR
STARTCHAR Lcaron
ENCODING 317
SWIDTH 379 0
DWIDTH 4 0
BBX 7 15 0 -3
BITMAP
16
18
10
30
70
B0
B0
20
20
60
60
60
18
0E
06
ENDCHAR
STARTCHAR lcaron
ENCODING 318
SWIDTH 267 0
DWIDTH 3 0
BBX 4 9 0 0
BITMAP
10
70
50
40
C0
C0
C0
E0
C0
ENDCHAR
STARTCHAR Ldot
ENCODING 319
SWIDTH 605 0
DWIDTH 7 0
BBX 7 12 0 -3
BITMAP
30
70
B0
B0
20
24
6C
60
60
10
0E
06
ENDCHAR
STARTCHAR ldot
ENCODING 320
SWIDTH 353 0
DWIDTH 4 0
BBX 4 9 0 0
BITMAP
20
60
40
40
F0
D0
C0
C0
C0
ENDCHAR
STARTCHAR Lslash
ENCODING 321
SWIDTH 392 0
DWIDTH 4 0
BBX 7 12 0 -3
BITMAP
30
70
B8
B0
20
60
20
60
60
18
0E
06
ENDCHAR
STARTCHAR lslash
ENCODING 322
SWIDTH 286 0
DWIDTH 3 0
BBX 4 8 0 0
BITMAP
60
40
70
40
C0
C0
E0
C0
ENDCHAR
STARTCHAR Nacute
ENCODING 323
SWIDTH 702 0
DWIDTH 8 0
BBX 8 12 0 0
BITMAP
03
02
04
31
59
BA
BA
2A
2A
2E
4C
4C
ENDCHAR
STARTCHAR nacute
ENCODING 324
SWIDTH 505 0
DWIDTH 6 0
BBX 6 9 0 0
BITMAP
08
10
00
78
D8
D8
D0
94
98
ENDCHAR
STARTCHAR Ncommaaccent
ENCODING 325
SWIDTH 668 0
DWIDTH 7 0
BBX 8 12 0 -3
BITMAP
31
59
BA
BA
2A
2A
2E
4C
4C
10
10
20
ENDCHAR
STARTCHAR ncommaaccent
ENCODING 326
SWIDTH 505 0
DWIDTH 6 0
BBX 6 9 0 -3
BITMAP
70
D8
D8
D0
94
98
40
40
40
ENDCHAR
STARTCHAR Ncaron
ENCODING 327
SWIDTH 668 0
DWIDTH 7 0
BBX 8 12 0 0
BITMAP
05
06
04
31
59
BA
BA
2A
2A
2E
4C
4C
ENDCHAR
STARTCHAR ncaron
ENCODING 328
SWIDTH 505 0
DWIDTH 6 0
BBX 6 9 0 0
BITMAP
28
30
00
70
D8
D8
D0
94
98
ENDCHAR
STARTCHAR napostrophe
ENCODING 329
SWIDTH 505 0
DWIDTH 6 0
BBX 6 9 0 0
BITMAP
C0
40
80
70
D8
D8
D0
94
98
ENDCHAR
STARTCHAR Eng
ENCODING 330
SWIDTH 723 0
DWIDTH 8 0
BBX 7 11 1 -2
BITMAP
72
B2
B2
B2
7C
5C
4C
4C
4C
A8
30
ENDCHAR
STARTCHAR eng
ENCODING 331
SWIDTH 505 0
DWIDTH 6 0
BBX 5 9 0 -3
BITMAP
70
D8
D8
D0
90
B0
70
B0
60
ENDCHAR
STARTCHAR Omacron
ENCODING 332
SWIDTH 665 0
DWIDTH 7 0
BBX 7 11 0 0
BITMAP
1E
00
3C
52
B2
A2
62
66
64
6C
38
ENDCHAR
STARTCHAR omacron
ENCODING 333
SWIDTH 433 0
DWIDTH 5 0
BBX 6 8 0 0
BITMAP
78
00
70
D4
D8
90
90
E0
ENDCHAR
STARTCHAR Obreve
ENCODING 334
SWIDTH 665 0
DWIDTH 7 0
BBX 7 11 0 0
BITMAP
12
0C
3C
52
B2
A2
62
66
64
6C
38
ENDCHAR
STARTCHAR obreve
ENCODING 335
SWIDTH 433 0
DWIDTH 5 0
BBX 6 9 0 0
BITMAP
48
30
00
70
D4
D8
90
90
E0
ENDCHAR
STARTCHAR Ohungarumlaut
ENCODING 336
SWIDTH 665 0
DWIDTH 7 0
BBX 8 12 0 0
BITMAP
05
0A
00
3C
52
B2
A2
62
66
64
6C
38
ENDCHAR
STARTCHAR ohungarumlaut
ENCODING 337
SWIDTH 433 0
DWIDTH 5 0
BBX 6 9 0 0
BITMAP
3C
38
00
70
D4
D8
90
90
E0
ENDCHAR
STARTCHAR OE
ENCODING 338
SWIDTH 846 0
DWIDTH 9 0
BBX 10 9 0 0
BITMAP
3FC0
5200
B200
A200
6380
6600
6400
6C00
3F00
ENDCHAR
STARTCHAR oe
ENCODING 339
SWIDTH 663 0
DWIDTH 7 0
BBX 8 6 0 0
BITMAP
76
DA
DA
9C
99
EE
ENDCHAR
STARTCHAR Racute
ENCODING 340
SWIDTH 601 0
DWIDTH 7 0
BBX 6 12 0 0
BITMAP
04
08
08
3C
54
B4
B4
BC
24
2C
6C
6C
ENDCHAR
STARTCHAR racute
ENCODING 341
SWIDTH 376 0
DWIDTH 4 0
BBX 4 9 0 0
BITMAP
10
10
20
70
D0
C0
C0
80
80
ENDCHAR
STARTCHAR Rcommaaccent
ENCODING 342
SWIDTH 601 0
DWIDTH 7 0
BBX 6 12 0 -3
BITMAP
3C
54
B4
B4
BC
24
2C
6C
6C
10
10
20
ENDCHAR
STARTCHAR rcommaaccent
ENCODING 343
SWIDTH 376 0
DWIDTH 4 0
BBX 4 9 0 -3
BITMAP
70
D0
C0
C0
80
80
40
C0
80
ENDCHAR
STARTCHAR Rcaron
ENCODING 344
SWIDTH 601 0
DWIDTH 7 0
BBX 7 12 0 0
BITMAP
0A
0C
08
3C
54
B4
B4
BC
24
2C
6C
6C
ENDCHAR
STARTCHAR rcaron
ENCODING 345
SWIDTH 376 0
DWIDTH 4 0
BBX 5 9 0 0
BITMAP
58
20
00
70
D0
C0
C0
80
80
ENDCHAR
STARTCHAR Sacute
ENCODING 346
SWIDTH 570 0
DWIDTH 6 0
BBX 6 12 0 0
BITMAP
04
08
00
3C
24
24
30
18
68
CC
C8
70
ENDCHAR
STARTCHAR sacute
ENCODING 347
SWIDTH 382 0
DWIDTH 4 0
BBX 5 9 0 0
BITMAP
18
10
20
60
60
A0
A0
B8
E0
ENDCHAR
STARTCHAR Scircumflex
ENCODING 348
SWIDTH 570 0
DWIDTH 6 0
BBX 6 12 0 0
BITMAP
08
14
00
3C
24
24
30
18
68
CC
C8
70
ENDCHAR
STARTCHAR scircumflex
ENCODING 349
SWIDTH 382 0
DWIDTH 4 0
BBX 5 9 0 0
BITMAP
10
70
00
60
60
A0
A0
B8
E0
ENDCHAR
STARTCHAR Scedilla
ENCODING 350
SWIDTH 570 0
DWIDTH 6 0
BBX 6 12 0 -3
BITMAP
3C
24
24
30
18
68
CC
C8
78
30
10
30
ENDCHAR
STARTCHAR scedilla
ENCODING 351
SWIDTH 382 0
DWIDTH 4 0
BBX 5 9 0 -3
BITMAP
60
60
A0
A0
B8
E0
80
40
C0
ENDCHAR
STARTCHAR Scaron
ENCODING 352
SWIDTH 570 0
DWIDTH 6 0
BBX 7 12 0 0
BITMAP
0E
08
00
3C
24
24
30
18
68
CC
C8
70
ENDCHAR
STARTCHAR scaron
ENCODING 353
SWIDTH 369 0
DWIDTH 4 0
BBX 5 9 0 0
BITMAP
58
20
00
60
60
A0
A8
B0
E0
ENDCHAR
STARTCHAR uni0162
ENCODING 354
SWIDTH 481 0
DWIDTH 5 0
BBX 8 12 0 -3
BITMAP
39
5E
98
90
10
30
30
30
20
20
50
30
ENDCHAR
STARTCHAR uni0163
ENCODING 355
SWIDTH 267 0
DWIDTH 3 0
BBX 3 11 0 -3
BITMAP
60
40
E0
40
C0
C0
E0
C0
80
40
C0
ENDCHAR
STARTCHAR Tcaron
ENCODING 356
SWIDTH 481 0
DWIDTH 5 0
BBX 8 12 0 0
BITMAP
16
08
08
39
5E
98
90
10
30
30
30
20
ENDCHAR
STARTCHAR tcaron
ENCODING 357
SWIDTH 267 0
DWIDTH 3 0
BBX 5 9 0 0
BITMAP
18
70
40
E0
40
C0
C0
E0
C0
ENDCHAR
STARTCHAR Tbar
ENCODING 358
SWIDTH 481 0
DWIDTH 5 0
BBX 8 9 0 0
BITMAP
39
DE
98
90
10
7C
30
30
20
ENDCHAR
STARTCHAR tbar
ENCODING 359
SWIDTH 267 0
DWIDTH 3 0
BBX 3 8 0 0
BITMAP
60
40
E0
E0
C0
C0
E0
C0
ENDCHAR
STARTCHAR Utilde
ENCODING 360
SWIDTH 716 0
DWIDTH 8 0
BBX 8 11 0 0
BITMAP
0F
02
39
53
93
B3
32
22
26
24
3C
ENDCHAR
STARTCHAR utilde
ENCODING 361
SWIDTH 505 0
DWIDTH 6 0
BBX 6 8 0 0
BITMAP
78
00
58
D8
D8
D0
F4
D8
ENDCHAR
STARTCHAR Umacron
ENCODING 362
SWIDTH 716 0
DWIDTH 8 0
BBX 8 11 0 0
BITMAP
0F
00
39
53
93
B3
32
22
26
24
3C
ENDCHAR
STARTCHAR umacron
ENCODING 363
SWIDTH 505 0
DWIDTH 6 0
BBX 6 8 0 0
BITMAP
78
00
58
D8
D8
D0
F4
D8
ENDCHAR
STARTCHAR Ubreve
ENCODING 364
SWIDTH 716 0
DWIDTH 8 0
BBX 8 12 0 0
BITMAP
09
06
00
39
53
93
B3
32
22
26
24
3C
ENDCHAR
STARTCHAR ubreve
ENCODING 365
SWIDTH 505 0
DWIDTH 6 0
BBX 6 9 0 0
BITMAP
48
30
00
58
D8
D8
D0
F4
D8
ENDCHAR
STARTCHAR Uring
ENCODING 366
SWIDTH 716 0
DWIDTH 8 0
BBX 8 12 0 0
BITMAP
04
06
04
39
53
93
B3
32
22
26
24
3C
ENDCHAR
STARTCHAR uring
ENCODING 367
SWIDTH 505 0
DWIDTH 6 0
BBX 6 8 0 0
BITMAP
30
30
58
D8
D8
D0
F4
D8
ENDCHAR
STARTCHAR Uhungarumlaut
ENCODING 368
SWIDTH 716 0
DWIDTH 8 0
BBX 9 12 0 0
BITMAP
0780
0500
0200
3900
5300
9300
B300
3200
2200
2600
2400
3C00
ENDCHAR
STARTCHAR uhungarumlaut
ENCODING 369
SWIDTH 505 0
DWIDTH 6 0
BBX 6 9 0 0
BITMAP
3C
28
10
58
D8
D8
D0
F4
D8
ENDCHAR
STARTCHAR Uogonek
ENCODING 370
SWIDTH 716 0
DWIDTH 8 0
BBX 8 15 0 -3
BITMAP
0C
04
00
39
53
93
B3
32
22
26
26
3C
10
10
18
ENDCHAR
STARTCHAR uogonek
ENCODING 371
SWIDTH 505 0
DWIDTH 6 0
BBX 6 9 0 -3
BITMAP
58
D8
D8
D0
F4
D8
10
10
18
ENDCHAR
STARTCHAR Wcircumflex
ENCODING 372
SWIDTH 962 0
DWIDTH 11 0
BBX 11 12 0 0
BITMAP
0080
0180
0280
3120
5320
9320
9340
1540
1540
1580
1980
1900
ENDCHAR
STARTCHAR wcircumflex
ENCODING 373
SWIDTH 661 0
DWIDTH 7 0
BBX 7 9 0 0
BITMAP
08
18
24
5A
DA
DA
D2
F4
D8
ENDCHAR
STARTCHAR Ycircumflex
ENCODING 374
SWIDTH 620 0
DWIDTH 7 0
BBX 8 12 0 0
BITMAP
02
06
0A
31
5A
9A
9C
0C
0C
08
18
18
ENDCHAR
STARTCHAR ycircumflex
ENCODING 375
SWIDTH 505 0
DWIDTH 6 0
BBX 6 12 0 -3
BITMAP
10
30
48
58
D8
D8
D0
F4
F8
70
B0
60
ENDCHAR
STARTCHAR Ydieresis
ENCODING 376
SWIDTH 620 0
DWIDTH 7 0
BBX 8 11 0 0
BITMAP
0E
00
31
5A
9A
9C
0C
0C
08
18
18
ENDCHAR
STARTCHAR Zacute
ENCODING 377
SWIDTH 542 0
DWIDTH 6 0
BBX 6 12 0 0
BITMAP
04
08
08
7C
48
18
10
30
30
60
6C
F8
ENDCHAR
STARTCHAR zacute
ENCODING 378
SWIDTH 428 0
DWIDTH 5 0
BBX 5 9 0 0
BITMAP
18
10
00
78
70
20
60
50
F0
ENDCHAR
STARTCHAR Zdotaccent
ENCODING 379
SWIDTH 530 0
DWIDTH 6 0
BBX 6 11 0 0
BITMAP
18
00
7C
48
18
10
30
30
60
6C
F8
ENDCHAR
STARTCHAR zdotaccent
ENCODING 380
SWIDTH 428 0
DWIDTH 5 0
BBX 5 8 0 0
BITMAP
30
00
78
70
20
60
50
F0
ENDCHAR
STARTCHAR Zcaron
ENCODING 381
SWIDTH 542 0
DWIDTH 6 0
BBX 7 12 0 0
BITMAP
16
08
08
7C
48
18
10
30
30
60
6C
F8
ENDCHAR
STARTCHAR zcaron
ENCODING 382
SWIDTH 428 0
DWIDTH 5 0
BBX 5 9 0 0
BITMAP
28
30
00
78
70
20
60
50
F0
ENDCHAR
STARTCHAR longs
ENCODING 383
SWIDTH 267 0
DWIDTH 3 0
BBX 6 12 -2 -3
BITMAP
0C
1C
10
30
10
30
30
20
20
E0
E0
C0
ENDCHAR
STARTCHAR uni018F
ENCODING 399
SWIDTH 544 0
DWIDTH 6 0
BBX 6 9 0 0
BITMAP
38
4C
0C
0C
3C
6C
D8
D0
60
ENDCHAR
STARTCHAR florin
ENCODING 402
SWIDTH 267 0
DWIDTH 3 0
BBX 8 12 -3 -3
BITMAP
07
05
0C
1E
08
18
18
10
10
30
A0
E0
ENDCHAR
STARTCHAR Ohorn
ENCODING 416
SWIDTH 665 0
DWIDTH 7 0
BBX 8 11 0 0
BITMAP
01
01
3D
52
B2
A2
62
66
64
6C
38
ENDCHAR
STARTCHAR ohorn
ENCODING 417
SWIDTH 439 0
DWIDTH 5 0
BBX 5 8 0 0
BITMAP
08
08
78
50
D0
D0
D0
E0
ENDCHAR
STARTCHAR Uhorn
ENCODING 431
SWIDTH 716 0
DWIDTH 8 0
BBX 10 11 0 0
BITMAP
00C0
0080
3980
5300
9300
B300
3200
2200
2600
2400
3C00
ENDCHAR
STARTCHAR uhorn
ENCODING 432
SWIDTH 505 0
DWIDTH 6 0
BBX 6 8 0 0
BITMAP
04
04
58
D8
D8
D0
F4
D8
ENDCHAR
STARTCHAR uni01B7
ENCODING 439
SWIDTH 555 0
DWIDTH 6 0
BBX 6 9 0 0
BITMAP
7C
48
18
30
18
0C
4C
98
70
ENDCHAR
STARTCHAR uni01CD
ENCODING 461
SWIDTH 668 0
DWIDTH 7 0
BBX 9 13 0 -1
BITMAP
0280
0100
0200
0700
0A00
1200
7E00
A600
2600
6400
6400
4C00
4000
ENDCHAR
STARTCHAR uni01CE
ENCODING 462
SWIDTH 526 0
DWIDTH 6 0
BBX 6 9 0 0
BITMAP
2C
10
00
78
58
D8
D8
D4
F8
ENDCHAR
STARTCHAR uni01CF
ENCODING 463
SWIDTH 375 0
DWIDTH 4 0
BBX 6 12 0 0
BITMAP
14
18
10
30
50
B0
B0
20
20
20
60
60
ENDCHAR
STARTCHAR uni01D0
ENCODING 464
SWIDTH 267 0
DWIDTH 3 0
BBX 4 9 0 0
BITMAP
50
60
00
40
C0
C0
C0
E0
C0
ENDCHAR
STARTCHAR uni01D1
ENCODING 465
SWIDTH 665 0
DWIDTH 7 0
BBX 8 12 0 0
BITMAP
0B
04
04
3C
52
B2
A2
62
66
64
6C
38
ENDCHAR
STARTCHAR uni01D2
ENCODING 466
SWIDTH 433 0
DWIDTH 5 0
BBX 6 9 0 0
BITMAP
28
30
00
70
D4
D8
90
90
E0
ENDCHAR
STARTCHAR uni01D3
ENCODING 467
SWIDTH 716 0
DWIDTH 8 0
BBX 8 12 0 0
BITMAP
05
06
04
39
53
93
B3
32
22
26
24
3C
ENDCHAR
STARTCHAR uni01D4
ENCODING 468
SWIDTH 505 0
DWIDTH 6 0
BBX 6 9 0 0
BITMAP
28
10
00
58
D8
D8
D0
F4
D8
ENDCHAR
STARTCHAR uni01D5
ENCODING 469
SWIDTH 716 0
DWIDTH 8 0
BBX 8 12 0 0
BITMAP
0F
0F
00
39
53
93
B3
32
22
26
24
3C
ENDCHAR
STARTCHAR uni01D6
ENCODING 470
SWIDTH 505 0
DWIDTH 6 0
BBX 6 10 0 0
BITMAP
38
00
78
00
58
D8
D8
D0
F4
D8
ENDCHAR
STARTCHAR uni01D7
ENCODING 471
SWIDTH 716 0
DWIDTH 8 0
BBX 8 12 0 0
BITMAP
02
0D
00
39
53
93
B3
32
22
26
24
3C
ENDCHAR
STARTCHAR uni01D8
ENCODING 472
SWIDTH 505 0
DWIDTH 6 0
BBX 6 11 0 0
BITMAP
08
10
00
78
00
58
D8
D8
D0
F4
D8
ENDCHAR
STARTCHAR uni01D9
ENCODING 473
SWIDTH 716 0
DWIDTH 8 0
BBX 8 12 0 0
BITMAP
05
0F
00
39
53
93
B3
32
22
26
24
3C
ENDCHAR
STARTCHAR uni01DA
ENCODING 474
SWIDTH 505 0
DWIDTH 6 0
BBX 6 11 0 0
BITMAP
2C
10
10
78
00
58
D8
D8
D0
F4
D8
ENDCHAR
STARTCHAR uni01DB
ENCODING 475
SWIDTH 716 0
DWIDTH 8 0
BBX 8 12 0 0
BITMAP
04
0B
00
39
53
93
B3
32
22
26
24
3C
ENDCHAR
STARTCHAR uni01DC
ENCODING 476
SWIDTH 505 0
DWIDTH 6 0
BBX 6 11 0 0
BITMAP
20
30
00
78
00
58
D8
D8
D0
F4
D8
ENDCHAR
STARTCHAR uni01E4
ENCODING 484
SWIDTH 601 0
DWIDTH 7 0
BBX 7 11 0 -2
BITMAP
3C
64
44
C0
DE
CC
C8
78
68
58
70
ENDCHAR
STARTCHAR uni01E5
ENCODING 485
SWIDTH 507 0
DWIDTH 6 0
BBX 6 9 0 -3
BITMAP
78
58
D8
D8
94
FC
30
F8
60
ENDCHAR
STARTCHAR Gcaron
ENCODING 486
SWIDTH 578 0
DWIDTH 6 0
BBX 7 14 0 -2
BITMAP
0A
0C
08
3C
64
44
C0
C4
CC
CC
78
68
58
70
ENDCHAR
STARTCHAR gcaron
ENCODING 487
SWIDTH 507 0
DWIDTH 6 0
BBX 6 12 0 -3
BITMAP
2C
10
00
78
58
D8
D8
94
F8
30
70
60
ENDCHAR
STARTCHAR uni01E8
ENCODING 488
SWIDTH 601 0
DWIDTH 7 0
BBX 8 12 0 0
BITMAP
07
04
00
32
54
B4
B8
BC
24
2C
6C
6C
ENDCHAR
STARTCHAR uni01E9
ENCODING 489
SWIDTH 518 0
DWIDTH 6 0
BBX 6 11 0 0
BITMAP
1C
10
00
60
40
58
E0
F0
D8
94
98
ENDCHAR
STARTCHAR uni01EA
ENCODING 490
SWIDTH 665 0
DWIDTH 7 0
BBX 7 15 0 -3
BITMAP
10
08
00
3C
52
B2
A2
62
66
64
6C
38
20
20
30
ENDCHAR
STARTCHAR uni01EB
ENCODING 491
SWIDTH 433 0
DWIDTH 5 0
BBX 6 9 0 -3
BITMAP
70
D4
D8
90
90
E0
80
A0
C0
ENDCHAR
STARTCHAR uni01EE
ENCODING 494
SWIDTH 525 0
DWIDTH 6 0
BBX 6 12 0 0
BITMAP
14
08
00
7C
48
18
30
18
0C
4C
98
70
ENDCHAR
STARTCHAR uni01EF
ENCODING 495
SWIDTH 600 0
DWIDTH 7 0
BBX 5 12 0 -3
BITMAP
28
10
00
70
B0
20
60
68
28
70
A0
E0
ENDCHAR
STARTCHAR uni01F4
ENCODING 500
SWIDTH 578 0
DWIDTH 6 0
BBX 6 14 0 -2
BITMAP
04
08
00
3C
64
44
C0
C4
CC
CC
78
68
58
70
ENDCHAR
STARTCHAR uni01F5
ENCODING 501
SWIDTH 507 0
DWIDTH 6 0
BBX 6 12 0 -3
BITMAP
18
10
00
78
58
D8
D8
94
F8
30
70
60
ENDCHAR
STARTCHAR Aringacute
ENCODING 506
SWIDTH 668 0
DWIDTH 7 0
BBX 9 13 0 -1
BITMAP
0180
0300
0300
0700
0A00
1200
7E00
A600
2600
6400
6400
4C00
4000
ENDCHAR
STARTCHAR aringacute
ENCODING 507
SWIDTH 526 0
DWIDTH 6 0
BBX 6 10 0 0
BITMAP
08
10
28
10
78
58
D8
D8
D4
F8
ENDCHAR
STARTCHAR AEacute
ENCODING 508
SWIDTH 764 0
DWIDTH 8 0
BBX 10 13 0 -1
BITMAP
0080
0100
0100
0740
0A80
1200
7E00
A780
A600
6400
6400
4F80
4000
ENDCHAR
STARTCHAR aeacute
ENCODING 509
SWIDTH 650 0
DWIDTH 7 0
BBX 8 9 0 0
BITMAP
04
04
08
7E
1A
7A
DC
91
FE
ENDCHAR
STARTCHAR Oslashacute
ENCODING 510
SWIDTH 658 0
DWIDTH 7 0
BBX 7 13 0 -1
BITMAP
02
04
04
04
3C
5E
BA
AE
6E
74
7C
38
10
ENDCHAR
STARTCHAR oslashacute
ENCODING 511
SWIDTH 428 0
DWIDTH 5 0
BBX 6 9 -1 0
BITMAP
0C
08
00
3C
28
68
78
68
F0
ENDCHAR
STARTCHAR uni0200
ENCODING 512
SWIDTH 668 0
DWIDTH 7 0
BBX 8 13 0 -1
BITMAP
0A
05
00
07
0A
12
7E
A6
26
64
64
4C
40
ENDCHAR
STARTCHAR uni0201
ENCODING 513
SWIDTH 526 0
DWIDTH 6 0
BBX 6 9 0 0
BITMAP
50
28
00
78
58
D8
D8
D4
F8
ENDCHAR
STARTCHAR uni0202
ENCODING 514
SWIDTH 668 0
DWIDTH 7 0
BBX 9 13 0 -1
BITMAP
0300
0480
0000
0700
0A00
1200
7E00
A600
2600
6400
6400
4C00
4000
ENDCHAR
STARTCHAR uni0203
ENCODING 515
SWIDTH 526 0
DWIDTH 6 0
BBX 6 8 0 0
BITMAP
38
48
78
58
D8
D8
D4
F8
ENDCHAR
STARTCHAR uni0204
ENCODING 516
SWIDTH 459 0
DWIDTH 5 0
BBX 5 12 0 0
BITMAP
70
28
00
38
28
68
20
70
C0
C0
C8
70
ENDCHAR
STARTCHAR uni0205
ENCODING 517
SWIDTH 384 0
DWIDTH 4 0
BBX 5 9 0 0
BITMAP
A0
50
00
70
50
D0
E0
C8
F0
ENDCHAR
STARTCHAR uni0206
ENCODING 518
SWIDTH 459 0
DWIDTH 5 0
BBX 6 12 0 0
BITMAP
1C
24
00
38
28
68
20
70
C0
C0
C8
70
ENDCHAR
STARTCHAR uni0207
ENCODING 519
SWIDTH 384 0
DWIDTH 4 0
BBX 5 8 0 0
BITMAP
70
48
70
50
D0
E0
88
F0
ENDCHAR
STARTCHAR uni0208
ENCODING 520
SWIDTH 375 0
DWIDTH 4 0
BBX 5 12 0 0
BITMAP
70
30
08
30
50
B0
B0
20
20
20
60
60
ENDCHAR
STARTCHAR uni0209
ENCODING 521
SWIDTH 267 0
DWIDTH 3 0
BBX 4 9 -1 0
BITMAP
A0
50
00
20
60
60
60
70
60
ENDCHAR
STARTCHAR uni020A
ENCODING 522
SWIDTH 375 0
DWIDTH 4 0
BBX 5 12 0 0
BITMAP
38
68
00
30
50
B0
B0
20
20
20
60
60
ENDCHAR
STARTCHAR uni020B
ENCODING 523
SWIDTH 267 0
DWIDTH 3 0
BBX 3 8 0 0
BITMAP
60
A0
40
C0
C0
C0
E0
C0
ENDCHAR
STARTCHAR uni020C
ENCODING 524
SWIDTH 665 0
DWIDTH 7 0
BBX 7 12 0 0
BITMAP
28
14
00
3C
52
B2
A2
62
66
64
6C
38
ENDCHAR
STARTCHAR uni020D
ENCODING 525
SWIDTH 433 0
DWIDTH 5 0
BBX 6 9 0 0
BITMAP
A0
50
00
70
D4
D8
90
90
E0
ENDCHAR
STARTCHAR uni020E
ENCODING 526
SWIDTH 665 0
DWIDTH 7 0
BBX 7 12 0 0
BITMAP
0E
12
00
3C
52
B2
A2
62
66
64
6C
38
ENDCHAR
STARTCHAR uni020F
ENCODING 527
SWIDTH 433 0
DWIDTH 5 0
BBX 6 8 0 0
BITMAP
30
48
70
D4
D8
90
90
E0
ENDCHAR
STARTCHAR uni0210
ENCODING 528
SWIDTH 601 0
DWIDTH 7 0
BBX 6 12 0 0
BITMAP
70
28
00
3C
54
B4
B4
BC
24
2C
6C
6C
ENDCHAR
STARTCHAR uni0211
ENCODING 529
SWIDTH 376 0
DWIDTH 4 0
BBX 4 9 0 0
BITMAP
E0
60
10
70
D0
C0
C0
80
80
ENDCHAR
STARTCHAR uni0212
ENCODING 530
SWIDTH 601 0
DWIDTH 7 0
BBX 6 12 0 0
BITMAP
1C
24
00
3C
54
B4
B4
BC
24
2C
6C
6C
ENDCHAR
STARTCHAR uni0213
ENCODING 531
SWIDTH 376 0
DWIDTH 4 0
BBX 5 8 0 0
BITMAP
70
48
70
D0
C0
C0
80
80
ENDCHAR
STARTCHAR uni0214
ENCODING 532
SWIDTH 716 0
DWIDTH 8 0
BBX 8 12 0 0
BITMAP
14
0A
00
39
53
93
B3
32
22
26
24
3C
ENDCHAR
STARTCHAR uni0215
ENCODING 533
SWIDTH 505 0
DWIDTH 6 0
BBX 6 9 0 0
BITMAP
E0
50
00
58
D8
D8
D0
F4
D8
ENDCHAR
STARTCHAR uni0216
ENCODING 534
SWIDTH 716 0
DWIDTH 8 0
BBX 8 12 0 0
BITMAP
06
09
00
39
53
93
B3
32
22
26
24
3C
ENDCHAR
STARTCHAR uni0217
ENCODING 535
SWIDTH 505 0
DWIDTH 6 0
BBX 6 8 0 0
BITMAP
38
48
58
D8
D8
D0
F4
D8
ENDCHAR
STARTCHAR Scommaaccent
ENCODING 536
SWIDTH 570 0
DWIDTH 6 0
BBX 6 12 0 -3
BITMAP
3C
24
24
30
18
68
CC
C8
70
20
20
20
ENDCHAR
STARTCHAR scommaaccent
ENCODING 537
SWIDTH 382 0
DWIDTH 4 0
BBX 5 9 0 -3
BITMAP
60
60
A0
A0
B8
E0
40
40
80
ENDCHAR
STARTCHAR uni021A
ENCODING 538
SWIDTH 481 0
DWIDTH 5 0
BBX 8 12 0 -3
BITMAP
39
5E
98
90
10
30
30
30
20
20
20
20
ENDCHAR
STARTCHAR uni021B
ENCODING 539
SWIDTH 267 0
DWIDTH 3 0
BBX 3 11 0 -3
BITMAP
60
40
E0
40
C0
C0
E0
C0
80
80
80
ENDCHAR
STARTCHAR uni021E
ENCODING 542
SWIDTH 665 0
DWIDTH 7 0
BBX 8 12 0 0
BITMAP
07
04
00
33
72
F2
B6
BE
26
24
64
6C
ENDCHAR
STARTCHAR uni021F
ENCODING 543
SWIDTH 600 0
DWIDTH 7 0
BBX 6 11 0 0
BITMAP
14
08
00
60
40
70
D8
D8
D0
94
98
ENDCHAR
STARTCHAR uni0237
ENCODING 567
SWIDTH 240 0
DWIDTH 3 0
BBX 5 9 -2 -3
BITMAP
10
30
30
30
28
38
60
E0
C0
ENDCHAR
STARTCHAR uni0259
ENCODING 601
SWIDTH 404 0
DWIDTH 4 0
BBX 4 6 0 0
BITMAP
70
10
70
B0
B0
E0
ENDCHAR
STARTCHAR uni0292
ENCODING 658
SWIDTH 442 0
DWIDTH 5 0
BBX 5 9 0 -3
BITMAP
70
B0
20
60
68
28
70
A0
E0
ENDCHAR
STARTCHAR uni02BB
ENCODING 699
SWIDTH 241 0
DWIDTH 3 0
BBX 2 3 1 6
BITMAP
40
40
C0
ENDCHAR
STARTCHAR uni02BC
ENCODING 700
SWIDTH 228 0
DWIDTH 3 0
BBX 1 3 2 6
BITMAP
80
80
80
ENDCHAR
STARTCHAR circumflex
ENCODING 710
SWIDTH 293 0
DWIDTH 3 0
BBX 3 2 0 7
BITMAP
20
E0
ENDCHAR
STARTCHAR caron
ENCODING 711
SWIDTH 294 0
DWIDTH 3 0
BBX 3 2 1 7
BITMAP
A0
40
ENDCHAR
STARTCHAR uni02C9
ENCODING 713
SWIDTH 421 0
DWIDTH 5 0
BBX 4 1 1 7
BITMAP
F0
ENDCHAR
STARTCHAR uni02CA
ENCODING 714
SWIDTH 256 0
DWIDTH 3 0
BBX 2 2 1 7
BITMAP
40
80
ENDCHAR
STARTCHAR uni02CB
ENCODING 715
SWIDTH 274 0
DWIDTH 3 0
BBX 1 2 2 7
BITMAP
80
80
ENDCHAR
STARTCHAR breve
ENCODING 728
SWIDTH 431 0
DWIDTH 5 0
BBX 4 2 1 6
BITMAP
90
E0
ENDCHAR
STARTCHAR dotaccent
ENCODING 729
SWIDTH 250 0
DWIDTH 3 0
BBX 1 2 1 7
BITMAP
80
80
ENDCHAR
STARTCHAR ring
ENCODING 730
SWIDTH 156 0
DWIDTH 2 0
BBX 2 2 0 6
BITMAP
C0
C0
ENDCHAR
STARTCHAR ogonek
ENCODING 731
SWIDTH 291 0
DWIDTH 3 0
BBX 3 3 0 -3
BITMAP
40
80
60
ENDCHAR
STARTCHAR tilde
ENCODING 732
SWIDTH 403 0
DWIDTH 4 0
BBX 5 2 0 7
BITMAP
20
F8
ENDCHAR
STARTCHAR hungarumlaut
ENCODING 733
SWIDTH 436 0
DWIDTH 5 0
BBX 4 2 1 7
BITMAP
70
A0
ENDCHAR
STARTCHAR gravecomb
ENCODING 768
SWIDTH 0 0
DWIDTH 0 0
BBX 2 2 -2 7
BITMAP
80
40
ENDCHAR
STARTCHAR acutecomb
ENCODING 769
SWIDTH 0 0
DWIDTH 0 0
BBX 2 2 -2 7
BITMAP
40
80
ENDCHAR
STARTCHAR uni0302
ENCODING 770
SWIDTH 0 0
DWIDTH 0 0
BBX 3 2 -3 7
BITMAP
20
E0
ENDCHAR
STARTCHAR tildecomb
ENCODING 771
SWIDTH 0 0
DWIDTH 0 0
BBX 4 2 -4 7
BITMAP
40
F0
ENDCHAR
STARTCHAR uni0304
ENCODING 772
SWIDTH 0 0
DWIDTH 0 0
BBX 3 1 -3 7
BITMAP
E0
ENDCHAR
STARTCHAR uni0306
ENCODING 774
SWIDTH 0 0
DWIDTH 0 0
BBX 4 2 -3 6
BITMAP
B0
C0
ENDCHAR
STARTCHAR uni0307
ENCODING 775
SWIDTH 0 0
DWIDTH 0 0
BBX 1 2 -1 7
BITMAP
80
80
ENDCHAR
STARTCHAR uni0308
ENCODING 776
SWIDTH 0 0
DWIDTH 0 0
BBX 3 1 -3 7
BITMAP
A0
ENDCHAR
STARTCHAR hookabovecomb
ENCODING 777
SWIDTH 0 0
DWIDTH 0 0
BBX 3 3 -3 7
BITMAP
C0
20
40
ENDCHAR
STARTCHAR uni030A
ENCODING 778
SWIDTH 0 0
DWIDTH 0 0
BBX 1 2 -1 6
BITMAP
80
80
ENDCHAR
STARTCHAR uni030B
ENCODING 779
SWIDTH 0 0
DWIDTH 0 0
BBX 4 2 -3 7
BITMAP
F0
E0
ENDCHAR
STARTCHAR uni030C
ENCODING 780
SWIDTH 0 0
DWIDTH 0 0
BBX 4 2 -3 7
BITMAP
B0
40
ENDCHAR
STARTCHAR uni030F
ENCODING 783
SWIDTH 0 0
DWIDTH 0 0
BBX 4 2 -4 7
BITMAP
E0
50
ENDCHAR
STARTCHAR uni0311
ENCODING 785
SWIDTH 0 0
DWIDTH 0 0
BBX 4 2 -4 6
BITMAP
70
90
ENDCHAR
STARTCHAR uni031B
ENCODING 795
SWIDTH 0 0
DWIDTH 0 0
BBX 1 3 -1 5
BITMAP
80
80
80
ENDCHAR
STARTCHAR dotbelowcomb
ENCODING 803
SWIDTH 0 0
DWIDTH 0 0
BBX 2 2 -2 -3
BITMAP
C0
C0
ENDCHAR
STARTCHAR uni0324
ENCODING 804
SWIDTH 0 0
DWIDTH 0 0
BBX 4 1 -5 -2
BITMAP
F0
ENDCHAR
STARTCHAR uni0326
ENCODING 806
SWIDTH 0 0
DWIDTH 0 0
BBX 2 2 -3 -3
BITMAP
C0
C0
ENDCHAR
STARTCHAR uni0327
ENCODING 807
SWIDTH 0 0
DWIDTH 0 0
BBX 3 3 -4 -3
BITMAP
40
60
C0
ENDCHAR
STARTCHAR uni0328
ENCODING 808
SWIDTH 0 0
DWIDTH 0 0
BBX 3 3 -4 -3
BITMAP
40
A0
C0
ENDCHAR
STARTCHAR uni032E
ENCODING 814
SWIDTH 0 0
DWIDTH 0 0
BBX 4 2 -5 -2
BITMAP
90
60
ENDCHAR
STARTCHAR uni0331
ENCODING 817
SWIDTH 0 0
DWIDTH 0 0
BBX 4 1 -5 -2
BITMAP
F0
ENDCHAR
STARTCHAR uni0335
ENCODING 821
SWIDTH 0 0
DWIDTH 0 0
BBX 4 1 -4 3
BITMAP
F0
ENDCHAR
STARTCHAR uni0394
ENCODING 916
SWIDTH 619 0
DWIDTH 7 0
BBX 7 9 0 0
BITMAP
0C
0C
14
14
24
24
44
86
FE
ENDCHAR
STARTCHAR uni03A9
ENCODING 937
SWIDTH 745 0
DWIDTH 8 0
BBX 8 9 0 0
BITMAP
0E
32
21
41
41
42
42
24
EE
ENDCHAR
STARTCHAR uni03BC
ENCODING 956
SWIDTH 505 0
DWIDTH 6 0
BBX 7 8 -1 -2
BITMAP
2C
2C
6C
68
7A
6C
C0
C0
ENDCHAR
STARTCHAR pi
ENCODING 960
SWIDTH 530 0
DWIDTH 6 0
BBX 6 6 0 0
BITMAP
FC
48
50
90
90
90
ENDCHAR
STARTCHAR uni0400
ENCODING 1024
SWIDTH 459 0
DWIDTH 5 0
BBX 5 12 0 0
BITMAP
10
10
00
38
28
68
20
70
C0
C0
C8
70
ENDCHAR
STARTCHAR uni0401
ENCODING 1025
SWIDTH 459 0
DWIDTH 5 0
BBX 6 11 0 0
BITMAP
14
00
38
28
68
20
70
C0
C0
C8
70
ENDCHAR
STARTCHAR uni0402
ENCODING 1026
SWIDTH 725 0
DWIDTH 8 0
BBX 8 11 0 -2
BITMAP
3F
58
98
98
9E
32
32
36
26
04
18
ENDCHAR
STARTCHAR uni0403
ENCODING 1027
SWIDTH 400 0
DWIDTH 4 0
BBX 7 12 0 0
BITMAP
06
04
00
7E
B0
B0
B0
30
20
20
60
60
ENDCHAR
STARTCHAR uni0404
ENCODING 1028
SWIDTH 497 0
DWIDTH 5 0
BBX 6 9 0 0
BITMAP
3C
64
68
70
C0
C0
C0
C4
78
ENDCHAR
STARTCHAR uni0405
ENCODING 1029
SWIDTH 570 0
DWIDTH 6 0
BBX 6 9 0 0
BITMAP
3C
24
24
30
18
68
CC
C8
70
ENDCHAR
STARTCHAR uni0406
ENCODING 1030
SWIDTH 374 0
DWIDTH 4 0
BBX 4 9 0 0
BITMAP
30
50
B0
B0
30
20
20
60
60
ENDCHAR
STARTCHAR uni0407
ENCODING 1031
SWIDTH 375 0
DWIDTH 4 0
BBX 5 11 0 0
BITMAP
28
00
30
50
B0
B0
20
20
20
60
60
ENDCHAR
STARTCHAR uni0408
ENCODING 1032
SWIDTH 536 0
DWIDTH 6 0
BBX 6 11 0 -2
BITMAP
0C
1C
2C
2C
08
08
18
18
78
90
60
ENDCHAR
STARTCHAR uni0409
ENCODING 1033
SWIDTH 817 0
DWIDTH 9 0
BBX 9 10 0 -1
BITMAP
0C00
1400
2C00
2C00
4F00
4980
C980
9900
9F00
8000
ENDCHAR
STARTCHAR uni040A
ENCODING 1034
SWIDTH 931 0
DWIDTH 10 0
BBX 10 9 0 0
BITMAP
3300
5200
B200
B600
BF80
26C0
24C0
64C0
6F80
ENDCHAR
STARTCHAR uni040B
ENCODING 1035
SWIDTH 745 0
DWIDTH 8 0
BBX 8 9 0 0
BITMAP
7F
98
98
9E
12
32
36
36
26
ENDCHAR
STARTCHAR uni040C
ENCODING 1036
SWIDTH 635 0
DWIDTH 7 0
BBX 7 12 0 0
BITMAP
06
04
00
32
56
B8
B8
BC
24
2C
6C
6C
ENDCHAR
STARTCHAR uni040D
ENCODING 1037
SWIDTH 705 0
DWIDTH 8 0
BBX 8 12 0 0
BITMAP
0C
04
00
33
53
B7
B6
3A
2E
36
66
64
ENDCHAR
STARTCHAR uni040E
ENCODING 1038
SWIDTH 644 0
DWIDTH 7 0
BBX 8 11 0 0
BITMAP
09
0E
39
5A
9A
9A
0C
0C
08
28
30
ENDCHAR
STARTCHAR uni040F
ENCODING 1039
SWIDTH 665 0
DWIDTH 7 0
BBX 8 13 0 -4
BITMAP
33
52
B2
B6
36
26
24
64
7C
10
30
10
10
ENDCHAR
STARTCHAR uni0410
ENCODING 1040
SWIDTH 668 0
DWIDTH 7 0
BBX 8 10 0 -1
BITMAP
07
0A
12
7E
A6
26
64
64
4C
40
ENDCHAR
STARTCHAR uni0411
ENCODING 1041
SWIDTH 638 0
DWIDTH 7 0
BBX 7 9 0 0
BITMAP
7E
B0
B0
B0
BC
24
64
64
78
ENDCHAR
STARTCHAR uni0412
ENCODING 1042
SWIDTH 641 0
DWIDTH 7 0
BBX 7 9 0 0
BITMAP
3C
54
B4
BC
26
26
26
64
7C
ENDCHAR
STARTCHAR uni0413
ENCODING 1043
SWIDTH 400 0
DWIDTH 4 0
BBX 7 9 0 0
BITMAP
7E
B0
B0
B0
30
20
20
60
60
ENDCHAR
STARTCHAR uni0414
ENCODING 1044
SWIDTH 669 0
DWIDTH 7 0
BBX 7 9 0 0
BITMAP
3C
56
B2
B2
32
26
E6
E4
F8
ENDCHAR
STARTCHAR uni0415
ENCODING 1045
SWIDTH 459 0
DWIDTH 5 0
BBX 5 9 0 0
BITMAP
38
28
68
20
70
C0
C0
C8
70
ENDCHAR
STARTCHAR uni0416
ENCODING 1046
SWIDTH 777 0
DWIDTH 9 0
BBX 10 9 -1 0
BITMAP
36C0
3740
0F00
0E00
3F00
2D80
2D00
6D00
E980
ENDCHAR
STARTCHAR uni0417
ENCODING 1047
SWIDTH 525 0
DWIDTH 6 0
BBX 5 9 0 0
BITMAP
38
48
18
30
18
18
98
98
F0
ENDCHAR
STARTCHAR uni0418
ENCODING 1048
SWIDTH 705 0
DWIDTH 8 0
BBX 8 9 0 0
BITMAP
33
53
B7
B6
3A
2E
36
66
64
ENDCHAR
STARTCHAR uni0419
ENCODING 1049
SWIDTH 705 0
DWIDTH 8 0
BBX 8 11 0 0
BITMAP
09
0E
33
53
B7
B6
3A
2E
36
66
64
ENDCHAR
STARTCHAR uni041A
ENCODING 1050
SWIDTH 635 0
DWIDTH 7 0
BBX 7 9 0 0
BITMAP
32
56
B8
B8
BC
24
2C
6C
6C
ENDCHAR
STARTCHAR uni041B
ENCODING 1051
SWIDTH 549 0
DWIDTH 6 0
BBX 6 10 0 -1
BITMAP
0C
14
2C
2C
4C
48
C8
98
98
80
ENDCHAR
STARTCHAR uni041C
ENCODING 1052
SWIDTH 787 0
DWIDTH 9 0
BBX 8 9 1 0
BITMAP
33
F3
B7
B6
76
7A
7E
B6
B6
ENDCHAR
STARTCHAR uni041D
ENCODING 1053
SWIDTH 665 0
DWIDTH 7 0
BBX 8 9 0 0
BITMAP
33
72
F2
B6
BE
26
24
64
6C
ENDCHAR
STARTCHAR uni041E
ENCODING 1054
SWIDTH 665 0
DWIDTH 7 0
BBX 7 9 0 0
BITMAP
3C
52
B2
A2
62
66
64
6C
38
ENDCHAR
STARTCHAR uni041F
ENCODING 1055
SWIDTH 688 0
DWIDTH 8 0
BBX 9 9 0 0
BITMAP
3880
7F00
B200
B600
3600
2600
2400
6400
6C00
ENDCHAR
STARTCHAR uni0420
ENCODING 1056
SWIDTH 573 0
DWIDTH 6 0
BBX 7 9 0 0
BITMAP
3C
54
B6
B4
34
38
20
60
60
ENDCHAR
STARTCHAR uni0421
ENCODING 1057
SWIDTH 497 0
DWIDTH 5 0
BBX 6 9 0 0
BITMAP
38
64
6C
40
C0
C0
C0
C4
78
ENDCHAR
STARTCHAR uni0422
ENCODING 1058
SWIDTH 481 0
DWIDTH 5 0
BBX 8 9 0 0
BITMAP
39
5E
98
90
10
30
30
30
20
ENDCHAR
STARTCHAR uni0423
ENCODING 1059
SWIDTH 644 0
DWIDTH 7 0
BBX 8 9 0 0
BITMAP
39
5A
9A
9A
0C
0C
08
28
30
ENDCHAR
STARTCHAR uni0424
ENCODING 1060
SWIDTH 786 0
DWIDTH 9 0
BBX 8 10 0 0
BITMAP
3C
4C
2C
3B
49
C9
D9
DB
7C
10
ENDCHAR
STARTCHAR uni0425
ENCODING 1061
SWIDTH 620 0
DWIDTH 7 0
BBX 7 9 0 0
BITMAP
32
5C
9C
98
18
18
1C
2C
6C
ENDCHAR
STARTCHAR uni0426
ENCODING 1062
SWIDTH 692 0
DWIDTH 8 0
BBX 8 11 0 -2
BITMAP
33
52
B2
B6
36
26
24
64
7C
0D
07
ENDCHAR
STARTCHAR uni0427
ENCODING 1063
SWIDTH 695 0
DWIDTH 8 0
BBX 8 9 0 0
BITMAP
33
53
B2
B2
9A
06
06
06
04
ENDCHAR
STARTCHAR uni0428
ENCODING 1064
SWIDTH 906 0
DWIDTH 10 0
BBX 10 9 0 0
BITMAP
3240
56C0
B6C0
B6C0
3480
2480
2D80
6D80
7F80
ENDCHAR
STARTCHAR uni0429
ENCODING 1065
SWIDTH 934 0
DWIDTH 10 0
BBX 11 11 0 -2
BITMAP
3240
56C0
B6C0
B6C0
3480
2480
2D80
6D80
7D80
0F20
01C0
ENDCHAR
STARTCHAR uni042A
ENCODING 1066
SWIDTH 714 0
DWIDTH 8 0
BBX 7 9 0 0
BITMAP
38
58
98
98
DE
12
32
32
3C
ENDCHAR
STARTCHAR uni042B
ENCODING 1067
SWIDTH 909 0
DWIDTH 10 0
BBX 10 9 0 0
BITMAP
3040
50C0
B0C0
B0C0
BC80
2680
2780
6580
7D80
ENDCHAR
STARTCHAR uni042C
ENCODING 1068
SWIDTH 640 0
DWIDTH 7 0
BBX 7 9 0 0
BITMAP
30
50
B0
B0
BC
26
26
64
7C
ENDCHAR
STARTCHAR uni042D
ENCODING 1069
SWIDTH 544 0
DWIDTH 6 0
BBX 6 9 0 0
BITMAP
38
4C
0C
3C
0C
08
98
98
F0
ENDCHAR
STARTCHAR uni042E
ENCODING 1070
SWIDTH 946 0
DWIDTH 10 0
BBX 10 9 0 0
BITMAP
3380
5340
B240
B640
BC40
2CC0
2CC0
6D80
6700
ENDCHAR
STARTCHAR uni042F
ENCODING 1071
SWIDTH 630 0
DWIDTH 7 0
BBX 9 9 -1 0
BITMAP
0F00
1780
2780
3400
3C00
2C00
2C00
6C00
C800
ENDCHAR
STARTCHAR uni0430
ENCODING 1072
SWIDTH 526 0
DWIDTH 6 0
BBX 6 6 0 0
BITMAP
78
58
D8
D8
D4
F8
ENDCHAR
STARTCHAR uni0431
ENCODING 1073
SWIDTH 430 0
DWIDTH 5 0
BBX 6 9 0 0
BITMAP
3C
3C
20
70
50
D0
D0
90
E0
ENDCHAR
STARTCHAR uni0432
ENCODING 1074
SWIDTH 449 0
DWIDTH 5 0
BBX 6 9 0 0
BITMAP
30
68
48
50
D0
FC
D0
D0
E0
ENDCHAR
STARTCHAR uni0433
ENCODING 1075
SWIDTH 375 0
DWIDTH 4 0
BBX 5 6 0 0
BITMAP
60
B0
60
C8
90
E0
ENDCHAR
STARTCHAR uni0434
ENCODING 1076
SWIDTH 507 0
DWIDTH 6 0
BBX 6 9 0 -3
BITMAP
78
58
D8
D8
94
F8
30
70
60
ENDCHAR
STARTCHAR uni0435
ENCODING 1077
SWIDTH 384 0
DWIDTH 4 0
BBX 5 6 0 0
BITMAP
70
50
D0
E0
88
F0
ENDCHAR
STARTCHAR uni0436
ENCODING 1078
SWIDTH 882 0
DWIDTH 10 0
BBX 10 6 0 0
BITMAP
6DC0
AF80
3E00
2A00
AA40
DB80
ENDCHAR
STARTCHAR uni0437
ENCODING 1079
SWIDTH 498 0
DWIDTH 5 0
BBX 6 9 0 -3
BITMAP
70
58
98
90
64
38
70
B0
60
ENDCHAR
STARTCHAR uni0438
ENCODING 1080
SWIDTH 505 0
DWIDTH 6 0
BBX 6 6 0 0
BITMAP
58
D8
D8
D0
F4
D8
ENDCHAR
STARTCHAR uni0439
ENCODING 1081
SWIDTH 505 0
DWIDTH 6 0
BBX 6 8 0 0
BITMAP
68
30
58
D8
D8
D0
F4
D8
ENDCHAR
STARTCHAR uni043A
ENCODING 1082
SWIDTH 501 0
DWIDTH 6 0
BBX 6 6 0 0
BITMAP
58
E0
F0
D0
94
98
ENDCHAR
STARTCHAR uni043B
ENCODING 1083
SWIDTH 558 0
DWIDTH 6 0
BBX 7 6 0 0
BITMAP
1C
28
28
38
DA
DC
ENDCHAR
STARTCHAR uni043C
ENCODING 1084
SWIDTH 827 0
DWIDTH 9 0
BBX 10 6 0 0
BITMAP
1980
3B00
3B00
3F00
DB40
DB80
ENDCHAR
STARTCHAR uni043D
ENCODING 1085
SWIDTH 507 0
DWIDTH 6 0
BBX 6 6 0 0
BITMAP
58
D8
F8
D0
94
98
ENDCHAR
STARTCHAR uni043E
ENCODING 1086
SWIDTH 439 0
DWIDTH 5 0
BBX 6 6 0 0
BITMAP
70
54
D8
D0
90
E0
ENDCHAR
STARTCHAR uni043F
ENCODING 1087
SWIDTH 505 0
DWIDTH 6 0
BBX 6 6 0 0
BITMAP
70
D8
D8
D0
94
98
ENDCHAR
STARTCHAR uni0440
ENCODING 1088
SWIDTH 468 0
DWIDTH 5 0
BBX 6 10 -1 -3
BITMAP
20
3C
6C
6C
6C
48
78
C0
C0
C0
ENDCHAR
STARTCHAR uni0441
ENCODING 1089
SWIDTH 384 0
DWIDTH 4 0
BBX 5 6 0 0
BITMAP
70
50
C0
C0
88
F0
ENDCHAR
STARTCHAR uni0442
ENCODING 1090
SWIDTH 752 0
DWIDTH 8 0
BBX 9 6 0 0
BITMAP
7E00
DA00
DA00
D200
9680
B300
ENDCHAR
STARTCHAR uni0443
ENCODING 1091
SWIDTH 486 0
DWIDTH 5 0
BBX 6 9 0 -3
BITMAP
58
D8
D8
D0
F4
F8
70
B0
60
ENDCHAR
STARTCHAR uni0444
ENCODING 1092
SWIDTH 738 0
DWIDTH 8 0
BBX 8 11 0 -3
BITMAP
0C
08
7E
5B
DB
D2
92
FC
30
30
20
ENDCHAR
STARTCHAR uni0445
ENCODING 1093
SWIDTH 522 0
DWIDTH 6 0
BBX 6 6 0 0
BITMAP
78
BC
B8
B0
54
D8
ENDCHAR
STARTCHAR uni0446
ENCODING 1094
SWIDTH 535 0
DWIDTH 6 0
BBX 5 9 0 -3
BITMAP
58
D8
D8
D0
F0
D8
08
78
70
ENDCHAR
STARTCHAR uni0447
ENCODING 1095
SWIDTH 505 0
DWIDTH 6 0
BBX 6 6 0 0
BITMAP
58
D8
D8
F0
14
18
ENDCHAR
STARTCHAR uni0448
ENCODING 1096
SWIDTH 752 0
DWIDTH 8 0
BBX 9 6 0 0
BITMAP
5B00
DA00
DA00
D200
F680
DB00
ENDCHAR
STARTCHAR uni0449
ENCODING 1097
SWIDTH 782 0
DWIDTH 9 0
BBX 8 9 0 -3
BITMAP
5B
DA
DA
D2
F6
DB
01
0E
1C
ENDCHAR
STARTCHAR uni044A
ENCODING 1098
SWIDTH 448 0
DWIDTH 5 0
BBX 4 6 0 0
BITMAP
E0
C0
70
D0
D0
E0
ENDCHAR
STARTCHAR uni044B
ENCODING 1099
SWIDTH 655 0
DWIDTH 7 0
BBX 8 6 0 0
BITMAP
46
CC
F4
D4
9D
E6
ENDCHAR
STARTCHAR uni044C
ENCODING 1100
SWIDTH 448 0
DWIDTH 5 0
BBX 4 6 0 0
BITMAP
40
C0
F0
D0
D0
E0
ENDCHAR
STARTCHAR uni044D
ENCODING 1101
SWIDTH 413 0
DWIDTH 5 0
BBX 5 6 -1 0
BITMAP
38
58
38
18
90
60
ENDCHAR
STARTCHAR uni044E
ENCODING 1102
SWIDTH 675 0
DWIDTH 7 0
BBX 9 6 0 0
BITMAP
4E00
DB80
F200
F200
B400
9C00
ENDCHAR
STARTCHAR uni044F
ENCODING 1103
SWIDTH 527 0
DWIDTH 6 0
BBX 6 6 0 0
BITMAP
38
48
58
78
D4
D8
ENDCHAR
STARTCHAR uni0450
ENCODING 1104
SWIDTH 384 0
DWIDTH 4 0
BBX 5 9 0 0
BITMAP
20
20
00
70
50
D0
E0
88
F0
ENDCHAR
STARTCHAR uni0451
ENCODING 1105
SWIDTH 384 0
DWIDTH 4 0
BBX 5 8 0 0
BITMAP
78
00
70
50
D0
E0
88
F0
ENDCHAR
STARTCHAR uni0452
ENCODING 1106
SWIDTH 491 0
DWIDTH 5 0
BBX 6 12 0 -3
BITMAP
20
60
F0
40
F0
D8
D0
94
B8
70
A0
60
ENDCHAR
STARTCHAR uni0453
ENCODING 1107
SWIDTH 375 0
DWIDTH 4 0
BBX 5 9 0 0
BITMAP
10
20
00
60
B0
60
C8
90
E0
ENDCHAR
STARTCHAR uni0454
ENCODING 1108
SWIDTH 384 0
DWIDTH 4 0
BBX 5 6 0 0
BITMAP
70
50
E0
C8
D0
E0
ENDCHAR
STARTCHAR uni0455
ENCODING 1109
SWIDTH 382 0
DWIDTH 4 0
BBX 5 6 0 0
BITMAP
60
60
A0
A0
B8
E0
ENDCHAR
STARTCHAR uni0456
ENCODING 1110
SWIDTH 267 0
DWIDTH 3 0
BBX 3 8 0 0
BITMAP
60
60
40
C0
C0
C0
E0
C0
ENDCHAR
STARTCHAR uni0457
ENCODING 1111
SWIDTH 267 0
DWIDTH 3 0
BBX 4 8 0 0
BITMAP
F0
00
40
C0
C0
C0
E0
C0
ENDCHAR
STARTCHAR uni0458
ENCODING 1112
SWIDTH 240 0
DWIDTH 3 0
BBX 5 11 -2 -3
BITMAP
18
10
10
30
30
30
28
38
60
E0
C0
ENDCHAR
STARTCHAR uni0459
ENCODING 1113
SWIDTH 745 0
DWIDTH 8 0
BBX 8 6 0 0
BITMAP
1C
28
2F
3B
DA
CE
ENDCHAR
STARTCHAR uni045A
ENCODING 1114
SWIDTH 694 0
DWIDTH 8 0
BBX 7 6 0 0
BITMAP
58
D8
FE
D2
96
9C
ENDCHAR
STARTCHAR uni045B
ENCODING 1115
SWIDTH 505 0
DWIDTH 6 0
BBX 6 9 0 0
BITMAP
20
60
F0
40
F0
D8
D0
94
98
ENDCHAR
STARTCHAR uni045C
ENCODING 1116
SWIDTH 501 0
DWIDTH 6 0
BBX 6 9 0 0
BITMAP
08
10
00
58
E0
F0
D0
94
98
ENDCHAR
STARTCHAR uni045D
ENCODING 1117
SWIDTH 505 0
DWIDTH 6 0
BBX 6 9 0 0
BITMAP
20
20
00
58
D8
D8
D0
F4
D8
ENDCHAR
STARTCHAR uni045E
ENCODING 1118
SWIDTH 486 0
DWIDTH 5 0
BBX 6 11 0 -3
BITMAP
68
30
58
D8
D8
D0
F4
F8
70
B0
60
ENDCHAR
STARTCHAR uni045F
ENCODING 1119
SWIDTH 505 0
DWIDTH 6 0
BBX 6 9 0 -3
BITMAP
58
D8
D8
D0
F4
D8
20
20
20
ENDCHAR
STARTCHAR uni0462
ENCODING 1122
SWIDTH 659 0
DWIDTH 7 0
BBX 7 9 0 0
BITMAP
10
72
BC
B0
BC
24
66
64
7C
ENDCHAR
STARTCHAR uni0463
ENCODING 1123
SWIDTH 692 0
DWIDTH 8 0
BBX 7 6 0 0
BITMAP
70
D8
DE
D2
92
9C
ENDCHAR
STARTCHAR uni046A
ENCODING 1130
SWIDTH 834 0
DWIDTH 9 0
BBX 9 9 0 0
BITMAP
3F80
5900
4E00
4E00
3F00
2D80
6D00
6900
CB00
ENDCHAR
STARTCHAR uni046B
ENCODING 1131
SWIDTH 750 0
DWIDTH 8 0
BBX 7 6 0 0
BITMAP
7E
5C
3E
7A
5A
DE
ENDCHAR
STARTCHAR uni0472
ENCODING 1138
SWIDTH 665 0
DWIDTH 7 0
BBX 7 9 0 0
BITMAP
3C
52
B2
A2
7E
66
64
6C
38
ENDCHAR
STARTCHAR uni0473
ENCODING 1139
SWIDTH 439 0
DWIDTH 5 0
BBX 6 6 0 0
BITMAP
70
54
D8
F0
D0
E0
ENDCHAR
STARTCHAR uni0474
ENCODING 1140
SWIDTH 668 0
DWIDTH 7 0
BBX 8 9 0 0
BITMAP
33
52
92
94
14
14
18
18
18
ENDCHAR
STARTCHAR uni0475
ENCODING 1141
SWIDTH 414 0
DWIDTH 5 0
BBX 4 6 0 0
BITMAP
50
D0
D0
D0
90
E0
ENDCHAR
STARTCHAR uni0490
ENCODING 1168
SWIDTH 431 0
DWIDTH 5 0
BBX 7 10 0 0
BITMAP
02
7E
B0
B0
B0
20
20
60
60
60
ENDCHAR
STARTCHAR uni0491
ENCODING 1169
SWIDTH 342 0
DWIDTH 4 0
BBX 4 7 0 0
BITMAP
10
70
C0
C0
C0
80
80
ENDCHAR
STARTCHAR uni0492
ENCODING 1170
SWIDTH 400 0
DWIDTH 4 0
BBX 7 9 0 0
BITMAP
3E
50
B0
B0
70
78
20
60
60
ENDCHAR
STARTCHAR uni0493
ENCODING 1171
SWIDTH 375 0
DWIDTH 4 0
BBX 5 6 0 0
BITMAP
60
B0
30
F0
C8
F0
ENDCHAR
STARTCHAR uni0494
ENCODING 1172
SWIDTH 665 0
DWIDTH 7 0
BBX 7 9 0 0
BITMAP
3E
70
B0
B0
BC
26
26
64
7C
ENDCHAR
STARTCHAR uni0495
ENCODING 1173
SWIDTH 486 0
DWIDTH 5 0
BBX 6 9 0 -3
BITMAP
78
C0
F0
D0
94
B8
70
A0
60
ENDCHAR
STARTCHAR uni0496
ENCODING 1174
SWIDTH 777 0
DWIDTH 9 0
BBX 10 13 -1 -4
BITMAP
36C0
3740
0F00
0E00
3F00
2D80
2D00
6D00
6900
8180
0300
0100
0100
ENDCHAR
STARTCHAR uni0497
ENCODING 1175
SWIDTH 882 0
DWIDTH 10 0
BBX 10 9 0 -3
BITMAP
6DC0
AF80
3E00
2A00
AA40
DB80
0100
0100
0100
ENDCHAR
STARTCHAR uni0498
ENCODING 1176
SWIDTH 525 0
DWIDTH 6 0
BBX 5 13 0 -4
BITMAP
38
48
18
30
18
18
98
98
E0
60
20
20
20
ENDCHAR
STARTCHAR uni0499
ENCODING 1177
SWIDTH 498 0
DWIDTH 5 0
BBX 6 12 0 -6
BITMAP
70
58
98
90
64
38
70
B0
60
40
40
40
ENDCHAR
STARTCHAR uni049A
ENCODING 1178
SWIDTH 635 0
DWIDTH 7 0
BBX 7 13 0 -4
BITMAP
32
56
B8
B8
BC
24
2C
6C
6C
08
0C
04
08
ENDCHAR
STARTCHAR uni049B
ENCODING 1179
SWIDTH 501 0
DWIDTH 6 0
BBX 6 9 0 -3
BITMAP
58
E0
F0
D0
94
98
10
18
10
ENDCHAR
STARTCHAR uni049C
ENCODING 1180
SWIDTH 721 0
DWIDTH 8 0
BBX 8 9 0 0
BITMAP
33
53
BC
B8
2C
26
24
64
64
ENDCHAR
STARTCHAR uni049D
ENCODING 1181
SWIDTH 551 0
DWIDTH 6 0
BBX 7 6 0 0
BITMAP
4C
F0
F8
D8
DA
9C
ENDCHAR
STARTCHAR uni04A0
ENCODING 1184
SWIDTH 691 0
DWIDTH 8 0
BBX 8 9 0 0
BITMAP
3B
5D
9C
98
9C
36
34
34
26
ENDCHAR
STARTCHAR uni04A1
ENCODING 1185
SWIDTH 676 0
DWIDTH 7 0
BBX 8 6 0 0
BITMAP
72
B6
BC
34
25
66
ENDCHAR
STARTCHAR uni04A2
ENCODING 1186
SWIDTH 665 0
DWIDTH 7 0
BBX 8 11 0 -2
BITMAP
33
52
B2
B6
BE
26
24
64
6C
07
02
ENDCHAR
STARTCHAR uni04A3
ENCODING 1187
SWIDTH 507 0
DWIDTH 6 0
BBX 6 9 0 -3
BITMAP
58
D8
F8
D0
94
98
10
18
10
ENDCHAR
STARTCHAR uni04A4
ENCODING 1188
SWIDTH 689 0
DWIDTH 8 0
BBX 10 9 0 0
BITMAP
33C0
7200
B200
B600
BE00
2600
2400
6400
6C00
ENDCHAR
STARTCHAR uni04A5
ENCODING 1189
SWIDTH 681 0
DWIDTH 7 0
BBX 8 6 0 0
BITMAP
5F
D8
F8
D0
94
98
ENDCHAR
STARTCHAR uni04AA
ENCODING 1194
SWIDTH 497 0
DWIDTH 5 0
BBX 6 13 0 -4
BITMAP
38
24
6C
40
C0
C0
C0
C4
78
20
20
30
20
ENDCHAR
STARTCHAR uni04AB
ENCODING 1195
SWIDTH 384 0
DWIDTH 4 0
BBX 5 9 0 -3
BITMAP
70
50
C0
C8
D0
E0
40
40
40
ENDCHAR
STARTCHAR uni04AE
ENCODING 1198
SWIDTH 620 0
DWIDTH 7 0
BBX 8 9 0 0
BITMAP
31
5A
9A
9C
0C
0C
08
18
18
ENDCHAR
STARTCHAR uni04AF
ENCODING 1199
SWIDTH 480 0
DWIDTH 5 0
BBX 4 9 1 -3
BITMAP
90
90
90
A0
E0
C0
C0
80
80
ENDCHAR
STARTCHAR uni04B0
ENCODING 1200
SWIDTH 620 0
DWIDTH 7 0
BBX 8 9 0 0
BITMAP
31
5A
9A
9C
0C
1C
08
18
18
ENDCHAR
STARTCHAR uni04B1
ENCODING 1201
SWIDTH 480 0
DWIDTH 5 0
BBX 5 9 0 -3
BITMAP
48
48
48
50
70
F0
60
40
80
ENDCHAR
STARTCHAR uni04B6
ENCODING 1206
SWIDTH 695 0
DWIDTH 8 0
BBX 8 11 0 -2
BITMAP
33
53
B2
B2
92
0E
06
06
04
03
03
ENDCHAR
STARTCHAR uni04B7
ENCODING 1207
SWIDTH 505 0
DWIDTH 6 0
BBX 6 9 0 -3
BITMAP
58
D8
D8
F0
14
18
10
18
10
ENDCHAR
STARTCHAR uni04B8
ENCODING 1208
SWIDTH 715 0
DWIDTH 8 0
BBX 8 9 0 0
BITMAP
33
53
B3
B3
1E
0E
06
06
06
ENDCHAR
STARTCHAR uni04B9
ENCODING 1209
SWIDTH 545 0
DWIDTH 6 0
BBX 6 6 0 0
BITMAP
48
C8
F8
78
3C
18
ENDCHAR
STARTCHAR uni04BA
ENCODING 1210
SWIDTH 679 0
DWIDTH 7 0
BBX 7 9 0 0
BITMAP
30
50
B0
B0
2E
26
26
66
64
ENDCHAR
STARTCHAR uni04BB
ENCODING 1211
SWIDTH 505 0
DWIDTH 6 0
BBX 6 8 0 0
BITMAP
60
40
70
D8
D8
D0
94
98
ENDCHAR
STARTCHAR uni04C0
ENCODING 1216
SWIDTH 375 0
DWIDTH 4 0
BBX 4 9 0 0
BITMAP
30
50
B0
B0
20
20
20
60
60
ENDCHAR
STARTCHAR uni04C1
ENCODING 1217
SWIDTH 777 0
DWIDTH 9 0
BBX 10 11 -1 0
BITMAP
0500
0600
36C0
3740
0F00
0E00
3F00
2D80
2D00
6D00
E980
ENDCHAR
STARTCHAR uni04C2
ENCODING 1218
SWIDTH 882 0
DWIDTH 10 0
BBX 10 8 0 0
BITMAP
0A00
0C00
6DC0
AF80
3E00
2A00
AA40
DB80
ENDCHAR
STARTCHAR uni04CB
ENCODING 1227
SWIDTH 695 0
DWIDTH 8 0
BBX 8 10 0 -1
BITMAP
33
53
B2
B2
1E
06
06
04
0C
30
ENDCHAR
STARTCHAR uni04CC
ENCODING 1228
SWIDTH 516 0
DWIDTH 6 0
BBX 6 9 0 -3
BITMAP
58
58
D8
70
14
18
10
70
E0
ENDCHAR
STARTCHAR uni04CF
ENCODING 1231
SWIDTH 267 0
DWIDTH 3 0
BBX 3 8 0 0
BITMAP
60
40
40
C0
C0
C0
E0
C0
ENDCHAR
STARTCHAR uni04D0
ENCODING 1232
SWIDTH 668 0
DWIDTH 7 0
BBX 9 12 0 -1
BITMAP
0680
0300
0700
0A00
1200
7E00
A600
2600
6400
6400
4C00
4000
ENDCHAR
STARTCHAR uni04D1
ENCODING 1233
SWIDTH 526 0
DWIDTH 6 0
BBX 6 8 0 0
BITMAP
24
38
78
58
D8
D8
D4
F8
ENDCHAR
STARTCHAR uni04D2
ENCODING 1234
SWIDTH 668 0
DWIDTH 7 0
BBX 9 12 0 -1
BITMAP
0780
0000
0700
0A00
1200
7E00
A600
2600
6400
6400
4C00
4000
ENDCHAR
STARTCHAR uni04D3
ENCODING 1235
SWIDTH 526 0
DWIDTH 6 0
BBX 6 8 0 0
BITMAP
28
00
78
58
D8
D8
D4
F8
ENDCHAR
STARTCHAR uni04D4
ENCODING 1236
SWIDTH 764 0
DWIDTH 8 0
BBX 10 10 0 -1
BITMAP
0740
0A80
1200
7E00
A780
A600
6400
6400
4F80
4000
ENDCHAR
STARTCHAR uni04D5
ENCODING 1237
SWIDTH 650 0
DWIDTH 7 0
BBX 8 6 0 0
BITMAP
7E
1A
7A
DC
91
FE
ENDCHAR
STARTCHAR uni04D6
ENCODING 1238
SWIDTH 459 0
DWIDTH 5 0
BBX 6 11 0 0
BITMAP
34
18
38
28
68
20
70
C0
C0
C8
70
ENDCHAR
STARTCHAR uni04D7
ENCODING 1239
SWIDTH 384 0
DWIDTH 4 0
BBX 5 8 0 0
BITMAP
68
70
70
50
D0
E0
88
F0
ENDCHAR
STARTCHAR uni04D8
ENCODING 1240
SWIDTH 544 0
DWIDTH 6 0
BBX 6 9 0 0
BITMAP
38
4C
0C
0C
3C
6C
D8
D0
60
ENDCHAR
STARTCHAR uni04D9
ENCODING 1241
SWIDTH 404 0
DWIDTH 4 0
BBX 4 6 0 0
BITMAP
70
10
70
B0
B0
E0
ENDCHAR
STARTCHAR uni04DC
ENCODING 1244
SWIDTH 777 0
DWIDTH 9 0
BBX 10 11 -1 0
BITMAP
0500
0000
36C0
3740
0F00
0E00
3F00
2D80
2D00
6D00
E980
ENDCHAR
STARTCHAR uni04DD
ENCODING 1245
SWIDTH 882 0
DWIDTH 10 0
BBX 10 8 0 0
BITMAP
0A00
0000
6DC0
AF80
3E00
2A00
AA40
DB80
ENDCHAR
STARTCHAR uni04DE
ENCODING 1246
SWIDTH 525 0
DWIDTH 6 0
BBX 6 11 0 0
BITMAP
3C
00
38
48
18
30
18
18
98
98
F0
ENDCHAR
STARTCHAR uni04DF
ENCODING 1247
SWIDTH 498 0
DWIDTH 5 0
BBX 6 11 0 -3
BITMAP
28
00
70
58
98
90
64
38
70
B0
60
ENDCHAR
STARTCHAR uni04E2
ENCODING 1250
SWIDTH 705 0
DWIDTH 8 0
BBX 8 11 0 0
BITMAP
0F
00
33
53
B7
B6
3A
2E
36
66
64
ENDCHAR
STARTCHAR uni04E3
ENCODING 1251
SWIDTH 505 0
DWIDTH 6 0
BBX 6 8 0 0
BITMAP
78
00
58
D8
D8
D0
F4
D8
ENDCHAR
STARTCHAR uni04E4
ENCODING 1252
SWIDTH 705 0
DWIDTH 8 0
BBX 8 11 0 0
BITMAP
0A
00
33
53
B7
B6
3A
2E
36
66
64
ENDCHAR
STARTCHAR uni04E5
ENCODING 1253
SWIDTH 505 0
DWIDTH 6 0
BBX 6 8 0 0
BITMAP
28
00
58
D8
D8
D0
F4
D8
ENDCHAR
STARTCHAR uni04E6
ENCODING 1254
SWIDTH 665 0
DWIDTH 7 0
BBX 7 11 0 0
BITMAP
0A
00
3C
52
B2
A2
62
66
64
6C
38
ENDCHAR
STARTCHAR uni04E7
ENCODING 1255
SWIDTH 439 0
DWIDTH 5 0
BBX 6 8 0 0
BITMAP
28
00
70
54
D8
D0
90
E0
ENDCHAR
STARTCHAR uni04E8
ENCODING 1256
SWIDTH 665 0
DWIDTH 7 0
BBX 7 9 0 0
BITMAP
3C
5A
B2
A2
7E
66
64
6C
38
ENDCHAR
STARTCHAR uni04E9
ENCODING 1257
SWIDTH 439 0
DWIDTH 5 0
BBX 6 6 0 0
BITMAP
70
54
F8
D0
90
E0
ENDCHAR
STARTCHAR uni04EE
ENCODING 1262
SWIDTH 644 0
DWIDTH 7 0
BBX 8 11 0 0
BITMAP
0F
00
39
5A
9A
9A
0C
0C
08
28
30
ENDCHAR
STARTCHAR uni04EF
ENCODING 1263
SWIDTH 486 0
DWIDTH 5 0
BBX 6 11 0 -3
BITMAP
78
00
58
D8
D8
D0
F4
F8
70
B0
60
ENDCHAR
STARTCHAR uni04F0
ENCODING 1264
SWIDTH 644 0
DWIDTH 7 0
BBX 8 11 0 0
BITMAP
0F
00
39
5A
9A
9A
0C
0C
08
28
30
ENDCHAR
STARTCHAR uni04F1
ENCODING 1265
SWIDTH 486 0
DWIDTH 5 0
BBX 6 11 0 -3
BITMAP
28
00
58
D8
D8
D0
F4
F8
70
B0
60
ENDCHAR
STARTCHAR uni04F2
ENCODING 1266
SWIDTH 644 0
DWIDTH 7 0
BBX 8 12 0 0
BITMAP
05
0A
00
39
5A
9A
9A
0C
0C
08
28
30
ENDCHAR
STARTCHAR uni04F3
ENCODING 1267
SWIDTH 486 0
DWIDTH 5 0
BBX 6 12 0 -3
BITMAP
3C
38
00
58
D8
D8
D0
F4
F8
70
B0
60
ENDCHAR
STARTCHAR uni04F4
ENCODING 1268
SWIDTH 695 0
DWIDTH 8 0
BBX 8 11 0 0
BITMAP
0A
00
33
53
B2
B2
9A
06
06
06
04
ENDCHAR
STARTCHAR uni04F5
ENCODING 1269
SWIDTH 505 0
DWIDTH 6 0
BBX 6 8 0 0
BITMAP
38
00
58
D8
D8
F0
14
18
ENDCHAR
STARTCHAR uni04F6
ENCODING 1270
SWIDTH 442 0
DWIDTH 5 0
BBX 7 11 0 -2
BITMAP
7E
B0
B0
B0
30
20
20
60
60
38
10
ENDCHAR
STARTCHAR uni04F7
ENCODING 1271
SWIDTH 375 0
DWIDTH 4 0
BBX 5 9 0 -3
BITMAP
70
B0
60
C8
90
E0
40
40
40
ENDCHAR
STARTCHAR uni04F8
ENCODING 1272
SWIDTH 909 0
DWIDTH 10 0
BBX 10 11 0 0
BITMAP
0780
0000
3040
50C0
B0C0
B0C0
BC80
2680
2780
6580
7D80
ENDCHAR
STARTCHAR uni04F9
ENCODING 1273
SWIDTH 642 0
DWIDTH 7 0
BBX 8 8 0 0
BITMAP
3C
00
46
CC
F4
DC
9D
EE
ENDCHAR
STARTCHAR uni051A
ENCODING 1306
SWIDTH 665 0
DWIDTH 7 0
BBX 7 10 0 -1
BITMAP
3C
5A
B2
A2
22
66
66
7C
38
0E
ENDCHAR
STARTCHAR uni051B
ENCODING 1307
SWIDTH 486 0
DWIDTH 5 0
BBX 5 9 0 -3
BITMAP
78
58
D8
D8
90
F0
30
30
20
ENDCHAR
STARTCHAR uni051C
ENCODING 1308
SWIDTH 962 0
DWIDTH 11 0
BBX 11 9 0 0
BITMAP
3120
5320
9320
9340
1540
1540
1580
1980
1900
ENDCHAR
STARTCHAR uni051D
ENCODING 1309
SWIDTH 661 0
DWIDTH 7 0
BBX 7 6 0 0
BITMAP
5A
DA
DA
D2
F4
D8
ENDCHAR
STARTCHAR uni0524
ENCODING 1316
SWIDTH 742 0
DWIDTH 8 0
BBX 9 11 0 -2
BITMAP
7F80
B200
B600
B600
3600
2600
2400
6400
6C00
0700
0200
ENDCHAR
STARTCHAR uni0525
ENCODING 1317
SWIDTH 505 0
DWIDTH 6 0
BBX 6 9 0 -3
BITMAP
78
D8
D8
D0
94
98
10
18
10
ENDCHAR
STARTCHAR uni1E0C
ENCODING 7692
SWIDTH 663 0
DWIDTH 7 0
BBX 7 12 0 -3
BITMAP
3C
56
B2
B2
36
26
26
64
78
00
30
30
ENDCHAR
STARTCHAR uni1E0D
ENCODING 7693
SWIDTH 525 0
DWIDTH 6 0
BBX 6 11 0 -3
BITMAP
0C
08
78
58
D8
D8
94
F8
00
60
60
ENDCHAR
STARTCHAR uni1E20
ENCODING 7712
SWIDTH 578 0
DWIDTH 6 0
BBX 6 13 0 -2
BITMAP
1C
00
3C
64
44
C0
C4
CC
CC
78
68
58
70
ENDCHAR
STARTCHAR uni1E21
ENCODING 7713
SWIDTH 507 0
DWIDTH 6 0
BBX 6 11 0 -3
BITMAP
38
00
78
58
D8
D8
94
F8
30
70
60
ENDCHAR
STARTCHAR uni1E24
ENCODING 7716
SWIDTH 665 0
DWIDTH 7 0
BBX 8 12 0 -3
BITMAP
33
72
F2
B6
BE
26
24
64
6C
00
30
30
ENDCHAR
STARTCHAR uni1E25
ENCODING 7717
SWIDTH 505 0
DWIDTH 6 0
BBX 6 11 0 -3
BITMAP
60
40
70
D8
D8
D0
94
98
00
40
60
ENDCHAR
STARTCHAR uni1E2A
ENCODING 7722
SWIDTH 665 0
DWIDTH 7 0
BBX 8 12 0 -3
BITMAP
33
72
F2
B6
BE
26
24
64
6C
00
48
30
ENDCHAR
STARTCHAR uni1E2B
ENCODING 7723
SWIDTH 505 0
DWIDTH 6 0
BBX 6 11 0 -3
BITMAP
60
40
70
D8
D8
D0
94
98
00
90
E0
ENDCHAR
STARTCHAR uni1E36
ENCODING 7734
SWIDTH 379 0
DWIDTH 4 0
BBX 7 12 0 -3
BITMAP
30
70
B0
B0
20
20
60
60
60
18
4E
66
ENDCHAR
STARTCHAR uni1E37
ENCODING 7735
SWIDTH 293 0
DWIDTH 3 0
BBX 4 11 0 -3
BITMAP
60
60
60
40
40
C0
D0
E0
00
80
C0
ENDCHAR
STARTCHAR uni1E42
ENCODING 7746
SWIDTH 787 0
DWIDTH 9 0
BBX 8 12 1 -3
BITMAP
33
F3
B7
B6
76
7A
7E
B6
B6
00
20
30
ENDCHAR
STARTCHAR uni1E43
ENCODING 7747
SWIDTH 752 0
DWIDTH 8 0
BBX 9 9 0 -3
BITMAP
7E00
DA00
DA00
D200
9680
B300
0000
3000
3000
ENDCHAR
STARTCHAR uni1E44
ENCODING 7748
SWIDTH 668 0
DWIDTH 7 0
BBX 8 12 0 0
BITMAP
06
06
00
31
59
BA
BA
2A
2A
2E
4C
4C
ENDCHAR
STARTCHAR uni1E45
ENCODING 7749
SWIDTH 505 0
DWIDTH 6 0
BBX 6 9 0 0
BITMAP
30
10
00
70
D8
D8
D0
94
98
ENDCHAR
STARTCHAR uni1E46
ENCODING 7750
SWIDTH 668 0
DWIDTH 7 0
BBX 8 12 0 -3
BITMAP
31
59
BA
BA
2A
2A
2E
4C
4C
00
10
30
ENDCHAR
STARTCHAR uni1E47
ENCODING 7751
SWIDTH 505 0
DWIDTH 6 0
BBX 6 9 0 -3
BITMAP
70
D8
D8
D0
94
98
00
60
60
ENDCHAR
STARTCHAR uni1E5A
ENCODING 7770
SWIDTH 601 0
DWIDTH 7 0
BBX 6 12 0 -3
BITMAP
3C
54
B4
B4
BC
24
2C
6C
6C
00
30
30
ENDCHAR
STARTCHAR uni1E5B
ENCODING 7771
SWIDTH 376 0
DWIDTH 4 0
BBX 5 9 -1 -3
BITMAP
38
68
60
60
40
40
00
40
C0
ENDCHAR
STARTCHAR uni1E60
ENCODING 7776
SWIDTH 570 0
DWIDTH 6 0
BBX 6 12 0 0
BITMAP
08
08
00
3C
24
24
30
18
68
CC
C8
70
ENDCHAR
STARTCHAR uni1E61
ENCODING 7777
SWIDTH 382 0
DWIDTH 4 0
BBX 5 9 0 0
BITMAP
30
20
00
60
60
A0
A0
B8
E0
ENDCHAR
STARTCHAR uni1E62
ENCODING 7778
SWIDTH 570 0
DWIDTH 6 0
BBX 6 12 0 -3
BITMAP
3C
24
24
30
18
68
CC
C8
70
00
20
60
ENDCHAR
STARTCHAR uni1E63
ENCODING 7779
SWIDTH 382 0
DWIDTH 4 0
BBX 5 9 0 -3
BITMAP
60
60
A0
A0
B8
E0
00
C0
C0
ENDCHAR
STARTCHAR uni1E6C
ENCODING 7788
SWIDTH 481 0
DWIDTH 5 0
BBX 8 12 0 -3
BITMAP
39
5E
98
90
10
30
30
30
20
00
20
60
ENDCHAR
STARTCHAR uni1E6D
ENCODING 7789
SWIDTH 267 0
DWIDTH 3 0
BBX 4 11 -1 -3
BITMAP
30
20
70
20
60
60
70
60
00
40
C0
ENDCHAR
STARTCHAR Wgrave
ENCODING 7808
SWIDTH 962 0
DWIDTH 11 0
BBX 11 12 0 0
BITMAP
0300
0100
0000
3120
5320
9320
9340
1540
1540
1580
1980
1900
ENDCHAR
STARTCHAR wgrave
ENCODING 7809
SWIDTH 661 0
DWIDTH 7 0
BBX 7 9 0 0
BITMAP
10
10
00
5A
DA
DA
D2
F4
D8
ENDCHAR
STARTCHAR Wacute
ENCODING 7810
SWIDTH 962 0
DWIDTH 11 0
BBX 11 12 0 0
BITMAP
0080
0080
0100
3120
5320
9320
9340
1540
1540
1580
1980
1900
ENDCHAR
STARTCHAR wacute
ENCODING 7811
SWIDTH 661 0
DWIDTH 7 0
BBX 7 9 0 0
BITMAP
04
08
00
5A
DA
DA
D2
F4
D8
ENDCHAR
STARTCHAR Wdieresis
ENCODING 7812
SWIDTH 962 0
DWIDTH 11 0
BBX 11 11 0 0
BITMAP
0280
0000
3120
5320
9320
9340
1540
1540
1580
1980
1900
ENDCHAR
STARTCHAR wdieresis
ENCODING 7813
SWIDTH 661 0
DWIDTH 7 0
BBX 7 8 0 0
BITMAP
3C
00
5A
DA
DA
D2
F4
D8
ENDCHAR
STARTCHAR uni1E8E
ENCODING 7822
SWIDTH 620 0
DWIDTH 7 0
BBX 8 12 0 0
BITMAP
04
06
00
31
5A
9A
9C
0C
0C
08
18
18
ENDCHAR
STARTCHAR uni1E8F
ENCODING 7823
SWIDTH 505 0
DWIDTH 6 0
BBX 6 12 0 -3
BITMAP
30
10
00
58
D8
D8
D0
F4
F8
70
B0
60
ENDCHAR
STARTCHAR uni1E92
ENCODING 7826
SWIDTH 542 0
DWIDTH 6 0
BBX 6 15 0 -3
BITMAP
04
08
08
7C
48
18
10
30
30
60
6C
F8
00
20
60
ENDCHAR
STARTCHAR uni1E93
ENCODING 7827
SWIDTH 428 0
DWIDTH 5 0
BBX 5 9 0 -3
BITMAP
78
70
20
60
50
F0
00
40
C0
ENDCHAR
STARTCHAR uni1E97
ENCODING 7831
SWIDTH 267 0
DWIDTH 3 0
BBX 4 9 0 0
BITMAP
70
20
40
E0
40
C0
C0
E0
C0
ENDCHAR
STARTCHAR uni1E9E
ENCODING 7838
SWIDTH 559 0
DWIDTH 6 0
BBX 8 12 -1 -3
BITMAP
1F
16
34
3C
2C
24
66
64
7C
40
40
80
ENDCHAR
STARTCHAR uni1EA0
ENCODING 7840
SWIDTH 668 0
DWIDTH 7 0
BBX 8 12 0 -3
BITMAP
03
06
0A
12
7E
A6
24
64
4C
40
58
18
ENDCHAR
STARTCHAR uni1EA1
ENCODING 7841
SWIDTH 526 0
DWIDTH 6 0
BBX 6 9 0 -3
BITMAP
78
58
D8
D8
D4
F8
00
60
60
ENDCHAR
STARTCHAR uni1EA2
ENCODING 7842
SWIDTH 668 0
DWIDTH 7 0
BBX 8 13 0 -1
BITMAP
03
01
02
07
0A
12
7E
A6
26
64
64
4C
40
ENDCHAR
STARTCHAR uni1EA3
ENCODING 7843
SWIDTH 526 0
DWIDTH 6 0
BBX 6 9 0 0
BITMAP
18
10
00
78
58
D8
D8
D4
F8
ENDCHAR
STARTCHAR uni1EA4
ENCODING 7844
SWIDTH 668 0
DWIDTH 7 0
BBX 9 13 0 -1
BITMAP
0080
0380
0500
0700
0A00
1200
7E00
A600
2600
6400
6400
4C00
4000
ENDCHAR
STARTCHAR uni1EA5
ENCODING 7845
SWIDTH 526 0
DWIDTH 6 0
BBX 7 11 0 0
BITMAP
02
04
10
38
00
78
58
D8
D8
D4
F8
ENDCHAR
STARTCHAR uni1EA6
ENCODING 7846
SWIDTH 668 0
DWIDTH 7 0
BBX 9 13 0 -1
BITMAP
0080
0380
0400
0700
0A00
1200
7E00
A600
2600
6400
6400
4C00
4000
ENDCHAR
STARTCHAR uni1EA7
ENCODING 7847
SWIDTH 526 0
DWIDTH 6 0
BBX 6 10 0 0
BITMAP
04
14
38
00
78
58
D8
D8
D4
F8
ENDCHAR
STARTCHAR uni1EA8
ENCODING 7848
SWIDTH 668 0
DWIDTH 7 0
BBX 9 13 0 -1
BITMAP
0080
0380
0400
0700
0A00
1200
7E00
A600
2600
6400
6400
4C00
4000
ENDCHAR
STARTCHAR uni1EA9
ENCODING 7849
SWIDTH 526 0
DWIDTH 6 0
BBX 6 10 0 0
BITMAP
04
14
28
00
78
58
D8
D8
D4
F8
ENDCHAR
STARTCHAR uni1EAA
ENCODING 7850
SWIDTH 668 0
DWIDTH 7 0
BBX 9 13 0 -1
BITMAP
0380
0300
0500
0700
0A00
1200
7E00
A600
2600
6400
6400
4C00
4000
ENDCHAR
STARTCHAR uni1EAB
ENCODING 7851
SWIDTH 526 0
DWIDTH 6 0
BBX 6 10 0 0
BITMAP
1C
10
38
00
78
58
D8
D8
D4
F8
ENDCHAR
STARTCHAR uni1EAC
ENCODING 7852
SWIDTH 668 0
DWIDTH 7 0
BBX 8 15 0 -3
BITMAP
01
03
05
03
06
0A
12
7E
A6
24
64
4C
40
58
18
ENDCHAR
STARTCHAR uni1EAD
ENCODING 7853
SWIDTH 526 0
DWIDTH 6 0
BBX 6 12 0 -3
BITMAP
10
38
00
78
58
D8
D8
D4
F8
00
60
60
ENDCHAR
STARTCHAR uni1EAE
ENCODING 7854
SWIDTH 668 0
DWIDTH 7 0
BBX 9 13 0 -1
BITMAP
0100
0580
0300
0700
0A00
1200
7E00
A600
2600
6400
6400
4C00
4000
ENDCHAR
STARTCHAR uni1EAF
ENCODING 7855
SWIDTH 526 0
DWIDTH 6 0
BBX 6 10 0 0
BITMAP
08
10
38
00
78
58
D8
D8
D4
F8
ENDCHAR
STARTCHAR uni1EB0
ENCODING 7856
SWIDTH 668 0
DWIDTH 7 0
BBX 9 13 0 -1
BITMAP
0200
0580
0300
0700
0A00
1200
7E00
A600
2600
6400
6400
4C00
4000
ENDCHAR
STARTCHAR uni1EB1
ENCODING 7857
SWIDTH 526 0
DWIDTH 6 0
BBX 6 10 0 0
BITMAP
10
10
38
00
78
58
D8
D8
D4
F8
ENDCHAR
STARTCHAR uni1EB2
ENCODING 7858
SWIDTH 668 0
DWIDTH 7 0
BBX 9 13 0 -1
BITMAP
0300
0580
0300
0700
0A00
1200
7E00
A600
2600
6400
6400
4C00
4000
ENDCHAR
STARTCHAR uni1EB3
ENCODING 7859
SWIDTH 526 0
DWIDTH 6 0
BBX 6 10 0 0
BITMAP
18
10
38
00
78
58
D8
D8
D4
F8
ENDCHAR
STARTCHAR uni1EB4
ENCODING 7860
SWIDTH 668 0
DWIDTH 7 0
BBX 9 13 0 -1
BITMAP
0380
0480
0300
0700
0A00
1200
7E00
A600
2600
6400
6400
4C00
4000
ENDCHAR
STARTCHAR uni1EB5
ENCODING 7861
SWIDTH 526 0
DWIDTH 6 0
BBX 6 10 0 0
BITMAP
1C
00
38
00
78
58
D8
D8
D4
F8
ENDCHAR
STARTCHAR uni1EB6
ENCODING 7862
SWIDTH 668 0
DWIDTH 7 0
BBX 9 14 0 -3
BITMAP
0480
0300
0300
0600
0A00
1200
7E00
A600
2400
6400
4C00
4000
5800
1800
ENDCHAR
STARTCHAR uni1EB7
ENCODING 7863
SWIDTH 526 0
DWIDTH 6 0
BBX 6 12 0 -3
BITMAP
24
28
30
78
58
D8
D8
D4
F8
00
60
60
ENDCHAR
STARTCHAR uni1EB8
ENCODING 7864
SWIDTH 459 0
DWIDTH 5 0
BBX 5 12 0 -3
BITMAP
38
28
68
20
70
C0
C0
C8
70
00
40
60
ENDCHAR
STARTCHAR uni1EB9
ENCODING 7865
SWIDTH 384 0
DWIDTH 4 0
BBX 5 9 0 -3
BITMAP
70
50
D0
E0
88
F0
00
C0
C0
ENDCHAR
STARTCHAR uni1EBA
ENCODING 7866
SWIDTH 459 0
DWIDTH 5 0
BBX 5 12 0 0
BITMAP
18
08
00
38
28
68
20
70
C0
C0
C8
70
ENDCHAR
STARTCHAR uni1EBB
ENCODING 7867
SWIDTH 384 0
DWIDTH 4 0
BBX 5 9 0 0
BITMAP
30
20
00
70
50
D0
E0
88
F0
ENDCHAR
STARTCHAR uni1EBC
ENCODING 7868
SWIDTH 459 0
DWIDTH 5 0
BBX 7 11 0 0
BITMAP
3E
00
38
28
68
20
70
C0
C0
C8
70
ENDCHAR
STARTCHAR uni1EBD
ENCODING 7869
SWIDTH 384 0
DWIDTH 4 0
BBX 5 8 0 0
BITMAP
78
00
70
50
D0
E0
88
F0
ENDCHAR
STARTCHAR uni1EBE
ENCODING 7870
SWIDTH 459 0
DWIDTH 5 0
BBX 7 12 0 0
BITMAP
0A
14
00
38
28
68
20
70
C0
C0
C8
70
ENDCHAR
STARTCHAR uni1EBF
ENCODING 7871
SWIDTH 384 0
DWIDTH 4 0
BBX 6 11 0 0
BITMAP
04
04
18
30
40
70
50
D0
E0
88
F0
ENDCHAR
STARTCHAR uni1EC0
ENCODING 7872
SWIDTH 459 0
DWIDTH 5 0
BBX 6 12 0 0
BITMAP
04
0C
10
38
28
68
20
70
C0
C0
C8
70
ENDCHAR
STARTCHAR uni1EC1
ENCODING 7873
SWIDTH 384 0
DWIDTH 4 0
BBX 5 10 0 0
BITMAP
08
18
30
40
70
50
D0
E0
88
F0
ENDCHAR
STARTCHAR uni1EC2
ENCODING 7874
SWIDTH 459 0
DWIDTH 5 0
BBX 7 12 0 0
BITMAP
06
0A
10
38
28
68
20
70
C0
C0
C8
70
ENDCHAR
STARTCHAR uni1EC3
ENCODING 7875
SWIDTH 384 0
DWIDTH 4 0
BBX 6 10 0 0
BITMAP
0C
18
30
40
70
50
D0
E0
88
F0
ENDCHAR
STARTCHAR uni1EC4
ENCODING 7876
SWIDTH 459 0
DWIDTH 5 0
BBX 6 12 0 0
BITMAP
1C
18
00
38
28
68
20
70
C0
C0
C8
70
ENDCHAR
STARTCHAR uni1EC5
ENCODING 7877
SWIDTH 384 0
DWIDTH 4 0
BBX 5 10 0 0
BITMAP
38
10
30
40
70
50
D0
E0
88
F0
ENDCHAR
STARTCHAR uni1EC6
ENCODING 7878
SWIDTH 459 0
DWIDTH 5 0
BBX 5 15 0 -3
BITMAP
08
18
28
38
28
68
20
70
C0
C0
C8
70
00
40
60
ENDCHAR
STARTCHAR uni1EC7
ENCODING 7879
SWIDTH 384 0
DWIDTH 4 0
BBX 5 12 0 -3
BITMAP
10
30
40
70
50
D0
E0
88
F0
00
C0
C0
ENDCHAR
STARTCHAR uni1EC8
ENCODING 7880
SWIDTH 375 0
DWIDTH 4 0
BBX 5 12 0 0
BITMAP
18
08
10
30
50
B0
B0
20
20
20
60
60
ENDCHAR
STARTCHAR uni1EC9
ENCODING 7881
SWIDTH 267 0
DWIDTH 3 0
BBX 3 9 0 0
BITMAP
60
40
00
40
C0
C0
C0
E0
C0
ENDCHAR
STARTCHAR uni1ECA
ENCODING 7882
SWIDTH 375 0
DWIDTH 4 0
BBX 4 12 0 -3
BITMAP
30
50
B0
B0
20
20
20
60
60
00
40
40
ENDCHAR
STARTCHAR uni1ECB
ENCODING 7883
SWIDTH 267 0
DWIDTH 3 0
BBX 4 11 -1 -3
BITMAP
30
30
20
60
60
60
70
60
00
40
C0
ENDCHAR
STARTCHAR uni1ECC
ENCODING 7884
SWIDTH 665 0
DWIDTH 7 0
BBX 7 12 0 -3
BITMAP
3C
52
B2
A2
62
66
64
6C
38
00
30
30
ENDCHAR
STARTCHAR uni1ECD
ENCODING 7885
SWIDTH 433 0
DWIDTH 5 0
BBX 6 9 0 -3
BITMAP
70
D4
D8
90
90
E0
00
C0
C0
ENDCHAR
STARTCHAR uni1ECE
ENCODING 7886
SWIDTH 665 0
DWIDTH 7 0
BBX 7 12 0 0
BITMAP
0C
02
0C
3C
52
B2
A2
62
66
64
6C
38
ENDCHAR
STARTCHAR uni1ECF
ENCODING 7887
SWIDTH 433 0
DWIDTH 5 0
BBX 6 9 0 0
BITMAP
30
10
00
70
D4
D8
90
90
E0
ENDCHAR
STARTCHAR uni1ED0
ENCODING 7888
SWIDTH 665 0
DWIDTH 7 0
BBX 8 12 0 0
BITMAP
07
0E
12
3C
52
B2
A2
62
66
64
6C
38
ENDCHAR
STARTCHAR uni1ED1
ENCODING 7889
SWIDTH 433 0
DWIDTH 5 0
BBX 6 11 0 0
BITMAP
04
04
18
30
40
70
D4
D8
90
90
E0
ENDCHAR
STARTCHAR uni1ED2
ENCODING 7890
SWIDTH 665 0
DWIDTH 7 0
BBX 7 12 0 0
BITMAP
02
0E
00
3C
52
B2
A2
62
66
64
6C
38
ENDCHAR
STARTCHAR uni1ED3
ENCODING 7891
SWIDTH 433 0
DWIDTH 5 0
BBX 6 10 0 0
BITMAP
08
18
30
40
70
D4
D8
90
90
E0
ENDCHAR
STARTCHAR uni1ED4
ENCODING 7892
SWIDTH 665 0
DWIDTH 7 0
BBX 8 12 0 0
BITMAP
03
05
08
3C
52
B2
A2
62
66
64
6C
38
ENDCHAR
STARTCHAR uni1ED5
ENCODING 7893
SWIDTH 433 0
DWIDTH 5 0
BBX 6 10 0 0
BITMAP
0C
18
30
40
70
D4
D8
90
90
E0
ENDCHAR
STARTCHAR uni1ED6
ENCODING 7894
SWIDTH 665 0
DWIDTH 7 0
BBX 7 12 0 0
BITMAP
0E
0C
12
3C
52
B2
A2
62
66
64
6C
38
ENDCHAR
STARTCHAR uni1ED7
ENCODING 7895
SWIDTH 433 0
DWIDTH 5 0
BBX 6 10 0 0
BITMAP
38
10
30
40
70
D4
D8
90
90
E0
ENDCHAR
STARTCHAR uni1ED8
ENCODING 7896
SWIDTH 665 0
DWIDTH 7 0
BBX 7 15 0 -3
BITMAP
04
0C
12
3C
52
B2
A2
62
66
64
6C
38
00
30
30
ENDCHAR
STARTCHAR uni1ED9
ENCODING 7897
SWIDTH 433 0
DWIDTH 5 0
BBX 6 12 0 -3
BITMAP
10
30
40
70
D4
D8
90
90
E0
00
C0
C0
ENDCHAR
STARTCHAR uni1EDA
ENCODING 7898
SWIDTH 665 0
DWIDTH 7 0
BBX 8 12 0 0
BITMAP
06
05
09
3D
52
B2
A2
62
66
64
6C
38
ENDCHAR
STARTCHAR uni1EDB
ENCODING 7899
SWIDTH 439 0
DWIDTH 5 0
BBX 5 9 0 0
BITMAP
18
18
28
78
50
D0
D0
D0
E0
ENDCHAR
STARTCHAR uni1EDC
ENCODING 7900
SWIDTH 665 0
DWIDTH 7 0
BBX 8 12 0 0
BITMAP
18
09
01
3D
52
B2
A2
62
66
64
6C
38
ENDCHAR
STARTCHAR uni1EDD
ENCODING 7901
SWIDTH 439 0
DWIDTH 5 0
BBX 5 9 0 0
BITMAP
20
28
08
78
50
D0
D0
D0
E0
ENDCHAR
STARTCHAR uni1EDE
ENCODING 7902
SWIDTH 665 0
DWIDTH 7 0
BBX 8 12 0 0
BITMAP
0C
02
0D
3D
52
B2
A2
62
66
64
6C
38
ENDCHAR
STARTCHAR uni1EDF
ENCODING 7903
SWIDTH 439 0
DWIDTH 5 0
BBX 5 9 0 0
BITMAP
30
18
08
78
50
D0
D0
D0
E0
ENDCHAR
STARTCHAR uni1EE0
ENCODING 7904
SWIDTH 665 0
DWIDTH 7 0
BBX 8 11 0 0
BITMAP
1F
09
3D
52
B2
A2
62
66
64
6C
38
ENDCHAR
STARTCHAR uni1EE1
ENCODING 7905
SWIDTH 439 0
DWIDTH 5 0
BBX 5 8 0 0
BITMAP
78
08
78
50
D0
D0
D0
E0
ENDCHAR
STARTCHAR uni1EE2
ENCODING 7906
SWIDTH 665 0
DWIDTH 7 0
BBX 8 13 0 -3
BITMAP
01
3D
52
B2
A2
62
66
64
6C
38
00
30
30
ENDCHAR
STARTCHAR uni1EE3
ENCODING 7907
SWIDTH 439 0
DWIDTH 5 0
BBX 5 11 0 -3
BITMAP
08
08
78
50
D0
D0
D0
E0
00
C0
C0
ENDCHAR
STARTCHAR uni1EE4
ENCODING 7908
SWIDTH 716 0
DWIDTH 8 0
BBX 8 12 0 -3
BITMAP
39
53
93
B3
32
22
26
24
3C
00
10
10
ENDCHAR
STARTCHAR uni1EE5
ENCODING 7909
SWIDTH 505 0
DWIDTH 6 0
BBX 6 9 0 -3
BITMAP
58
D8
D8
D0
F4
D8
00
40
60
ENDCHAR
STARTCHAR uni1EE6
ENCODING 7910
SWIDTH 716 0
DWIDTH 8 0
BBX 8 12 0 0
BITMAP
06
02
04
39
53
93
B3
32
22
26
24
3C
ENDCHAR
STARTCHAR uni1EE7
ENCODING 7911
SWIDTH 505 0
DWIDTH 6 0
BBX 6 9 0 0
BITMAP
30
20
00
58
D8
D8
D0
F4
D8
ENDCHAR
STARTCHAR uni1EE8
ENCODING 7912
SWIDTH 716 0
DWIDTH 8 0
BBX 10 12 0 0
BITMAP
0300
02C0
0480
3980
5300
9300
B300
3200
2200
2600
2400
3C00
ENDCHAR
STARTCHAR uni1EE9
ENCODING 7913
SWIDTH 505 0
DWIDTH 6 0
BBX 6 9 0 0
BITMAP
18
14
04
58
D8
D8
D0
F4
D8
ENDCHAR
STARTCHAR uni1EEA
ENCODING 7914
SWIDTH 716 0
DWIDTH 8 0
BBX 10 12 0 0
BITMAP
0C00
04C0
0080
3900
5300
9300
B300
3200
2200
2600
2400
3C00
ENDCHAR
STARTCHAR uni1EEB
ENCODING 7915
SWIDTH 505 0
DWIDTH 6 0
BBX 6 9 0 0
BITMAP
20
24
14
58
D8
D8
D0
F4
D8
ENDCHAR
STARTCHAR uni1EEC
ENCODING 7916
SWIDTH 716 0
DWIDTH 8 0
BBX 10 12 0 0
BITMAP
0600
02C0
0480
3980
5300
9300
B300
3200
2200
2600
2600
3C00
ENDCHAR
STARTCHAR uni1EED
ENCODING 7917
SWIDTH 505 0
DWIDTH 6 0
BBX 6 9 0 0
BITMAP
30
24
04
58
D8
D8
D0
F4
D8
ENDCHAR
STARTCHAR uni1EEE
ENCODING 7918
SWIDTH 716 0
DWIDTH 8 0
BBX 10 11 0 0
BITMAP
0FC0
0280
3980
5300
9300
B300
3200
2200
2600
2400
3C00
ENDCHAR
STARTCHAR uni1EEF
ENCODING 7919
SWIDTH 505 0
DWIDTH 6 0
BBX 6 8 0 0
BITMAP
7C
04
58
D8
D8
D0
F4
D8
ENDCHAR
STARTCHAR uni1EF0
ENCODING 7920
SWIDTH 716 0
DWIDTH 8 0
BBX 10 14 0 -3
BITMAP
0040
00C0
3980
5300
9300
B300
3200
2200
2600
2600
3C00
0000
1000
1000
ENDCHAR
STARTCHAR uni1EF1
ENCODING 7921
SWIDTH 505 0
DWIDTH 6 0
BBX 6 11 0 -3
BITMAP
04
04
58
D8
D8
D0
F4
D8
00
40
60
ENDCHAR
STARTCHAR Ygrave
ENCODING 7922
SWIDTH 620 0
DWIDTH 7 0
BBX 8 12 0 0
BITMAP
04
04
00
31
5A
9A
9C
0C
0C
08
18
18
ENDCHAR
STARTCHAR ygrave
ENCODING 7923
SWIDTH 505 0
DWIDTH 6 0
BBX 6 12 0 -3
BITMAP
20
20
00
58
D8
D8
D0
F4
F8
70
B0
60
ENDCHAR
STARTCHAR uni1EF4
ENCODING 7924
SWIDTH 620 0
DWIDTH 7 0
BBX 8 12 0 -3
BITMAP
31
5A
9A
9C
0C
0C
08
18
18
00
10
18
ENDCHAR
STARTCHAR uni1EF5
ENCODING 7925
SWIDTH 505 0
DWIDTH 6 0
BBX 6 9 0 -3
BITMAP
58
D8
D8
D0
F4
F8
70
B8
68
ENDCHAR
STARTCHAR uni1EF6
ENCODING 7926
SWIDTH 620 0
DWIDTH 7 0
BBX 8 12 0 0
BITMAP
06
02
04
31
5A
9A
9C
0C
0C
08
18
18
ENDCHAR
STARTCHAR uni1EF7
ENCODING 7927
SWIDTH 505 0
DWIDTH 6 0
BBX 6 12 0 -3
BITMAP
30
20
00
58
D8
D8
D0
F4
F8
70
B0
60
ENDCHAR
STARTCHAR uni1EF8
ENCODING 7928
SWIDTH 620 0
DWIDTH 7 0
BBX 8 11 0 0
BITMAP
0F
12
31
5A
9A
9C
0C
0C
08
18
18
ENDCHAR
STARTCHAR uni1EF9
ENCODING 7929
SWIDTH 505 0
DWIDTH 6 0
BBX 6 11 0 -3
BITMAP
78
00
58
D8
D8
D0
F4
F8
70
B0
60
ENDCHAR
STARTCHAR uni2010
ENCODING 8208
SWIDTH 290 0
DWIDTH 3 0
BBX 3 1 0 3
BITMAP
E0
ENDCHAR
STARTCHAR endash
ENCODING 8211
SWIDTH 352 0
DWIDTH 4 0
BBX 3 1 0 3
BITMAP
E0
ENDCHAR
STARTCHAR emdash
ENCODING 8212
SWIDTH 444 0
DWIDTH 5 0
BBX 4 1 0 3
BITMAP
F0
ENDCHAR
STARTCHAR quoteleft
ENCODING 8216
SWIDTH 209 0
DWIDTH 2 0
BBX 2 3 1 6
BITMAP
40
80
C0
ENDCHAR
STARTCHAR quoteright
ENCODING 8217
SWIDTH 238 0
DWIDTH 3 0
BBX 2 3 1 6
BITMAP
C0
80
80
ENDCHAR
STARTCHAR quotesinglbase
ENCODING 8218
SWIDTH 220 0
DWIDTH 2 0
BBX 1 3 0 -1
BITMAP
80
80
80
ENDCHAR
STARTCHAR quotedblleft
ENCODING 8220
SWIDTH 429 0
DWIDTH 5 0
BBX 4 3 1 6
BITMAP
50
A0
F0
ENDCHAR
STARTCHAR quotedblright
ENCODING 8221
SWIDTH 426 0
DWIDTH 5 0
BBX 4 3 1 6
BITMAP
F0
50
A0
ENDCHAR
STARTCHAR quotedblbase
ENCODING 8222
SWIDTH 440 0
DWIDTH 5 0
BBX 4 3 0 -1
BITMAP
B0
A0
A0
ENDCHAR
STARTCHAR dagger
ENCODING 8224
SWIDTH 495 0
DWIDTH 5 0
BBX 4 12 1 -3
BITMAP
20
20
20
20
F0
40
40
40
40
80
80
80
ENDCHAR
STARTCHAR daggerdbl
ENCODING 8225
SWIDTH 495 0
DWIDTH 5 0
BBX 5 12 0 -3
BITMAP
10
10
10
10
78
20
20
F8
20
40
40
40
ENDCHAR
STARTCHAR bullet
ENCODING 8226
SWIDTH 434 0
DWIDTH 5 0
BBX 2 2 1 2
BITMAP
C0
C0
ENDCHAR
STARTCHAR ellipsis
ENCODING 8230
SWIDTH 702 0
DWIDTH 8 0
BBX 7 2 0 0
BITMAP
52
DA
ENDCHAR
STARTCHAR perthousand
ENCODING 8240
SWIDTH 1175 0
DWIDTH 13 0
BBX 12 9 1 0
BITMAP
6400
A400
A800
A800
B670
DD50
2990
2AA0
4E60
ENDCHAR
STARTCHAR minute
ENCODING 8242
SWIDTH 196 0
DWIDTH 2 0
BBX 2 3 1 6
BITMAP
C0
80
80
ENDCHAR
STARTCHAR second
ENCODING 8243
SWIDTH 341 0
DWIDTH 4 0
BBX 3 3 1 6
BITMAP
E0
A0
C0
ENDCHAR
STARTCHAR guilsinglleft
ENCODING 8249
SWIDTH 359 0
DWIDTH 4 0
BBX 4 4 0 1
BITMAP
10
60
C0
20
ENDCHAR
STARTCHAR guilsinglright
ENCODING 8250
SWIDTH 344 0
DWIDTH 4 0
BBX 4 4 0 1
BITMAP
40
20
30
C0
ENDCHAR
STARTCHAR fraction
ENCODING 8260
SWIDTH 248 0
DWIDTH 3 0
BBX 5 9 -1 0
BITMAP
08
08
10
10
20
20
40
40
80
ENDCHAR
STARTCHAR uni2052
ENCODING 8274
SWIDTH 796 0
DWIDTH 9 0
BBX 5 9 2 0
BITMAP
88
88
10
10
20
20
40
48
98
ENDCHAR
STARTCHAR uni2070
ENCODING 8304
SWIDTH 379 0
DWIDTH 4 0
BBX 3 6 1 3
BITMAP
60
A0
A0
A0
A0
C0
ENDCHAR
STARTCHAR uni2074
ENCODING 8308
SWIDTH 352 0
DWIDTH 4 0
BBX 3 5 1 4
BITMAP
A0
C0
E0
40
40
ENDCHAR
STARTCHAR uni2075
ENCODING 8309
SWIDTH 335 0
DWIDTH 4 0
BBX 3 6 1 3
BITMAP
E0
80
C0
E0
C0
C0
ENDCHAR
STARTCHAR uni2076
ENCODING 8310
SWIDTH 351 0
DWIDTH 4 0
BBX 3 6 1 3
BITMAP
60
A0
C0
A0
C0
C0
ENDCHAR
STARTCHAR uni2077
ENCODING 8311
SWIDTH 329 0
DWIDTH 4 0
BBX 3 5 1 4
BITMAP
E0
40
80
80
80
ENDCHAR
STARTCHAR uni2078
ENCODING 8312
SWIDTH 354 0
DWIDTH 4 0
BBX 3 6 1 3
BITMAP
60
A0
40
C0
A0
C0
ENDCHAR
STARTCHAR uni2079
ENCODING 8313
SWIDTH 345 0
DWIDTH 4 0
BBX 3 6 1 3
BITMAP
C0
A0
A0
A0
C0
80
ENDCHAR
STARTCHAR uni2080
ENCODING 8320
SWIDTH 379 0
DWIDTH 4 0
BBX 3 5 1 0
BITMAP
60
A0
A0
A0
C0
ENDCHAR
STARTCHAR uni2081
ENCODING 8321
SWIDTH 229 0
DWIDTH 3 0
BBX 2 5 0 0
BITMAP
40
40
40
40
C0
ENDCHAR
STARTCHAR uni2082
ENCODING 8322
SWIDTH 328 0
DWIDTH 4 0
BBX 3 5 1 0
BITMAP
C0
E0
40
80
C0
ENDCHAR
STARTCHAR uni2083
ENCODING 8323
SWIDTH 336 0
DWIDTH 4 0
BBX 3 5 1 0
BITMAP
C0
A0
40
E0
C0
ENDCHAR
STARTCHAR uni2084
ENCODING 8324
SWIDTH 352 0
DWIDTH 4 0
BBX 3 5 1 0
BITMAP
A0
C0
E0
40
40
ENDCHAR
STARTCHAR uni2085
ENCODING 8325
SWIDTH 335 0
DWIDTH 4 0
BBX 3 5 1 0
BITMAP
E0
80
C0
E0
C0
ENDCHAR
STARTCHAR uni2086
ENCODING 8326
SWIDTH 351 0
DWIDTH 4 0
BBX 3 5 1 0
BITMAP
60
A0
C0
A0
C0
ENDCHAR
STARTCHAR uni2087
ENCODING 8327
SWIDTH 329 0
DWIDTH 4 0
BBX 3 5 1 0
BITMAP
E0
40
80
80
80
ENDCHAR
STARTCHAR uni2088
ENCODING 8328
SWIDTH 354 0
DWIDTH 4 0
BBX 3 5 1 0
BITMAP
E0
A0
40
A0
C0
ENDCHAR
STARTCHAR uni2089
ENCODING 8329
SWIDTH 345 0
DWIDTH 4 0
BBX 3 5 1 0
BITMAP
C0
A0
A0
40
C0
ENDCHAR
STARTCHAR colonmonetary
ENCODING 8353
SWIDTH 384 0
DWIDTH 4 0
BBX 5 8 0 0
BITMAP
30
30
58
C0
80
C0
70
60
ENDCHAR
STARTCHAR franc
ENCODING 8355
SWIDTH 529 0
DWIDTH 6 0
BBX 6 9 0 0
BITMAP
3C
30
30
30
38
20
F8
60
60
ENDCHAR
STARTCHAR lira
ENCODING 8356
SWIDTH 455 0
DWIDTH 5 0
BBX 6 9 0 0
BITMAP
1C
3C
20
F8
60
F0
60
44
F8
ENDCHAR
STARTCHAR uni20A6
ENCODING 8358
SWIDTH 723 0
DWIDTH 8 0
BBX 9 9 0 0
BITMAP
1100
1900
3A00
3A00
FF80
FF00
6E00
4C00
4C00
ENDCHAR
STARTCHAR uni20A9
ENCODING 8361
SWIDTH 841 0
DWIDTH 9 0
BBX 10 9 0 0
BITMAP
6640
6640
2680
2E80
FFC0
FFC0
3700
3600
2200
ENDCHAR
STARTCHAR Euro
ENCODING 8364
SWIDTH 507 0
DWIDTH 6 0
BBX 7 9 0 0
BITMAP
1C
36
24
F8
60
F8
60
64
38
ENDCHAR
STARTCHAR uni20AE
ENCODING 8366
SWIDTH 481 0
DWIDTH 5 0
BBX 8 9 0 0
BITMAP
39
5E
98
90
1C
7C
F0
30
20
ENDCHAR
STARTCHAR uni20B3
ENCODING 8371
SWIDTH 573 0
DWIDTH 6 0
BBX 7 9 0 0
BITMAP
3C
54
B6
B4
34
78
78
60
60
ENDCHAR
STARTCHAR uni20B4
ENCODING 8372
SWIDTH 570 0
DWIDTH 6 0
BBX 6 9 0 0
BITMAP
3C
4C
48
7C
FC
40
D8
CC
78
ENDCHAR
STARTCHAR uni20B8
ENCODING 8376
SWIDTH 522 0
DWIDTH 6 0
BBX 8 9 0 0
BITMAP
7F
39
5F
98
98
50
10
30
30
ENDCHAR
STARTCHAR uni20B9
ENCODING 8377
SWIDTH 544 0
DWIDTH 6 0
BBX 5 9 1 0
BITMAP
F8
F8
10
20
C0
20
20
60
60
ENDCHAR
STARTCHAR uni20BA
ENCODING 8378
SWIDTH 455 0
DWIDTH 5 0
BBX 6 9 0 0
BITMAP
30
30
38
E8
38
64
64
68
70
ENDCHAR
STARTCHAR uni20BD
ENCODING 8381
SWIDTH 573 0
DWIDTH 6 0
BBX 7 9 0 0
BITMAP
3C
54
B6
B4
34
78
F0
60
60
ENDCHAR
STARTCHAR uni2116
ENCODING 8470
SWIDTH 996 0
DWIDTH 11 0
BBX 11 9 0 0
BITMAP
3100
5960
BAA0
BAA0
2AC0
2BC0
2E00
4C00
4C00
ENDCHAR
STARTCHAR uni2120
ENCODING 8480
SWIDTH 585 0
DWIDTH 6 0
BBX 5 4 1 4
BITMAP
40
58
F8
D8
ENDCHAR
STARTCHAR trademark
ENCODING 8482
SWIDTH 379 0
DWIDTH 4 0
BBX 4 3 0 5
BITMAP
F0
B0
B0
ENDCHAR
STARTCHAR uni2126
ENCODING 8486
SWIDTH 745 0
DWIDTH 8 0
BBX 8 9 0 0
BITMAP
0E
32
21
41
41
42
42
24
EE
ENDCHAR
STARTCHAR uni212A
ENCODING 8490
SWIDTH 601 0
DWIDTH 7 0
BBX 7 9 0 0
BITMAP
32
54
B4
B8
BC
24
2C
6C
6C
ENDCHAR
STARTCHAR uni212B
ENCODING 8491
SWIDTH 668 0
DWIDTH 7 0
BBX 8 11 0 -1
BITMAP
01
03
07
0A
12
7E
A6
24
64
4C
40
ENDCHAR
STARTCHAR estimated
ENCODING 8494
SWIDTH 786 0
DWIDTH 9 0
BBX 8 8 0 0
BITMAP
1C
62
63
FF
E0
60
62
1C
ENDCHAR
STARTCHAR uni2153
ENCODING 8531
SWIDTH 733 0
DWIDTH 8 0
BBX 8 9 0 0
BITMAP
26
44
48
48
53
D5
22
25
46
ENDCHAR
STARTCHAR uni2154
ENCODING 8532
SWIDTH 852 0
DWIDTH 9 0
BBX 8 9 1 0
BITMAP
C2
E4
44
88
CB
13
12
25
27
ENDCHAR
STARTCHAR oneeighth
ENCODING 8539
SWIDTH 741 0
DWIDTH 8 0
BBX 8 9 0 0
BITMAP
26
44
48
48
53
D5
22
25
46
ENDCHAR
STARTCHAR threeeighths
ENCODING 8540
SWIDTH 828 0
DWIDTH 9 0
BBX 8 9 1 0
BITMAP
C6
A4
48
E8
D3
15
22
25
46
ENDCHAR
STARTCHAR fiveeighths
ENCODING 8541
SWIDTH 827 0
DWIDTH 9 0
BBX 8 9 1 0
BITMAP
E6
84
C8
E8
D3
D5
22
25
46
ENDCHAR
STARTCHAR seveneighths
ENCODING 8542
SWIDTH 761 0
DWIDTH 8 0
BBX 7 9 1 0
BITMAP
E4
48
88
90
96
26
26
4A
CE
ENDCHAR
STARTCHAR partialdiff
ENCODING 8706
SWIDTH 597 0
DWIDTH 7 0
BBX 7 9 0 0
BITMAP
1C
24
02
02
3C
44
84
C8
70
ENDCHAR
STARTCHAR uni2206
ENCODING 8710
SWIDTH 619 0
DWIDTH 7 0
BBX 7 9 0 0
BITMAP
0C
0C
14
14
24
24
44
86
FE
ENDCHAR
STARTCHAR product
ENCODING 8719
SWIDTH 661 0
DWIDTH 7 0
BBX 7 8 0 0
BITMAP
FE
24
48
48
48
48
50
90
ENDCHAR
STARTCHAR summation
ENCODING 8721
SWIDTH 605 0
DWIDTH 7 0
BBX 7 8 0 0
BITMAP
3E
20
10
18
10
20
40
F8
ENDCHAR
STARTCHAR minus
ENCODING 8722
SWIDTH 471 0
DWIDTH 5 0
BBX 4 1 0 3
BITMAP
F0
ENDCHAR
STARTCHAR uni2215
ENCODING 8725
SWIDTH 488 0
DWIDTH 5 0
BBX 5 9 0 0
BITMAP
08
08
10
10
20
20
40
40
80
ENDCHAR
STARTCHAR uni2219
ENCODING 8729
SWIDTH 434 0
DWIDTH 5 0
BBX 2 2 1 2
BITMAP
C0
C0
ENDCHAR
STARTCHAR radical
ENCODING 8730
SWIDTH 660 0
DWIDTH 7 0
BBX 7 8 0 0
BITMAP
0E
08
08
10
10
D0
60
60
ENDCHAR
STARTCHAR infinity
ENCODING 8734
SWIDTH 833 0
DWIDTH 9 0
BBX 8 4 0 1
BITMAP
77
59
99
66
ENDCHAR
STARTCHAR integral
ENCODING 8747
SWIDTH 305 0
DWIDTH 3 0
BBX 5 11 -1 -2
BITMAP
08
10
10
20
20
20
20
20
40
40
C0
ENDCHAR
STARTCHAR approxequal
ENCODING 8776
SWIDTH 441 0
DWIDTH 5 0
BBX 5 4 0 1
BITMAP
68
18
00
F8
ENDCHAR
STARTCHAR notequal
ENCODING 8800
SWIDTH 500 0
DWIDTH 6 0
BBX 5 6 0 0
BITMAP
10
10
78
20
F8
20
ENDCHAR
STARTCHAR lessequal
ENCODING 8804
SWIDTH 405 0
DWIDTH 4 0
BBX 4 6 0 1
BITMAP
10
30
40
30
10
F0
ENDCHAR
STARTCHAR greaterequal
ENCODING 8805
SWIDTH 405 0
DWIDTH 4 0
BBX 4 6 0 1
BITMAP
40
20
10
60
80
F0
ENDCHAR
STARTCHAR lozenge
ENCODING 9674
SWIDTH 619 0
DWIDTH 7 0
BBX 6 9 0 0
BITMAP
08
18
28
44
C4
44
48
50
20
ENDCHAR
STARTCHAR uni27E8
ENCODING 10216
SWIDTH 456 0
DWIDTH 5 0
BBX 4 11 1 -2
BITMAP
10
20
40
80
80
80
80
40
20
20
10
ENDCHAR
STARTCHAR uni27E9
ENCODING 10217
SWIDTH 456 0
DWIDTH 5 0
BBX 4 11 0 -1
BITMAP
80
40
40
20
10
10
10
10
20
40
80
ENDCHAR
STARTCHAR ff
ENCODING 64256
SWIDTH 508 0
DWIDTH 6 0
BBX 9 12 -2 -3
BITMAP
0F80
1A80
1200
1F00
3600
3600
3400
3400
2C00
FC00
EC00
F800
ENDCHAR
STARTCHAR fi
ENCODING 64257
SWIDTH 534 0
DWIDTH 6 0
BBX 8 12 -2 -3
BITMAP
0E
1A
10
1A
36
36
36
35
26
E0
E0
C0
ENDCHAR
STARTCHAR fl
ENCODING 64258
SWIDTH 548 0
DWIDTH 6 0
BBX 8 12 -2 -3
BITMAP
0E
1B
13
1A
32
36
36
37
27
E0
E0
C0
ENDCHAR
STARTCHAR ffi
ENCODING 64259
SWIDTH 764 0
DWIDTH 8 0
BBX 11 12 -2 -3
BITMAP
0FC0
1AC0
1600
1FC0
36C0
3480
3480
2DA0
3CC0
EC00
E800
F800
ENDCHAR
STARTCHAR ffl
ENCODING 64260
SWIDTH 780 0
DWIDTH 9 0
BBX 11 12 -2 -3
BITMAP
0FC0
1A40
16C0
1FC0
36C0
3480
3480
2CA0
3CC0
EC00
E800
F800
ENDCHAR
STARTCHAR .notdef
ENCODING -1
SWIDTH 810 0
DWIDTH 9 0
BBX 9 14 0 -3
BITMAP
1F80
2080
2080
2100
2D00
3500
4900
4900
5200
4200
8200
8200
8200
FC00
ENDCHAR
STARTCHAR A.salt
ENCODING -1
SWIDTH 590 0
DWIDTH 6 0
BBX 7 10 0 -1
BITMAP
0E
16
14
24
3C
4C
4C
C8
D8
C0
ENDCHAR
STARTCHAR B.salt
ENCODING -1
SWIDTH 633 0
DWIDTH 7 0
BBX 7 9 0 0
BITMAP
3C
54
B4
BC
26
26
24
6C
78
ENDCHAR
STARTCHAR E.salt
ENCODING -1
SWIDTH 554 0
DWIDTH 6 0
BBX 7 9 0 0
BITMAP
7E
B0
B0
B0
38
20
60
60
78
ENDCHAR
STARTCHAR N.salt
ENCODING -1
SWIDTH 669 0
DWIDTH 7 0
BBX 8 9 0 0
BITMAP
3E
72
B6
B6
26
24
64
6D
66
ENDCHAR
STARTCHAR i.loclTRK
ENCODING -1
SWIDTH 267 0
DWIDTH 3 0
BBX 3 8 0 0
BITMAP
60
60
40
C0
C0
C0
E0
C0
ENDCHAR
STARTCHAR a.end
ENCODING -1
SWIDTH 467 0
DWIDTH 5 0
BBX 5 6 0 0
BITMAP
78
58
D8
D8
90
F8
ENDCHAR
STARTCHAR aacute.end
ENCODING -1
SWIDTH 461 0
DWIDTH 5 0
BBX 5 9 0 0
BITMAP
08
10
00
78
D8
D8
98
90
F8
ENDCHAR
STARTCHAR c.end
ENCODING -1
SWIDTH 341 0
DWIDTH 4 0
BBX 4 6 0 0
BITMAP
70
D0
C0
80
80
E0
ENDCHAR
STARTCHAR d.end
ENCODING -1
SWIDTH 476 0
DWIDTH 5 0
BBX 6 8 0 0
BITMAP
0C
08
78
58
D8
D8
90
F8
ENDCHAR
STARTCHAR e.end
ENCODING -1
SWIDTH 366 0
DWIDTH 4 0
BBX 4 6 0 0
BITMAP
70
50
D0
E0
80
E0
ENDCHAR
STARTCHAR eacute.end
ENCODING -1
SWIDTH 367 0
DWIDTH 4 0
BBX 4 9 0 0
BITMAP
10
10
20
70
50
D0
E0
80
E0
ENDCHAR
STARTCHAR uni0292.end
ENCODING -1
SWIDTH 391 0
DWIDTH 4 0
BBX 4 9 0 -3
BITMAP
F0
A0
60
40
60
20
60
A0
E0
ENDCHAR
STARTCHAR g.end
ENCODING -1
SWIDTH 480 0
DWIDTH 5 0
BBX 5 9 0 -3
BITMAP
78
58
D8
D8
90
F0
70
B0
60
ENDCHAR
STARTCHAR uni01E5.end
ENCODING -1
SWIDTH 507 0
DWIDTH 6 0
BBX 5 9 0 -3
BITMAP
78
58
D8
D8
90
F0
30
F8
60
ENDCHAR
STARTCHAR h.end
ENCODING -1
SWIDTH 453 0
DWIDTH 5 0
BBX 5 8 0 0
BITMAP
60
40
78
D8
D8
D0
90
98
ENDCHAR
STARTCHAR i.end
ENCODING -1
SWIDTH 209 0
DWIDTH 2 0
BBX 3 9 0 0
BITMAP
60
60
00
40
C0
C0
C0
C0
C0
ENDCHAR
STARTCHAR iacute.end
ENCODING -1
SWIDTH 209 0
DWIDTH 2 0
BBX 3 9 0 0
BITMAP
20
60
00
40
C0
C0
C0
C0
C0
ENDCHAR
STARTCHAR ij.end
ENCODING -1
SWIDTH 480 0
DWIDTH 5 0
BBX 6 11 0 -3
BITMAP
6C
68
48
D8
D8
D8
D0
D0
70
B0
60
ENDCHAR
STARTCHAR j.end
ENCODING -1
SWIDTH 213 0
DWIDTH 2 0
BBX 5 11 -2 -3
BITMAP
18
10
10
30
30
30
20
20
E0
E0
C0
ENDCHAR
STARTCHAR k.end
ENCODING -1
SWIDTH 472 0
DWIDTH 5 0
BBX 5 8 0 0
BITMAP
60
40
48
D0
F0
D8
90
98
ENDCHAR
STARTCHAR l.end
ENCODING -1
SWIDTH 207 0
DWIDTH 2 0
BBX 3 8 0 0
BITMAP
60
40
40
C0
C0
C0
C0
C0
ENDCHAR
STARTCHAR m.end
ENCODING -1
SWIDTH 701 0
DWIDTH 8 0
BBX 8 6 0 0
BITMAP
7E
DA
DA
D2
96
B3
ENDCHAR
STARTCHAR n.end
ENCODING -1
SWIDTH 454 0
DWIDTH 5 0
BBX 5 6 0 0
BITMAP
78
D8
D8
D0
90
98
ENDCHAR
STARTCHAR o.end
ENCODING -1
SWIDTH 487 0
DWIDTH 5 0
BBX 5 6 0 0
BITMAP
70
58
D0
D0
90
E0
ENDCHAR
STARTCHAR oacute.end
ENCODING -1
SWIDTH 487 0
DWIDTH 5 0
BBX 5 9 0 0
BITMAP
18
10
20
70
58
D0
D0
D0
E0
ENDCHAR
STARTCHAR s.end
ENCODING -1
SWIDTH 316 0
DWIDTH 3 0
BBX 3 6 0 0
BITMAP
60
60
A0
A0
A0
E0
ENDCHAR
STARTCHAR t.end
ENCODING -1
SWIDTH 276 0
DWIDTH 3 0
BBX 3 8 0 0
BITMAP
60
40
E0
40
C0
C0
C0
C0
ENDCHAR
STARTCHAR u.end
ENCODING -1
SWIDTH 459 0
DWIDTH 5 0
BBX 5 6 0 0
BITMAP
58
D8
D8
D0
F0
D8
ENDCHAR
STARTCHAR uacute.end
ENCODING -1
SWIDTH 459 0
DWIDTH 5 0
BBX 5 9 0 0
BITMAP
18
10
20
58
D8
D8
D0
F0
D8
ENDCHAR
STARTCHAR x.end
ENCODING -1
SWIDTH 500 0
DWIDTH 6 0
BBX 6 6 0 0
BITMAP
7C
B8
B0
B0
50
D8
ENDCHAR
STARTCHAR y.end
ENCODING -1
SWIDTH 460 0
DWIDTH 5 0
BBX 5 9 0 -3
BITMAP
58
D8
D8
D0
F0
F0
70
B0
60
ENDCHAR
STARTCHAR k.salt
ENCODING -1
SWIDTH 518 0
DWIDTH 6 0
BBX 6 8 0 0
BITMAP
60
40
58
F0
D8
D0
94
98
ENDCHAR
STARTCHAR p.salt
ENCODING -1
SWIDTH 482 0
DWIDTH 5 0
BBX 7 10 -1 -3
BITMAP
20
38
6C
6C
6E
58
58
C0
C0
C0
ENDCHAR
STARTCHAR E_x
ENCODING -1
SWIDTH 797 0
DWIDTH 9 0
BBX 9 9 0 0
BITMAP
3800
2800
6800
2100
3680
4700
C200
C680
7B00
ENDCHAR
STARTCHAR F_i
ENCODING -1
SWIDTH 726 0
DWIDTH 8 0
BBX 8 9 0 0
BITMAP
3F
56
B0
B2
BA
36
26
67
67
ENDCHAR
STARTCHAR T_h
ENCODING -1
SWIDTH 971 0
DWIDTH 11 0
BBX 11 9 0 0
BITMAP
3F00
DB00
9B00
93C0
12C0
36C0
36C0
36A0
24C0
ENDCHAR
STARTCHAR T_i
ENCODING -1
SWIDTH 744 0
DWIDTH 8 0
BBX 9 9 0 0
BITMAP
3F00
DB00
9800
9300
1200
3200
3600
3680
2700
ENDCHAR
STARTCHAR a_x
ENCODING -1
SWIDTH 899 0
DWIDTH 10 0
BBX 10 6 0 0
BITMAP
7BC0
5B40
DB80
D900
D340
FD80
ENDCHAR
STARTCHAR a_z
ENCODING -1
SWIDTH 906 0
DWIDTH 10 0
BBX 10 6 0 0
BITMAP
7BC0
5A80
D980
D900
9340
FF80
ENDCHAR
STARTCHAR b_s
ENCODING -1
SWIDTH 799 0
DWIDTH 9 0
BBX 9 8 0 0
BITMAP
6000
4000
7300
DF00
D300
D780
DB00
E600
ENDCHAR
STARTCHAR b_s_x
ENCODING -1
SWIDTH 1144 0
DWIDTH 13 0
BBX 13 8 0 0
BITMAP
2000
6000
7350
5770
DB60
D768
DBA8
E630
ENDCHAR
STARTCHAR b_s_z
ENCODING -1
SWIDTH 1158 0
DWIDTH 13 0
BBX 13 8 0 0
BITMAP
6000
4000
7378
D770
DB20
D760
DB50
E6F0
ENDCHAR
STARTCHAR c_x
ENCODING -1
SWIDTH 755 0
DWIDTH 8 0
BBX 9 6 0 0
BITMAP
7D00
D500
C600
8600
8E80
F300
ENDCHAR
STARTCHAR c_z
ENCODING -1
SWIDTH 769 0
DWIDTH 8 0
BBX 8 6 0 0
BITMAP
77
D7
C2
86
85
EF
ENDCHAR
STARTCHAR e_x
ENCODING -1
SWIDTH 762 0
DWIDTH 8 0
BBX 9 6 0 0
BITMAP
7500
5500
D500
E600
CE80
F300
ENDCHAR
STARTCHAR e_z
ENCODING -1
SWIDTH 788 0
DWIDTH 9 0
BBX 9 6 0 0
BITMAP
7780
D700
D200
E600
8500
EF00
ENDCHAR
STARTCHAR eacute_x
ENCODING -1
SWIDTH 760 0
DWIDTH 8 0
BBX 9 9 0 0
BITMAP
1800
1000
1000
7500
D500
D500
E600
8E80
F300
ENDCHAR
STARTCHAR f_f_t
ENCODING -1
SWIDTH 780 0
DWIDTH 9 0
BBX 11 12 -2 -3
BITMAP
0FC0
1A40
16C0
1FE0
36C0
34C0
3480
2CA0
3CC0
EC00
E800
F800
ENDCHAR
STARTCHAR f_i_x
ENCODING -1
SWIDTH 898 0
DWIDTH 10 0
BBX 12 12 -2 -3
BITMAP
0E00
1A00
1220
1AF0
36D0
36E0
3640
34D0
2760
E000
E000
C000
ENDCHAR
STARTCHAR f_i_z
ENCODING -1
SWIDTH 904 0
DWIDTH 10 0
BBX 12 12 -2 -3
BITMAP
0E00
1A00
1000
1AF0
36A0
3660
3640
34F0
27E0
E000
E000
C000
ENDCHAR
STARTCHAR f_l_x
ENCODING -1
SWIDTH 912 0
DWIDTH 10 0
BBX 13 12 -2 -3
BITMAP
0E00
1B00
1300
1AF0
32D0
3660
3648
36F0
2770
E000
E000
C000
ENDCHAR
STARTCHAR f_l_z
ENCODING -1
SWIDTH 938 0
DWIDTH 10 0
BBX 12 12 -2 -3
BITMAP
0E00
1B00
1300
1A70
32B0
3660
3640
36D0
26F0
E000
E000
C000
ENDCHAR
STARTCHAR f_t
ENCODING -1
SWIDTH 548 0
DWIDTH 6 0
BBX 8 12 -2 -3
BITMAP
0E
1B
13
1F
32
36
36
37
27
E0
E0
C0
ENDCHAR
STARTCHAR f_u
ENCODING -1
SWIDTH 772 0
DWIDTH 8 0
BBX 11 12 -2 -3
BITMAP
0C00
1C00
1000
1EC0
36C0
3680
3680
25A0
26C0
E000
E000
C000
ENDCHAR
STARTCHAR f_x
ENCODING -1
SWIDTH 663 0
DWIDTH 7 0
BBX 10 12 -2 -3
BITMAP
0C00
1C00
1000
1E80
3280
3300
3300
2740
2D80
E000
E000
C000
ENDCHAR
STARTCHAR g_p
ENCODING -1
SWIDTH 975 0
DWIDTH 11 0
BBX 10 10 0 -3
BITMAP
0300
7BC0
5B40
DA40
DA40
96C0
FF80
7600
7400
6400
ENDCHAR
STARTCHAR g_x
ENCODING -1
SWIDTH 892 0
DWIDTH 10 0
BBX 10 9 0 -3
BITMAP
7BC0
5B40
DB80
D900
D340
FD80
3000
7000
6000
ENDCHAR
STARTCHAR g_z
ENCODING -1
SWIDTH 907 0
DWIDTH 10 0
BBX 10 9 0 -3
BITMAP
7BC0
5A80
D980
D900
9340
F780
7000
B000
6000
ENDCHAR
STARTCHAR i_x
ENCODING -1
SWIDTH 631 0
DWIDTH 7 0
BBX 7 9 0 0
BITMAP
60
60
00
5E
DA
CC
C8
DA
EC
ENDCHAR
STARTCHAR i_z
ENCODING -1
SWIDTH 637 0
DWIDTH 7 0
BBX 7 9 0 0
BITMAP
60
60
00
5E
D4
CC
C8
DA
FC
ENDCHAR
STARTCHAR iacute_x
ENCODING -1
SWIDTH 631 0
DWIDTH 7 0
BBX 7 9 0 0
BITMAP
20
20
40
5E
DA
CC
C8
DA
EC
ENDCHAR
STARTCHAR iacute_z
ENCODING -1
SWIDTH 637 0
DWIDTH 7 0
BBX 7 9 0 0
BITMAP
20
60
00
5E
D4
CC
C8
DA
FC
ENDCHAR
STARTCHAR j_x
ENCODING -1
SWIDTH 624 0
DWIDTH 7 0
BBX 9 11 -2 -3
BITMAP
1800
1000
1780
3680
3700
3200
2680
3B00
6000
E000
C000
ENDCHAR
STARTCHAR j_z
ENCODING -1
SWIDTH 618 0
DWIDTH 7 0
BBX 9 11 -2 -3
BITMAP
1800
1800
1780
3700
3200
3600
3500
2F00
E000
E000
C000
ENDCHAR
STARTCHAR l_x
ENCODING -1
SWIDTH 631 0
DWIDTH 7 0
BBX 7 8 0 0
BITMAP
20
60
5E
5A
CC
C8
DA
EC
ENDCHAR
STARTCHAR l_z
ENCODING -1
SWIDTH 635 0
DWIDTH 7 0
BBX 7 8 0 0
BITMAP
60
40
5E
D4
CC
C8
9A
FC
ENDCHAR
STARTCHAR m_x
ENCODING -1
SWIDTH 1124 0
DWIDTH 12 0
BBX 13 6 0 0
BITMAP
7E50
DA50
DA60
D260
96E8
B330
ENDCHAR
STARTCHAR m_z
ENCODING -1
SWIDTH 1125 0
DWIDTH 12 0
BBX 12 6 0 0
BITMAP
7EF0
DAB0
DA20
D260
96D0
B3F0
ENDCHAR
STARTCHAR n_z
ENCODING -1
SWIDTH 882 0
DWIDTH 10 0
BBX 10 6 0 0
BITMAP
7BC0
DB80
D900
D300
9280
9F80
ENDCHAR
STARTCHAR o_ae
ENCODING -1
SWIDTH 1089 0
DWIDTH 12 0
BBX 12 6 0 0
BITMAP
73F0
5CD0
D3A0
D4E0
D590
E6E0
ENDCHAR
STARTCHAR o_s
ENCODING -1
SWIDTH 786 0
DWIDTH 9 0
BBX 9 6 0 0
BITMAP
7300
5F00
D300
D780
9B00
E600
ENDCHAR
STARTCHAR o_s_x
ENCODING -1
SWIDTH 1132 0
DWIDTH 12 0
BBX 13 6 0 0
BITMAP
7350
5F50
D360
D768
DBE8
E630
ENDCHAR
STARTCHAR o_s_z
ENCODING -1
SWIDTH 1139 0
DWIDTH 13 0
BBX 13 6 0 0
BITMAP
7378
5FB0
D320
D760
9B50
E6F0
ENDCHAR
STARTCHAR o_x
ENCODING -1
SWIDTH 851 0
DWIDTH 9 0
BBX 10 6 0 0
BITMAP
7280
5680
DA80
D300
9740
ED80
ENDCHAR
STARTCHAR oacute_s
ENCODING -1
SWIDTH 787 0
DWIDTH 9 0
BBX 9 9 0 0
BITMAP
1800
1000
2000
7300
5F00
D300
D780
DB00
E600
ENDCHAR
STARTCHAR oacute_s_x
ENCODING -1
SWIDTH 1141 0
DWIDTH 13 0
BBX 13 9 0 0
BITMAP
1800
1000
2000
7378
5FB0
D320
D760
DB50
E6F0
ENDCHAR
STARTCHAR oacute_s_z
ENCODING -1
SWIDTH 1140 0
DWIDTH 13 0
BBX 13 9 0 0
BITMAP
1800
1000
2000
7378
5FB0
D320
D760
DB50
E6F0
ENDCHAR
STARTCHAR oacute_x
ENCODING -1
SWIDTH 852 0
DWIDTH 9 0
BBX 10 9 0 0
BITMAP
1800
1000
2000
7280
5680
DA80
D300
9740
ED80
ENDCHAR
STARTCHAR r_x
ENCODING -1
SWIDTH 784 0
DWIDTH 9 0
BBX 9 7 0 0
BITMAP
0100
7480
D500
C700
C600
8A80
8B00
ENDCHAR
STARTCHAR r_z
ENCODING -1
SWIDTH 654 0
DWIDTH 7 0
BBX 7 6 0 0
BITMAP
7E
D4
CC
C8
9A
BC
ENDCHAR
STARTCHAR s_x
ENCODING -1
SWIDTH 727 0
DWIDTH 8 0
BBX 8 6 0 0
BITMAP
2F
6D
66
A4
BD
E7
ENDCHAR
STARTCHAR s_z
ENCODING -1
SWIDTH 744 0
DWIDTH 8 0
BBX 8 6 0 0
BITMAP
6F
6A
A6
A4
AD
FE
ENDCHAR
STARTCHAR t_x
ENCODING -1
SWIDTH 631 0
DWIDTH 7 0
BBX 7 7 0 0
BITMAP
60
FE
5A
DC
C8
DA
EE
ENDCHAR
STARTCHAR t_z
ENCODING -1
SWIDTH 704 0
DWIDTH 8 0
BBX 8 8 0 0
BITMAP
60
40
EF
4E
C4
CC
CA
DE
ENDCHAR
STARTCHAR u_v
ENCODING -1
SWIDTH 923 0
DWIDTH 10 0
BBX 10 6 0 0
BITMAP
5B40
DB40
DA40
D240
F680
F300
ENDCHAR
STARTCHAR u_x
ENCODING -1
SWIDTH 878 0
DWIDTH 10 0
BBX 10 6 0 0
BITMAP
5A80
DB40
DB80
D300
F340
DD80
ENDCHAR
STARTCHAR y_p
ENCODING -1
SWIDTH 954 0
DWIDTH 11 0
BBX 10 10 0 -3
BITMAP
0300
5BC0
DA40
DA40
D6C0
F6C0
FF80
7400
B400
6C00
ENDCHAR
STARTCHAR y_x
ENCODING -1
SWIDTH 871 0
DWIDTH 10 0
BBX 10 9 0 -3
BITMAP
5A80
DB80
DB80
D300
F340
FD80
7000
B000
6000
ENDCHAR
STARTCHAR y_z
ENCODING -1
SWIDTH 888 0
DWIDTH 10 0
BBX 10 9 0 -3
BITMAP
5BC0
DB80
D900
D300
F280
F780
7000
B000
6000
ENDCHAR
STARTCHAR a_x.end
ENCODING -1
SWIDTH 884 0
DWIDTH 10 0
BBX 10 6 0 0
BITMAP
7BC0
5B40
DB80
D900
D300
FD80
ENDCHAR
STARTCHAR b_s.end
ENCODING -1
SWIDTH 731 0
DWIDTH 8 0
BBX 8 8 0 0
BITMAP
60
40
73
DF
D3
D7
DB
E6
ENDCHAR
STARTCHAR e_x.end
ENCODING -1
SWIDTH 747 0
DWIDTH 8 0
BBX 8 6 0 0
BITMAP
75
55
D5
E6
CE
F3
ENDCHAR
STARTCHAR f_u.end
ENCODING -1
SWIDTH 724 0
DWIDTH 8 0
BBX 10 12 -2 -3
BITMAP
0C00
1C00
1000
1EC0
36C0
3680
3680
2580
26C0
E000
E000
C000
ENDCHAR
STARTCHAR fi.end
ENCODING -1
SWIDTH 479 0
DWIDTH 5 0
BBX 7 12 -2 -3
BITMAP
0E
1A
10
1A
36
36
36
34
26
E0
E0
C0
ENDCHAR
STARTCHAR fl.end
ENCODING -1
SWIDTH 490 0
DWIDTH 5 0
BBX 8 12 -2 -3
BITMAP
0E
1B
13
1A
32
36
36
36
26
E0
E0
C0
ENDCHAR
STARTCHAR i_x.end
ENCODING -1
SWIDTH 616 0
DWIDTH 7 0
BBX 7 9 0 0
BITMAP
60
60
00
5E
DA
CC
C8
D8
EC
ENDCHAR
STARTCHAR o_s.end
ENCODING -1
SWIDTH 718 0
DWIDTH 8 0
BBX 8 6 0 0
BITMAP
73
5F
D3
D7
9B
E6
ENDCHAR
STARTCHAR oacute_s.end
ENCODING -1
SWIDTH 719 0
DWIDTH 8 0
BBX 8 9 0 0
BITMAP
18
10
20
73
5F
D3
D7
DB
E6
ENDCHAR
STARTCHAR u_x.end
ENCODING -1
SWIDTH 863 0
DWIDTH 10 0
BBX 10 6 0 0
BITMAP
5A80
DB40
DB80
D300
F300
DD80
ENDCHAR
STARTCHAR uni0424.loclBGR
ENCODING -1
SWIDTH 840 0
DWIDTH 9 0
BBX 9 11 0 -1
BITMAP
1E00
2400
2400
3F00
4C80
CC80
C880
C980
5900
7E00
1800
ENDCHAR
STARTCHAR uni0492.loclBSH
ENCODING -1
SWIDTH 459 0
DWIDTH 5 0
BBX 7 9 0 0
BITMAP
7E
B0
B0
B0
B8
20
60
60
60
ENDCHAR
STARTCHAR uni04AA.loclCHU
ENCODING -1
SWIDTH 497 0
DWIDTH 5 0
BBX 6 12 0 -3
BITMAP
38
64
6C
40
C0
C0
C0
C4
78
20
10
60
ENDCHAR
STARTCHAR uni0418.loclSRB
ENCODING -1
SWIDTH 705 0
DWIDTH 8 0
BBX 8 9 0 0
BITMAP
33
53
B7
B6
3A
36
36
66
64
ENDCHAR
STARTCHAR uni0419.loclSRB
ENCODING -1
SWIDTH 705 0
DWIDTH 8 0
BBX 8 11 0 0
BITMAP
09
0E
33
53
B7
B6
3A
36
36
66
64
ENDCHAR
STARTCHAR uni0430.end
ENCODING -1
SWIDTH 467 0
DWIDTH 5 0
BBX 5 6 0 0
BITMAP
78
58
D8
D8
90
F8
ENDCHAR
STARTCHAR uni0432.end
ENCODING -1
SWIDTH 406 0
DWIDTH 4 0
BBX 4 9 0 0
BITMAP
30
70
50
50
D0
F0
D0
D0
E0
ENDCHAR
STARTCHAR uni0434.end
ENCODING -1
SWIDTH 480 0
DWIDTH 5 0
BBX 5 9 0 -3
BITMAP
78
58
D8
D8
90
F0
70
B0
60
ENDCHAR
STARTCHAR uni0435.end
ENCODING -1
SWIDTH 366 0
DWIDTH 4 0
BBX 4 6 0 0
BITMAP
70
50
D0
E0
80
E0
ENDCHAR
STARTCHAR uni0451.end
ENCODING -1
SWIDTH 366 0
DWIDTH 4 0
BBX 5 8 0 0
BITMAP
78
00
70
50
D0
E0
80
E0
ENDCHAR
STARTCHAR uni0436.end
ENCODING -1
SWIDTH 848 0
DWIDTH 9 0
BBX 10 6 0 0
BITMAP
6DC0
AF80
3E00
2A00
AA40
DB80
ENDCHAR
STARTCHAR uni0437.end
ENCODING -1
SWIDTH 426 0
DWIDTH 5 0
BBX 5 9 0 -3
BITMAP
70
98
98
90
60
30
70
B0
60
ENDCHAR
STARTCHAR uni0438.end
ENCODING -1
SWIDTH 459 0
DWIDTH 5 0
BBX 5 6 0 0
BITMAP
58
D8
D8
D0
F0
D8
ENDCHAR
STARTCHAR uni0439.end
ENCODING -1
SWIDTH 459 0
DWIDTH 5 0
BBX 5 9 0 0
BITMAP
28
68
30
58
D8
D8
D0
F0
D8
ENDCHAR
STARTCHAR uni043A.end
ENCODING -1
SWIDTH 501 0
DWIDTH 6 0
BBX 5 6 0 0
BITMAP
58
E0
F0
D0
90
98
ENDCHAR
STARTCHAR uni043B.end
ENCODING -1
SWIDTH 511 0
DWIDTH 6 0
BBX 6 6 0 0
BITMAP
1C
28
28
38
D8
DC
ENDCHAR
STARTCHAR uni043C.end
ENCODING -1
SWIDTH 780 0
DWIDTH 9 0
BBX 9 6 0 0
BITMAP
1980
3B00
3B00
3F00
DB80
DB00
ENDCHAR
STARTCHAR uni043D.end
ENCODING -1
SWIDTH 460 0
DWIDTH 5 0
BBX 5 6 0 0
BITMAP
58
D8
F8
D0
90
98
ENDCHAR
STARTCHAR uni043E.end
ENCODING -1
SWIDTH 439 0
DWIDTH 5 0
BBX 4 6 0 0
BITMAP
70
50
D0
D0
90
E0
ENDCHAR
STARTCHAR uni043F.end
ENCODING -1
SWIDTH 454 0
DWIDTH 5 0
BBX 5 6 0 0
BITMAP
78
D8
D8
D0
90
98
ENDCHAR
STARTCHAR uni0441.end
ENCODING -1
SWIDTH 341 0
DWIDTH 4 0
BBX 4 6 0 0
BITMAP
70
D0
C0
80
80
E0
ENDCHAR
STARTCHAR uni0442.end
ENCODING -1
SWIDTH 701 0
DWIDTH 8 0
BBX 8 6 0 0
BITMAP
7E
DA
DA
D2
96
B3
ENDCHAR
STARTCHAR uni0443.end
ENCODING -1
SWIDTH 460 0
DWIDTH 5 0
BBX 5 9 0 -3
BITMAP
58
D8
D8
D0
F0
F0
70
B0
60
ENDCHAR
STARTCHAR uni0445.end
ENCODING -1
SWIDTH 500 0
DWIDTH 6 0
BBX 6 6 0 0
BITMAP
7C
B8
B0
B0
50
D8
ENDCHAR
STARTCHAR uni0447.end
ENCODING -1
SWIDTH 459 0
DWIDTH 5 0
BBX 5 6 0 0
BITMAP
58
D8
D8
F0
10
18
ENDCHAR
STARTCHAR uni0448.end
ENCODING -1
SWIDTH 706 0
DWIDTH 8 0
BBX 8 6 0 0
BITMAP
5B
DA
DA
D2
F6
DB
ENDCHAR
STARTCHAR uni044B.end
ENCODING -1
SWIDTH 608 0
DWIDTH 7 0
BBX 7 6 0 0
BITMAP
46
CC
F4
D4
9C
E6
ENDCHAR
STARTCHAR uni0455.end
ENCODING -1
SWIDTH 316 0
DWIDTH 3 0
BBX 3 6 0 0
BITMAP
60
60
A0
A0
A0
E0
ENDCHAR
STARTCHAR uni0456.end
ENCODING -1
SWIDTH 209 0
DWIDTH 2 0
BBX 3 9 0 0
BITMAP
60
60
00
40
C0
C0
C0
C0
C0
ENDCHAR
STARTCHAR uni0458.end
ENCODING -1
SWIDTH 213 0
DWIDTH 2 0
BBX 5 11 -2 -3
BITMAP
18
10
10
30
30
30
20
20
E0
E0
C0
ENDCHAR
STARTCHAR uni044E.end
ENCODING -1
SWIDTH 675 0
DWIDTH 7 0
BBX 7 6 0 0
BITMAP
4E
DA
F2
F2
B4
9C
ENDCHAR
STARTCHAR uni044F.end
ENCODING -1
SWIDTH 480 0
DWIDTH 5 0
BBX 5 6 0 0
BITMAP
38
48
58
78
D0
D8
ENDCHAR
STARTCHAR uni0437.init
ENCODING -1
SWIDTH 455 0
DWIDTH 5 0
BBX 5 9 0 -3
BITMAP
70
90
30
30
68
38
60
A0
E0
ENDCHAR
STARTCHAR uni0445.init
ENCODING -1
SWIDTH 390 0
DWIDTH 4 0
BBX 6 7 -1 0
BITMAP
08
68
28
30
70
B4
D8
ENDCHAR
STARTCHAR uni0436.loclBGR
ENCODING -1
SWIDTH 882 0
DWIDTH 10 0
BBX 10 9 0 0
BITMAP
0400
0400
0400
6DC0
AF80
3E00
2A00
AA40
DB80
ENDCHAR
STARTCHAR uni043A.loclBGR
ENCODING -1
SWIDTH 518 0
DWIDTH 6 0
BBX 6 8 0 0
BITMAP
60
40
58
E0
F0
D8
94
98
ENDCHAR
STARTCHAR uni044E.loclBGR
ENCODING -1
SWIDTH 675 0
DWIDTH 7 0
BBX 9 9 0 0
BITMAP
6000
6000
4000
4E00
DB80
F200
F200
B400
9C00
ENDCHAR
STARTCHAR uni0493.loclBSH
ENCODING -1
SWIDTH 398 0
DWIDTH 4 0
BBX 5 6 0 0
BITMAP
F8
C0
E0
80
A0
C0
ENDCHAR
STARTCHAR uni04AB.loclCHU
ENCODING -1
SWIDTH 384 0
DWIDTH 4 0
BBX 5 9 0 -3
BITMAP
70
50
C0
C8
D0
E0
40
20
60
ENDCHAR
STARTCHAR uni0453.loclMKD
ENCODING -1
SWIDTH 267 0
DWIDTH 3 0
BBX 4 11 0 0
BITMAP
30
20
00
E0
00
40
C0
C0
C0
E0
C0
ENDCHAR
STARTCHAR uni0433.loclSRB
ENCODING -1
SWIDTH 267 0
DWIDTH 3 0
BBX 3 8 0 0
BITMAP
E0
00
40
C0
C0
C0
E0
C0
ENDCHAR
STARTCHAR uni043F.loclSRB
ENCODING -1
SWIDTH 505 0
DWIDTH 6 0
BBX 6 8 0 0
BITMAP
78
00
58
D8
D8
D0
F4
D8
ENDCHAR
STARTCHAR uni0442.loclSRB
ENCODING -1
SWIDTH 752 0
DWIDTH 8 0
BBX 9 8 0 0
BITMAP
7F00
0000
5B00
DA00
DA00
D200
F680
DB00
ENDCHAR
STARTCHAR uni04150437
ENCODING -1
SWIDTH 940 0
DWIDTH 10 0
BBX 11 12 0 -3
BITMAP
3800
2800
6800
3380
64C0
C480
C580
CB20
71C0
0380
0580
0300
ENDCHAR
STARTCHAR uni04150445
ENCODING -1
SWIDTH 797 0
DWIDTH 9 0
BBX 9 9 0 0
BITMAP
3800
2800
6800
2100
3680
4700
C200
C680
7B00
ENDCHAR
STARTCHAR uni04010437
ENCODING -1
SWIDTH 940 0
DWIDTH 10 0
BBX 11 14 0 -3
BITMAP
1400
0000
3800
2800
6800
3380
64C0
C480
C580
CB20
71C0
0380
0580
0300
ENDCHAR
STARTCHAR uni04010445
ENCODING -1
SWIDTH 797 0
DWIDTH 9 0
BBX 9 11 0 0
BITMAP
1400
0000
3800
2800
6800
2100
3680
4700
C200
C680
7B00
ENDCHAR
STARTCHAR uni04210437
ENCODING -1
SWIDTH 973 0
DWIDTH 11 0
BBX 11 12 0 -3
BITMAP
3800
6400
6C00
4180
C2C0
C4C0
C480
CB20
70C0
0180
0380
0300
ENDCHAR
STARTCHAR uni04210445
ENCODING -1
SWIDTH 814 0
DWIDTH 9 0
BBX 9 9 0 0
BITMAP
3800
6400
6400
4980
C680
C700
C200
C680
7B00
ENDCHAR
STARTCHAR uni04040437
ENCODING -1
SWIDTH 973 0
DWIDTH 11 0
BBX 11 12 0 -3
BITMAP
3800
6400
6C00
6180
F2C0
C4C0
C480
CB20
70C0
0180
0380
0300
ENDCHAR
STARTCHAR uni04040445
ENCODING -1
SWIDTH 814 0
DWIDTH 9 0
BBX 9 9 0 0
BITMAP
3800
6400
6400
6980
F680
C700
C200
C680
7B00
ENDCHAR
STARTCHAR uni04300445
ENCODING -1
SWIDTH 899 0
DWIDTH 10 0
BBX 10 6 0 0
BITMAP
7BC0
5B40
DB80
D900
D340
FD80
ENDCHAR
STARTCHAR uni04300447
ENCODING -1
SWIDTH 993 0
DWIDTH 11 0
BBX 11 6 0 0
BITMAP
7B40
5A40
DAC0
DBC0
90E0
F8C0
ENDCHAR
STARTCHAR uni04310433
ENCODING -1
SWIDTH 816 0
DWIDTH 9 0
BBX 9 9 0 0
BITMAP
3C00
3C00
2000
7700
D900
DB00
D600
9480
E700
ENDCHAR
STARTCHAR uni04310453
ENCODING -1
SWIDTH 816 0
DWIDTH 9 0
BBX 9 9 0 0
BITMAP
3D80
3D00
2000
7700
D900
DB00
D600
9480
E700
ENDCHAR
STARTCHAR uni04310451
ENCODING -1
SWIDTH 814 0
DWIDTH 9 0
BBX 9 9 0 0
BITMAP
3C00
3A80
2000
7380
5680
D500
D600
9480
E700
ENDCHAR
STARTCHAR uni04310436
ENCODING -1
SWIDTH 1261 0
DWIDTH 14 0
BBX 14 9 0 0
BITMAP
3C00
3C00
2000
776C
5954
D1F0
D3F0
9AF4
EE98
ENDCHAR
STARTCHAR uni04310439
ENCODING -1
SWIDTH 935 0
DWIDTH 10 0
BBX 11 9 0 0
BITMAP
3E40
3B40
2180
76C0
56C0
D680
D480
95A0
E6C0
ENDCHAR
STARTCHAR uni0431045E
ENCODING -1
SWIDTH 916 0
DWIDTH 10 0
BBX 11 12 0 -3
BITMAP
3E40
3B40
2180
76C0
5680
D680
D480
95A0
E7C0
0380
0500
0700
ENDCHAR
STARTCHAR uni0431044D
ENCODING -1
SWIDTH 860 0
DWIDTH 9 0
BBX 9 9 0 0
BITMAP
3C00
3C00
2000
7780
5980
DB80
D180
9900
E600
ENDCHAR
STARTCHAR uni04310456
ENCODING -1
SWIDTH 697 0
DWIDTH 8 0
BBX 8 9 0 0
BITMAP
3E
3A
20
76
56
D6
D4
95
E6
ENDCHAR
STARTCHAR uni04310457
ENCODING -1
SWIDTH 697 0
DWIDTH 8 0
BBX 8 9 0 0
BITMAP
38
3F
20
76
56
D6
D4
95
E6
ENDCHAR
STARTCHAR uni04310458
ENCODING -1
SWIDTH 669 0
DWIDTH 7 0
BBX 8 12 0 -3
BITMAP
04
3A
3A
66
56
D6
D4
95
EE
1C
2C
18
ENDCHAR
STARTCHAR uni04320433
ENCODING -1
SWIDTH 837 0
DWIDTH 9 0
BBX 10 9 0 0
BITMAP
3000
6800
4800
5300
D580
FB00
D600
D640
E780
ENDCHAR
STARTCHAR uni04320453
ENCODING -1
SWIDTH 837 0
DWIDTH 9 0
BBX 10 9 0 0
BITMAP
3180
6900
4800
5300
D580
FB00
D600
D640
E780
ENDCHAR
STARTCHAR uni04320436
ENCODING -1
SWIDTH 1279 0
DWIDTH 14 0
BBX 15 9 0 0
BITMAP
3000
6800
4800
576C
D954
F1F0
D1D0
DAD2
E6DC
ENDCHAR
STARTCHAR uni04320437
ENCODING -1
SWIDTH 824 0
DWIDTH 9 0
BBX 10 12 0 -3
BITMAP
3000
6800
4800
5700
D900
F100
D300
D640
E280
0700
0A00
0E00
ENDCHAR
STARTCHAR uni04320445
ENCODING -1
SWIDTH 851 0
DWIDTH 9 0
BBX 10 9 0 0
BITMAP
3000
6800
4800
5680
DA80
F300
D300
D740
E980
ENDCHAR
STARTCHAR uni04330437
ENCODING -1
SWIDTH 840 0
DWIDTH 9 0
BBX 10 9 0 -3
BITMAP
6700
B900
6900
CB00
9640
E380
0700
0A00
0600
ENDCHAR
STARTCHAR uni04330445
ENCODING -1
SWIDTH 740 0
DWIDTH 8 0
BBX 9 6 0 0
BITMAP
6D00
BD00
6600
C400
8E80
F700
ENDCHAR
STARTCHAR uni04330447
ENCODING -1
SWIDTH 880 0
DWIDTH 10 0
BBX 10 6 0 0
BITMAP
6580
B580
6D80
CF80
9140
E180
ENDCHAR
STARTCHAR uni04530437
ENCODING -1
SWIDTH 840 0
DWIDTH 9 0
BBX 10 12 0 -3
BITMAP
1000
1000
2000
6700
B900
6900
CB00
9640
E380
0700
0A00
0600
ENDCHAR
STARTCHAR uni04530445
ENCODING -1
SWIDTH 740 0
DWIDTH 8 0
BBX 9 9 0 0
BITMAP
1000
1000
2000
6D00
BD00
6600
C400
8E80
F700
ENDCHAR
STARTCHAR uni04530447
ENCODING -1
SWIDTH 880 0
DWIDTH 10 0
BBX 10 9 0 0
BITMAP
1000
1000
2000
6580
B580
6D80
CF80
9140
E180
ENDCHAR
STARTCHAR uni04340447
ENCODING -1
SWIDTH 1010 0
DWIDTH 11 0
BBX 12 9 0 -3
BITMAP
7B60
5B40
DAC0
DBC0
94D0
F8E0
3000
7000
6000
ENDCHAR
STARTCHAR uni04340458
ENCODING -1
SWIDTH 746 0
DWIDTH 8 0
BBX 9 11 0 -3
BITMAP
0300
0100
7B00
5B00
DA00
DA00
9680
FF00
3600
7400
6C00
ENDCHAR
STARTCHAR uni04350437
ENCODING -1
SWIDTH 876 0
DWIDTH 10 0
BBX 10 9 0 -3
BITMAP
7300
5580
D980
E900
9640
E380
0300
0700
0600
ENDCHAR
STARTCHAR uni04350445
ENCODING -1
SWIDTH 762 0
DWIDTH 8 0
BBX 9 6 0 0
BITMAP
7500
5500
D500
E600
CE80
F300
ENDCHAR
STARTCHAR uni04350447
ENCODING -1
SWIDTH 889 0
DWIDTH 10 0
BBX 10 6 0 0
BITMAP
7680
5580
DD80
EF80
9140
E180
ENDCHAR
STARTCHAR uni04510437
ENCODING -1
SWIDTH 876 0
DWIDTH 10 0
BBX 10 11 0 -3
BITMAP
7800
0000
7300
5580
D980
E900
9640
E380
0300
0700
0600
ENDCHAR
STARTCHAR uni04510445
ENCODING -1
SWIDTH 762 0
DWIDTH 8 0
BBX 9 8 0 0
BITMAP
7800
0000
7500
5500
D500
E600
CE80
F300
ENDCHAR
STARTCHAR uni04510447
ENCODING -1
SWIDTH 889 0
DWIDTH 10 0
BBX 10 8 0 0
BITMAP
7800
0000
7680
5580
DD80
EF80
9140
E180
ENDCHAR
STARTCHAR uni04360447
ENCODING -1
SWIDTH 1392 0
DWIDTH 15 0
BBX 16 6 0 0
BITMAP
6DF6
AFB4
3E3C
2A3C
AA4D
DB86
ENDCHAR
STARTCHAR uni04370437
ENCODING -1
SWIDTH 921 0
DWIDTH 10 0
BBX 11 9 0 -3
BITMAP
7380
5C80
9880
9580
6B20
3940
7380
B500
6700
ENDCHAR
STARTCHAR uni04380447
ENCODING -1
SWIDTH 1010 0
DWIDTH 11 0
BBX 12 6 0 0
BITMAP
5B60
DB40
DAC0
D3C0
F4D0
D8E0
ENDCHAR
STARTCHAR uni04390447
ENCODING -1
SWIDTH 1010 0
DWIDTH 11 0
BBX 12 9 0 0
BITMAP
2800
6800
3000
5B60
DB40
DAC0
D3C0
F4D0
D8E0
ENDCHAR
STARTCHAR uni043A0447
ENCODING -1
SWIDTH 1016 0
DWIDTH 11 0
BBX 12 6 0 0
BITMAP
5B60
E340
F340
D3C0
94D0
9860
ENDCHAR
STARTCHAR uni045C0447
ENCODING -1
SWIDTH 1016 0
DWIDTH 11 0
BBX 12 9 0 0
BITMAP
1800
1000
0000
5B60
E340
F340
D3C0
94D0
9860
ENDCHAR
STARTCHAR uni043B0447
ENCODING -1
SWIDTH 1061 0
DWIDTH 12 0
BBX 12 6 0 0
BITMAP
1D60
2960
2B60
3BE0
DA50
DC60
ENDCHAR
STARTCHAR uni043C0447
ENCODING -1
SWIDTH 1276 0
DWIDTH 14 0
BBX 15 6 0 0
BITMAP
336C
3368
3658
367A
DA9C
DB18
ENDCHAR
STARTCHAR uni043D0447
ENCODING -1
SWIDTH 1011 0
DWIDTH 11 0
BBX 12 6 0 0
BITMAP
5B60
DB40
FAC0
D3C0
94D0
98E0
ENDCHAR
STARTCHAR uni043E0433
ENCODING -1
SWIDTH 804 0
DWIDTH 9 0
BBX 9 6 0 0
BITMAP
7700
5980
D300
D600
9480
E700
ENDCHAR
STARTCHAR uni043E0453
ENCODING -1
SWIDTH 804 0
DWIDTH 9 0
BBX 9 9 0 0
BITMAP
0080
0100
0000
7700
5980
D300
D600
9480
E700
ENDCHAR
STARTCHAR uni043E0436
ENCODING -1
SWIDTH 1271 0
DWIDTH 14 0
BBX 14 6 0 0
BITMAP
776C
5954
D1F0
D1D0
9AD4
EED8
ENDCHAR
STARTCHAR uni043E0437
ENCODING -1
SWIDTH 837 0
DWIDTH 9 0
BBX 10 9 0 -3
BITMAP
7700
5900
D100
D300
9640
E380
0700
0A00
0600
ENDCHAR
STARTCHAR uni043E043B
ENCODING -1
SWIDTH 992 0
DWIDTH 11 0
BBX 11 6 0 0
BITMAP
70C0
5140
D1C0
D2C0
9EE0
F6E0
ENDCHAR
STARTCHAR uni043E043C
ENCODING -1
SWIDTH 1207 0
DWIDTH 13 0
BBX 14 6 0 0
BITMAP
7198
51B0
D1B0
D1D0
DEF4
F698
ENDCHAR
STARTCHAR uni043E0445
ENCODING -1
SWIDTH 850 0
DWIDTH 9 0
BBX 10 6 0 0
BITMAP
7280
5680
DA80
D300
9740
ED80
ENDCHAR
STARTCHAR uni043E0459
ENCODING -1
SWIDTH 1179 0
DWIDTH 13 0
BBX 13 6 0 0
BITMAP
70C0
5140
D1F0
D2D8
9ED0
FEE0
ENDCHAR
STARTCHAR uni043E044D
ENCODING -1
SWIDTH 867 0
DWIDTH 10 0
BBX 9 6 0 0
BITMAP
7780
5980
D380
D180
9900
E600
ENDCHAR
STARTCHAR uni043F0447
ENCODING -1
SWIDTH 1010 0
DWIDTH 11 0
BBX 12 6 0 0
BITMAP
7360
DB40
DAC0
D3C0
94D0
98E0
ENDCHAR
STARTCHAR uni04400437
ENCODING -1
SWIDTH 890 0
DWIDTH 10 0
BBX 11 10 -1 -3
BITMAP
2000
3DC0
6EC0
6CC0
6C80
4920
78C0
C180
C380
C300
ENDCHAR
STARTCHAR uni04410437
ENCODING -1
SWIDTH 876 0
DWIDTH 10 0
BBX 10 9 0 -3
BITMAP
7300
5580
C980
C900
9640
E380
0300
0700
0600
ENDCHAR
STARTCHAR uni04410445
ENCODING -1
SWIDTH 755 0
DWIDTH 8 0
BBX 9 6 0 0
BITMAP
7D00
D500
C600
8600
8E80
F300
ENDCHAR
STARTCHAR uni04410447
ENCODING -1
SWIDTH 889 0
DWIDTH 10 0
BBX 10 6 0 0
BITMAP
7680
5580
CD80
CF80
9140
E180
ENDCHAR
STARTCHAR uni0441044A
ENCODING -1
SWIDTH 841 0
DWIDTH 9 0
BBX 9 6 0 0
BITMAP
7700
5A00
C780
C480
8D80
F700
ENDCHAR
STARTCHAR uni04420447
ENCODING -1
SWIDTH 1257 0
DWIDTH 14 0
BBX 14 6 0 0
BITMAP
7E68
DA58
DA58
D2F8
969C
B318
ENDCHAR
STARTCHAR uni04430447
ENCODING -1
SWIDTH 989 0
DWIDTH 11 0
BBX 11 9 0 -3
BITMAP
5B40
DAC0
DAC0
D7C0
F4E0
F8C0
7000
B000
6000
ENDCHAR
STARTCHAR uni04430458
ENCODING -1
SWIDTH 725 0
DWIDTH 8 0
BBX 8 11 0 -3
BITMAP
03
03
5B
DA
DA
D6
F7
F7
7C
B4
7C
ENDCHAR
STARTCHAR uni045E0447
ENCODING -1
SWIDTH 989 0
DWIDTH 11 0
BBX 11 12 0 -3
BITMAP
2800
6800
3000
5B40
DAC0
DAC0
D7C0
F4E0
F8C0
7000
B000
6000
ENDCHAR
STARTCHAR uni045E0458
ENCODING -1
SWIDTH 725 0
DWIDTH 8 0
BBX 8 11 0 -3
BITMAP
6B
33
5B
DA
DA
D6
F7
FF
74
B4
7C
ENDCHAR
STARTCHAR uni04440437
ENCODING -1
SWIDTH 1148 0
DWIDTH 13 0
BBX 13 11 0 -3
BITMAP
0C00
0800
7E60
5BB0
DB30
D220
92C8
FC70
30E0
30E0
20C0
ENDCHAR
STARTCHAR uni04450447
ENCODING -1
SWIDTH 1027 0
DWIDTH 11 0
BBX 12 6 0 0
BITMAP
7F60
BB60
B340
B3C0
54D0
D860
ENDCHAR
STARTCHAR uni0445044A
ENCODING -1
SWIDTH 1006 0
DWIDTH 11 0
BBX 11 6 0 0
BITMAP
6F80
7A80
B9C0
9360
3340
DFC0
ENDCHAR
STARTCHAR uni04470447
ENCODING -1
SWIDTH 1010 0
DWIDTH 11 0
BBX 12 6 0 0
BITMAP
5B60
DB40
DAC0
F3C0
14D0
18E0
ENDCHAR
STARTCHAR uni04480447
ENCODING -1
SWIDTH 1257 0
DWIDTH 14 0
BBX 14 6 0 0
BITMAP
5B68
DA58
DA58
D2F8
F694
DB18
ENDCHAR
STARTCHAR uni045F0447
ENCODING -1
SWIDTH 1010 0
DWIDTH 11 0
BBX 12 9 0 -3
BITMAP
5B60
DB40
DAC0
D3C0
F4D0
D8E0
2000
2000
2000
ENDCHAR
STARTCHAR uni044B0447
ENCODING -1
SWIDTH 1157 0
DWIDTH 13 0
BBX 13 6 0 0
BITMAP
46D0
CCB0
F5B0
D5F0
9D28
E630
ENDCHAR
STARTCHAR uni04550437
ENCODING -1
SWIDTH 840 0
DWIDTH 9 0
BBX 10 9 0 -3
BITMAP
6700
6900
A900
AB00
B640
E380
0700
0A00
0600
ENDCHAR
STARTCHAR uni04550445
ENCODING -1
SWIDTH 727 0
DWIDTH 8 0
BBX 8 6 0 0
BITMAP
2F
6D
66
A4
BD
E7
ENDCHAR
STARTCHAR uni04550447
ENCODING -1
SWIDTH 909 0
DWIDTH 10 0
BBX 10 6 0 0
BITMAP
66C0
6480
A580
AF80
B1C0
E180
ENDCHAR
STARTCHAR uni04540437
ENCODING -1
SWIDTH 876 0
DWIDTH 10 0
BBX 10 9 0 -3
BITMAP
7300
5580
E980
C900
D640
E380
0300
0700
0600
ENDCHAR
STARTCHAR uni04540445
ENCODING -1
SWIDTH 755 0
DWIDTH 8 0
BBX 9 6 0 0
BITMAP
7D00
D500
E600
8600
8E80
F300
ENDCHAR
STARTCHAR uni04540447
ENCODING -1
SWIDTH 889 0
DWIDTH 10 0
BBX 10 6 0 0
BITMAP
7680
5580
ED80
CF80
D140
E180
ENDCHAR
STARTCHAR uni044D0437
ENCODING -1
SWIDTH 837 0
DWIDTH 9 0
BBX 10 9 0 -3
BITMAP
7700
9900
7100
3300
A640
E380
0700
0A00
0600
ENDCHAR
STARTCHAR uni04560447
ENCODING -1
SWIDTH 763 0
DWIDTH 8 0
BBX 9 9 0 0
BITMAP
6000
6000
0000
5B00
DB00
DA00
DE00
E680
C300
ENDCHAR
STARTCHAR uni04570447
ENCODING -1
SWIDTH 763 0
DWIDTH 8 0
BBX 9 8 0 0
BITMAP
F000
0000
5B00
DB00
DA00
DE00
E680
C300
ENDCHAR
STARTCHAR uni04570457
ENCODING -1
SWIDTH 543 0
DWIDTH 6 0
BBX 6 8 0 0
BITMAP
FC
00
48
D8
D8
D8
D4
F8
ENDCHAR
STARTCHAR uni04580447
ENCODING -1
SWIDTH 743 0
DWIDTH 8 0
BBX 11 11 -2 -3
BITMAP
1800
1000
16C0
3680
3580
3780
29A0
31C0
6000
E000
C000
ENDCHAR
STARTCHAR uni04580458
ENCODING -1
SWIDTH 480 0
DWIDTH 5 0
BBX 8 11 -2 -3
BITMAP
1A
12
16
36
34
34
2D
3E
6C
E8
D8
ENDCHAR
STARTCHAR uni045B0447
ENCODING -1
SWIDTH 990 0
DWIDTH 11 0
BBX 11 12 0 -3
BITMAP
2000
6000
F000
4340
F2C0
DAC0
D7C0
94A0
B8C0
7000
A000
6000
ENDCHAR
STARTCHAR uni045B0458
ENCODING -1
SWIDTH 722 0
DWIDTH 8 0
BBX 8 11 0 -3
BITMAP
63
F0
43
F2
DA
D6
97
BF
74
B4
7C
ENDCHAR
STARTCHAR uni044E0433
ENCODING -1
SWIDTH 1050 0
DWIDTH 12 0
BBX 12 6 0 0
BITMAP
4EE0
DB20
F260
F2C0
B590
99E0
ENDCHAR
STARTCHAR uni044E0453
ENCODING -1
SWIDTH 1050 0
DWIDTH 12 0
BBX 12 9 0 0
BITMAP
0030
0020
0000
4EE0
DB20
F260
F2C0
B590
99E0
ENDCHAR
STARTCHAR uni044E0436
ENCODING -1
SWIDTH 1507 0
DWIDTH 17 0
BBX 17 6 0 0
BITMAP
4ECB80
DB7A80
F27E00
F25400
B55680
9D9300
ENDCHAR
STARTCHAR uni044E0437
ENCODING -1
SWIDTH 1073 0
DWIDTH 12 0
BBX 12 9 0 -3
BITMAP
4EE0
DB60
F260
F260
B490
9870
00C0
01C0
0180
ENDCHAR
STARTCHAR uni044E043B
ENCODING -1
SWIDTH 1228 0
DWIDTH 14 0
BBX 14 6 0 0
BITMAP
4E38
DA38
F258
F250
B554
9F98
ENDCHAR
STARTCHAR uni044E043C
ENCODING -1
SWIDTH 1443 0
DWIDTH 16 0
BBX 16 6 0 0
BITMAP
4E22
DA36
F276
F27E
B577
9FB6
ENDCHAR
STARTCHAR uni044E0445
ENCODING -1
SWIDTH 1088 0
DWIDTH 12 0
BBX 12 6 0 0
BITMAP
4EF0
DBD0
F260
F2C0
B550
9D60
ENDCHAR
STARTCHAR uni044E0459
ENCODING -1
SWIDTH 1415 0
DWIDTH 16 0
BBX 15 6 0 0
BITMAP
4E38
DA38
F25E
F252
B556
9F9C
ENDCHAR
STARTCHAR uni044E044D
ENCODING -1
SWIDTH 1103 0
DWIDTH 12 0
BBX 12 6 0 0
BITMAP
4EE0
DB30
F270
F220
B560
9DC0
ENDCHAR
STARTCHAR uni044F0447
ENCODING -1
SWIDTH 1030 0
DWIDTH 11 0
BBX 12 6 0 0
BITMAP
3B60
4B60
5B40
7BC0
D4D0
D860
ENDCHAR
STARTCHAR uni04300445.liga
ENCODING -1
SWIDTH 884 0
DWIDTH 10 0
BBX 10 6 0 0
BITMAP
7BC0
5B40
DB80
D900
D300
FD80
ENDCHAR
STARTCHAR uni04300447.liga
ENCODING -1
SWIDTH 947 0
DWIDTH 10 0
BBX 10 6 0 0
BITMAP
7B40
5A40
DAC0
DBC0
90C0
F8C0
ENDCHAR
STARTCHAR uni04310451.liga
ENCODING -1
SWIDTH 746 0
DWIDTH 8 0
BBX 9 9 0 0
BITMAP
3C00
3A80
2000
7380
5680
D500
D700
D480
E700
ENDCHAR
STARTCHAR uni04310436.liga
ENCODING -1
SWIDTH 1258 0
DWIDTH 14 0
BBX 14 9 0 0
BITMAP
3C00
3C00
2000
776C
5954
D1F0
D3F0
9AF0
EE9C
ENDCHAR
STARTCHAR uni04310439.liga
ENCODING -1
SWIDTH 901 0
DWIDTH 10 0
BBX 10 9 0 0
BITMAP
3E40
3B40
2180
76C0
56C0
D680
D480
9580
E6C0
ENDCHAR
STARTCHAR uni0431045E.liga
ENCODING -1
SWIDTH 890 0
DWIDTH 10 0
BBX 10 12 0 -3
BITMAP
3E40
3B40
2180
76C0
56C0
D680
D480
D580
E780
0380
0500
0700
ENDCHAR
STARTCHAR uni04310456.liga
ENCODING -1
SWIDTH 639 0
DWIDTH 7 0
BBX 7 9 0 0
BITMAP
3E
3A
20
76
56
D6
D4
94
E6
ENDCHAR
STARTCHAR uni04310457.liga
ENCODING -1
SWIDTH 638 0
DWIDTH 7 0
BBX 8 9 0 0
BITMAP
38
3F
20
76
56
D6
D4
94
E6
ENDCHAR
STARTCHAR uni04310458.liga
ENCODING -1
SWIDTH 638 0
DWIDTH 7 0
BBX 7 12 0 -3
BITMAP
04
3A
3A
66
56
D6
D4
94
EC
1C
2C
18
ENDCHAR
STARTCHAR uni04320436.liga
ENCODING -1
SWIDTH 1275 0
DWIDTH 14 0
BBX 14 9 0 0
BITMAP
3000
6800
4800
576C
D954
F1F0
D1D0
DAD0
E6DC
ENDCHAR
STARTCHAR uni04320437.liga
ENCODING -1
SWIDTH 752 0
DWIDTH 8 0
BBX 8 12 0 -3
BITMAP
30
68
48
57
D9
F1
D3
D6
E2
07
0A
0E
ENDCHAR
STARTCHAR uni04320445.liga
ENCODING -1
SWIDTH 842 0
DWIDTH 9 0
BBX 9 9 0 0
BITMAP
3000
6800
4800
5680
DA80
F300
D300
D700
E980
ENDCHAR
STARTCHAR uni04330437.liga
ENCODING -1
SWIDTH 768 0
DWIDTH 8 0
BBX 8 9 0 -3
BITMAP
67
B9
69
CB
96
E3
07
0A
06
ENDCHAR
STARTCHAR uni04330445.liga
ENCODING -1
SWIDTH 725 0
DWIDTH 8 0
BBX 8 6 0 0
BITMAP
6D
BD
66
C4
8E
F7
ENDCHAR
STARTCHAR uni04330447.liga
ENCODING -1
SWIDTH 834 0
DWIDTH 9 0
BBX 9 6 0 0
BITMAP
6580
B580
6D80
CF80
9100
E180
ENDCHAR
STARTCHAR uni04530437.liga
ENCODING -1
SWIDTH 768 0
DWIDTH 8 0
BBX 8 12 0 -3
BITMAP
10
10
20
67
B9
69
CB
96
E3
07
0A
06
ENDCHAR
STARTCHAR uni04530445.liga
ENCODING -1
SWIDTH 725 0
DWIDTH 8 0
BBX 8 9 0 0
BITMAP
10
10
20
6D
BD
66
C4
8E
F7
ENDCHAR
STARTCHAR uni04530447.liga
ENCODING -1
SWIDTH 834 0
DWIDTH 9 0
BBX 9 9 0 0
BITMAP
1000
1000
2000
6580
B580
6D80
CF80
9100
E180
ENDCHAR
STARTCHAR uni04340447.liga
ENCODING -1
SWIDTH 965 0
DWIDTH 11 0
BBX 11 9 0 -3
BITMAP
7B60
5B40
DAC0
DBC0
94C0
F8E0
3000
7000
6000
ENDCHAR
STARTCHAR uni04340458.liga
ENCODING -1
SWIDTH 715 0
DWIDTH 8 0
BBX 8 11 0 -3
BITMAP
03
01
7B
5B
DA
DA
96
FE
36
74
6C
ENDCHAR
STARTCHAR uni04350437.liga
ENCODING -1
SWIDTH 804 0
DWIDTH 9 0
BBX 9 9 0 -3
BITMAP
7300
5580
D980
E900
9600
E300
0700
0700
0600
ENDCHAR
STARTCHAR uni04350445.liga
ENCODING -1
SWIDTH 747 0
DWIDTH 8 0
BBX 8 6 0 0
BITMAP
75
55
D5
E6
CE
F3
ENDCHAR
STARTCHAR uni04350447.liga
ENCODING -1
SWIDTH 844 0
DWIDTH 9 0
BBX 9 6 0 0
BITMAP
7680
5580
DD80
EF80
9100
E180
ENDCHAR
STARTCHAR uni04510437.liga
ENCODING -1
SWIDTH 804 0
DWIDTH 9 0
BBX 9 11 0 -3
BITMAP
7800
0000
7300
5580
D980
E900
9600
E300
0700
0700
0600
ENDCHAR
STARTCHAR uni04510445.liga
ENCODING -1
SWIDTH 747 0
DWIDTH 8 0
BBX 8 8 0 0
BITMAP
78
00
75
55
D5
E6
CE
F3
ENDCHAR
STARTCHAR uni04510447.liga
ENCODING -1
SWIDTH 844 0
DWIDTH 9 0
BBX 9 8 0 0
BITMAP
7800
0000
7680
5580
DD80
EF80
9100
E180
ENDCHAR
STARTCHAR uni04360447.liga
ENCODING -1
SWIDTH 1341 0
DWIDTH 15 0
BBX 15 6 0 0
BITMAP
6DF6
AFB4
3E3C
2A3C
AA4C
DB86
ENDCHAR
STARTCHAR uni04370437.liga
ENCODING -1
SWIDTH 849 0
DWIDTH 9 0
BBX 9 9 0 -3
BITMAP
7380
5C80
9880
9580
6B00
3900
7380
B500
6700
ENDCHAR
STARTCHAR uni04380447.liga
ENCODING -1
SWIDTH 964 0
DWIDTH 11 0
BBX 11 6 0 0
BITMAP
5B60
DB40
DAC0
D3C0
F4C0
D8E0
ENDCHAR
STARTCHAR uni04390447.liga
ENCODING -1
SWIDTH 964 0
DWIDTH 11 0
BBX 11 9 0 0
BITMAP
2800
6800
3000
5B60
DB40
DAC0
D3C0
F4C0
D8E0
ENDCHAR
STARTCHAR uni043A0447.liga
ENCODING -1
SWIDTH 978 0
DWIDTH 11 0
BBX 11 6 0 0
BITMAP
5B60
E340
F340
D3C0
94C0
9860
ENDCHAR
STARTCHAR uni045C0447.liga
ENCODING -1
SWIDTH 978 0
DWIDTH 11 0
BBX 11 9 0 0
BITMAP
1800
1000
0000
5B60
E340
F340
D3C0
94C0
9860
ENDCHAR
STARTCHAR uni043B0447.liga
ENCODING -1
SWIDTH 1015 0
DWIDTH 11 0
BBX 11 6 0 0
BITMAP
1D60
2960
2B60
3BE0
DA40
DC60
ENDCHAR
STARTCHAR uni043C0447.liga
ENCODING -1
SWIDTH 1231 0
DWIDTH 14 0
BBX 14 6 0 0
BITMAP
336C
3368
3658
3678
DA9C
DB18
ENDCHAR
STARTCHAR uni043D0447.liga
ENCODING -1
SWIDTH 965 0
DWIDTH 11 0
BBX 11 6 0 0
BITMAP
5B60
DB40
FAC0
D3C0
94C0
98E0
ENDCHAR
STARTCHAR uni043E0436.liga
ENCODING -1
SWIDTH 1268 0
DWIDTH 14 0
BBX 14 6 0 0
BITMAP
776C
5954
D1F0
D1D0
9AD0
EEDC
ENDCHAR
STARTCHAR uni043E0437.liga
ENCODING -1
SWIDTH 765 0
DWIDTH 8 0
BBX 8 9 0 -3
BITMAP
77
59
D1
D3
96
E3
07
0A
06
ENDCHAR
STARTCHAR uni043E043B.liga
ENCODING -1
SWIDTH 945 0
DWIDTH 10 0
BBX 10 6 0 0
BITMAP
70C0
5140
D1C0
D2C0
9EC0
F6C0
ENDCHAR
STARTCHAR uni043E043C.liga
ENCODING -1
SWIDTH 1161 0
DWIDTH 13 0
BBX 13 6 0 0
BITMAP
7198
5190
D1B0
D1B0
9EF0
F698
ENDCHAR
STARTCHAR uni043E0445.liga
ENCODING -1
SWIDTH 835 0
DWIDTH 9 0
BBX 9 6 0 0
BITMAP
7280
5680
DB00
D300
9700
ED80
ENDCHAR
STARTCHAR uni043F0447.liga
ENCODING -1
SWIDTH 965 0
DWIDTH 11 0
BBX 11 6 0 0
BITMAP
7360
DB40
DAC0
D3C0
94C0
98E0
ENDCHAR
STARTCHAR uni04400437.liga
ENCODING -1
SWIDTH 818 0
DWIDTH 9 0
BBX 10 10 -1 -3
BITMAP
2000
3DC0
6EC0
6CC0
6C80
4900
7880
C380
C380
C300
ENDCHAR
STARTCHAR uni04410437.liga
ENCODING -1
SWIDTH 804 0
DWIDTH 9 0
BBX 9 9 0 -3
BITMAP
7300
5580
C980
C900
9600
E300
0700
0700
0600
ENDCHAR
STARTCHAR uni04410445.liga
ENCODING -1
SWIDTH 740 0
DWIDTH 8 0
BBX 8 6 0 0
BITMAP
7D
D5
C5
86
8E
F3
ENDCHAR
STARTCHAR uni04410447.liga
ENCODING -1
SWIDTH 843 0
DWIDTH 9 0
BBX 9 6 0 0
BITMAP
7680
5580
CD80
CF80
9100
E180
ENDCHAR
STARTCHAR uni04420447.liga
ENCODING -1
SWIDTH 1211 0
DWIDTH 13 0
BBX 13 6 0 0
BITMAP
7E68
DA58
DA58
D2F8
9698
B318
ENDCHAR
STARTCHAR uni04430447.liga
ENCODING -1
SWIDTH 943 0
DWIDTH 10 0
BBX 10 9 0 -3
BITMAP
5B40
DAC0
DAC0
D7C0
F4C0
F8C0
7000
B000
6000
ENDCHAR
STARTCHAR uni04430458.liga
ENCODING -1
SWIDTH 694 0
DWIDTH 8 0
BBX 8 11 0 -3
BITMAP
03
03
5B
DA
DA
D6
F6
F6
7C
B4
7C
ENDCHAR
STARTCHAR uni045E0447.liga
ENCODING -1
SWIDTH 943 0
DWIDTH 10 0
BBX 10 12 0 -3
BITMAP
2800
6800
3000
5B40
DAC0
DAC0
D7C0
F4C0
F8C0
7000
B000
6000
ENDCHAR
STARTCHAR uni045E0458.liga
ENCODING -1
SWIDTH 694 0
DWIDTH 8 0
BBX 8 11 0 -3
BITMAP
6B
33
5B
DA
DA
D6
F6
FE
74
B4
7C
ENDCHAR
STARTCHAR uni04440437.liga
ENCODING -1
SWIDTH 1076 0
DWIDTH 12 0
BBX 12 11 0 -3
BITMAP
0C00
0800
7E60
5BB0
DB30
D220
92C0
FC60
30E0
30E0
20C0
ENDCHAR
STARTCHAR uni04450447.liga
ENCODING -1
SWIDTH 981 0
DWIDTH 11 0
BBX 11 6 0 0
BITMAP
7F60
BB60
B340
B3C0
54C0
D860
ENDCHAR
STARTCHAR uni04470447.liga
ENCODING -1
SWIDTH 964 0
DWIDTH 11 0
BBX 11 6 0 0
BITMAP
5B60
DB40
DAC0
F3C0
14C0
18E0
ENDCHAR
STARTCHAR uni04480447.liga
ENCODING -1
SWIDTH 1211 0
DWIDTH 13 0
BBX 13 6 0 0
BITMAP
5B68
DA58
DA58
D2F8
F690
DB18
ENDCHAR
STARTCHAR uni045F0447.liga
ENCODING -1
SWIDTH 964 0
DWIDTH 11 0
BBX 11 9 0 -3
BITMAP
5B60
DB40
DAC0
D3C0
F4C0
D8E0
2000
2000
2000
ENDCHAR
STARTCHAR uni044B0447.liga
ENCODING -1
SWIDTH 1112 0
DWIDTH 12 0
BBX 12 6 0 0
BITMAP
46D0
CCB0
F5B0
D5F0
9D20
E630
ENDCHAR
STARTCHAR uni04550437.liga
ENCODING -1
SWIDTH 768 0
DWIDTH 8 0
BBX 8 9 0 -3
BITMAP
67
69
A9
AB
B6
E3
07
0B
06
ENDCHAR
STARTCHAR uni04550445.liga
ENCODING -1
SWIDTH 712 0
DWIDTH 8 0
BBX 8 6 0 0
BITMAP
2F
6D
66
A4
BC
E6
ENDCHAR
STARTCHAR uni04550447.liga
ENCODING -1
SWIDTH 864 0
DWIDTH 10 0
BBX 10 6 0 0
BITMAP
66C0
6480
A580
AF80
B180
E180
ENDCHAR
STARTCHAR uni04540437.liga
ENCODING -1
SWIDTH 804 0
DWIDTH 9 0
BBX 9 9 0 -3
BITMAP
7300
5580
E980
C900
D600
E300
0700
0700
0600
ENDCHAR
STARTCHAR uni04540445.liga
ENCODING -1
SWIDTH 740 0
DWIDTH 8 0
BBX 8 6 0 0
BITMAP
7D
D5
E6
86
8E
F3
ENDCHAR
STARTCHAR uni04540447.liga
ENCODING -1
SWIDTH 844 0
DWIDTH 9 0
BBX 9 6 0 0
BITMAP
7680
5580
ED80
CF80
D100
E180
ENDCHAR
STARTCHAR uni044D0437.liga
ENCODING -1
SWIDTH 765 0
DWIDTH 8 0
BBX 8 9 0 -3
BITMAP
77
99
71
33
A6
E3
07
0A
06
ENDCHAR
STARTCHAR uni04560447.liga
ENCODING -1
SWIDTH 717 0
DWIDTH 8 0
BBX 8 9 0 0
BITMAP
60
60
00
5B
DB
DA
DE
E6
C3
ENDCHAR
STARTCHAR uni04570447.liga
ENCODING -1
SWIDTH 718 0
DWIDTH 8 0
BBX 8 8 0 0
BITMAP
F0
00
5B
DB
DA
DE
E6
C3
ENDCHAR
STARTCHAR uni04570457.liga
ENCODING -1
SWIDTH 476 0
DWIDTH 5 0
BBX 6 8 0 0
BITMAP
FC
00
48
D8
D8
D8
D0
F8
ENDCHAR
STARTCHAR uni04580447.liga
ENCODING -1
SWIDTH 697 0
DWIDTH 8 0
BBX 10 11 -2 -3
BITMAP
1800
1000
16C0
3680
3580
3780
2980
30C0
6000
E000
C000
ENDCHAR
STARTCHAR uni04580458.liga
ENCODING -1
SWIDTH 449 0
DWIDTH 5 0
BBX 7 11 -2 -3
BITMAP
1A
12
16
36
34
34
2C
3C
6C
E8
D8
ENDCHAR
STARTCHAR uni045B0447.liga
ENCODING -1
SWIDTH 937 0
DWIDTH 10 0
BBX 10 12 0 -3
BITMAP
2000
6000
F000
4340
F2C0
DAC0
D7C0
9480
B8C0
7000
A000
6000
ENDCHAR
STARTCHAR uni045B0458.liga
ENCODING -1
SWIDTH 691 0
DWIDTH 8 0
BBX 8 11 0 -3
BITMAP
63
F0
43
F2
DA
D6
96
BE
74
B4
7C
ENDCHAR
STARTCHAR uni044E0436.liga
ENCODING -1
SWIDTH 1503 0
DWIDTH 17 0
BBX 17 6 0 0
BITMAP
4ECB80
DB7A80
F27E00
F25400
B55680
9D9300
ENDCHAR
STARTCHAR uni044E0437.liga
ENCODING -1
SWIDTH 1001 0
DWIDTH 11 0
BBX 11 9 0 -3
BITMAP
4EE0
DB60
F260
F260
B480
9840
01C0
01C0
0180
ENDCHAR
STARTCHAR uni044E043B.liga
ENCODING -1
SWIDTH 1181 0
DWIDTH 13 0
BBX 13 6 0 0
BITMAP
4E38
DA38
F258
F250
B550
9F98
ENDCHAR
STARTCHAR uni044E043C.liga
ENCODING -1
SWIDTH 1396 0
DWIDTH 15 0
BBX 15 6 0 0
BITMAP
4E22
DA36
F276
F27E
B576
9FB6
ENDCHAR
STARTCHAR uni044E0445.liga
ENCODING -1
SWIDTH 1072 0
DWIDTH 12 0
BBX 12 6 0 0
BITMAP
4EF0
DBD0
F260
F2C0
B540
9D60
ENDCHAR
STARTCHAR uni044F0447.liga
ENCODING -1
SWIDTH 984 0
DWIDTH 11 0
BBX 11 6 0 0
BITMAP
3B60
4B60
5B40
7BC0
D4C0
D860
ENDCHAR
STARTCHAR brevecombcy
ENCODING -1
SWIDTH 0 0
DWIDTH 0 0
BBX 4 2 -3 6
BITMAP
B0
C0
ENDCHAR
STARTCHAR brevecombcy.case
ENCODING -1
SWIDTH 0 0
DWIDTH 0 0
BBX 4 2 -3 9
BITMAP
D0
60
ENDCHAR
ENDFONT
